<?xml version="1.0" standalone="no"?>
<!DOCTYPE svg PUBLIC "-//W3C//DTD SVG 1.1//EN" "http://www.w3.org/Graphics/SVG/1.1/DTD/svg11.dtd" >
<svg>
<metadata>
Created by FontForge 20090914 at Thu Oct 28 12:14:07 2021
 By www-data
Copyright &#194;&#169; 2016 by Misha Panfilov. All rights reserved.
</metadata>
<defs>
<font id="Pribambas-Regular" horiz-adv-x="417" >
  <font-face 
    font-family="Pribambas"
    font-weight="400"
    font-stretch="normal"
    units-per-em="1000"
    panose-1="0 0 5 0 0 0 0 0 0 0"
    ascent="750"
    descent="-250"
    x-height="627.999"
    cap-height="631.002"
    bbox="-324.182 -181.003 722 911.001"
    underline-thickness="50"
    underline-position="-50"
    unicode-range="U+0020-U+2116"
  />
<missing-glyph horiz-adv-x="253" 
 />
    <glyph glyph-name=".notdef" horiz-adv-x="253" 
 />
    <glyph glyph-name="space" unicode=" " horiz-adv-x="219" 
 />
    <glyph glyph-name="exclam" unicode="!" horiz-adv-x="197" 
d="M62.5 637.5c-14.333 0.333008 -26.835 0.166016 -37.502 -0.500977c-14 0 -21 -6.66699 -21 -20c-0.666992 -43.333 -1 -174.333 -1 -393c0 -5.33301 1 -10.166 3 -14.499s5 -6.5 9 -6.5h77c0.666992 0 1.83398 0.5 3.50098 1.5s3.33398 3.16699 5.00098 6.5
s2.5 8 2.5 14v70l-1 323c0 12.667 -4.66699 19 -14 19c-2.66699 0 -11.167 0.166992 -25.5 0.5zM3.99805 48l-0.000976562 -26c0.666992 -11.333 7 -17.666 19 -18.999l17 -1c11.333 0 21.166 0.333008 29.499 1s14.5 1 18.5 1c6 0 10.667 2.5 14 7.5s5 12.5 5 22.5l-1 29
c-0.666992 6 -1 15 -1 27c-0.666992 7.33301 -2.16699 12 -4.5 14s-6.83301 2.66699 -13.5 2c-9.33301 -1.33301 -19.666 -1.83301 -30.999 -1.5s-19.333 0.5 -24 0.5c-11.333 -0.666992 -18.666 -1.33398 -21.999 -2.00098s-5.5 -2.66699 -6.5 -6s-1.16699 -10 -0.5 -20
c0.666992 -6 1 -15.667 1 -29z" />
    <glyph glyph-name="numbersign" unicode="#" horiz-adv-x="573" 
d="M64 99c-12.667 -40 -20.334 -65.668 -23.001 -77.001c-1.33301 -5.33301 -2 -10.333 -2 -15c0 -6 1 -9.33301 3 -10c8.66699 -6 20 -11 34 -15s26.333 -7 37 -9c1.33301 -0.666992 3 -1 5 -1c4.66699 0 8.33398 2.66699 11.001 8
c3.33301 5.33301 14.666 39.333 33.999 102c4 12 7.33301 19.667 10 23s7.66699 5 15 5l16 -1c10.667 -1.33301 19.334 -2 26.001 -2s9.33398 -1.5 8.00098 -4.5s-2 -4.83301 -2 -5.5l-11 -40c-5.33301 -14 -8 -23 -8 -27c0 -4.66699 3.33301 -8 10 -10
c5.33301 -2 14.833 -5.16699 28.5 -9.5s26.167 -8.83301 37.5 -13.5l8 -2c5.33301 0 9 3.66699 11 11l22 73c2.66699 10.667 4.66699 17.5 6 20.5s3.83301 5 7.5 6s10.5 1.16699 20.5 0.5c34 0 58.333 -0.333008 73 -1l10 -1c6.66699 0 12.334 2.33301 17.001 7
c3.33301 5.33301 8.66602 32 15.999 80l1 4c0 4 -3.66699 6 -11 6c-29.333 0 -51.666 0.333008 -66.999 1s-24.333 1 -27 1c-4.66699 0.666992 -6 3.66699 -4 9c3.33301 10.667 6 20 8 28c2 6.66699 6.33301 9.66699 13 9h84c10 0 16.667 6.66699 20 20
c1.33301 4.66699 4.5 14.167 9.5 28.5s7.5 25.166 7.5 32.499c0 9.33301 -5.33301 14 -16 14c-9.33301 -0.666992 -23.166 -0.833984 -41.499 -0.500977s-28.833 0.5 -31.5 0.5c-4.66699 0 -6.33398 1.5 -5.00098 4.5l2 4.5c0 2.66699 5.66699 21.667 17 57l7 22l1 4
c0 4.66699 -3.33301 8 -10 10l-61 18c-2 0.666992 -4 1.5 -6 2.5s-4 1.5 -6 1.5c-2.66699 0 -5.33398 -2 -8.00098 -6s-5 -9 -7 -15s-4 -11.333 -6 -16c-8.66699 -23.333 -14 -38.333 -16 -45c-4.66699 -14.667 -9.33398 -27.667 -14.001 -39
c-0.666992 -1.33301 -1.83398 -2.66602 -3.50098 -3.99902s-3.5 -2 -5.5 -2c-26 0 -45.667 0.333008 -59 1c-1.33301 0 -2.83301 0.833008 -4.5 2.5s-2.16699 4.16699 -1.5 7.5c0 1.33301 1.16699 5.5 3.5 12.5l6.5 19.5c8.66699 23.333 15.334 44 20.001 62
c0 7.33301 -3.33301 12 -10 14c-6 2 -18.667 5.33301 -38 10l-20 5l-8 2c-7.33301 0 -12 -4.33301 -14 -13l-38 -112c-2.66699 -8 -8 -12 -16 -12c-4 0 -14.333 0.333008 -31 1s-36.667 1 -60 1c-2 0 -4 -1.16699 -6 -3.5s-3.33301 -4.5 -4 -6.5
c-1.33301 -4.66699 -2.33301 -10.167 -3 -16.5s-1 -10.833 -1 -13.5c-1.33301 -17.333 -2.66602 -30.666 -3.99902 -39.999v-3c0 -8 3.66699 -12 11 -12l24 -1c21.333 -1.33301 37 -2 47 -2c4 0 6 -1.66699 6 -5c-2.66699 -8.66699 -4.33398 -14 -5.00098 -16
c-2.66699 -8.66699 -5.16699 -14.167 -7.5 -16.5s-6.83301 -3.5 -13.5 -3.5l-58 1c-12 -1.33301 -19.5 -3.5 -22.5 -6.5s-4.83301 -10.5 -5.5 -22.5c0 -5.33301 -3 -24.666 -9 -57.999c0 -8 3 -12 9 -12h62c5.33301 0 7.33301 -2 6 -6zM280.5 242.499l-0.500977 -3.49902
c-5.33301 -18.667 -8.66602 -29.334 -9.99902 -32.001c-0.666992 -1.33301 -1.83398 -2.5 -3.50098 -3.5s-3.16699 -1.5 -4.5 -1.5l-56 2c-4 0 -5 2.66699 -3 8c2.66699 12 5.33398 22.333 8.00098 31c0 1.33301 0.666992 2.5 2 3.5s2.66602 1.5 3.99902 1.5l57 -2
c4.66699 0 6.83398 -1.16699 6.50098 -3.5z" />
    <glyph glyph-name="dollar" unicode="$" horiz-adv-x="406" 
d="M315.5 135c-6.33301 -28 -19.3311 -55.498 -38.998 -82.498s-47.5 -44.833 -83.5 -53.5l1 -63l1 -30v-8c0 -6.66699 -1.16699 -10.834 -3.5 -12.501s-8.16602 -2.83398 -17.499 -3.50098c-25.333 -1.33301 -39.333 -2 -42 -2h-3c-5.33301 0 -9 1.16699 -11 3.5
s-3 6.5 -3 12.5v49l-1 53c-26 4.66699 -48.5 14.334 -67.5 29.001s-33.5 31.334 -43.5 50.001s-15.333 36.334 -16 53.001c-0.666992 14 -1 34.333 -1 61v61c0 5.33301 0.833008 8.66602 2.5 9.99902s5.16699 2 10.5 2h40c31.333 0 48.666 -1.66699 51.999 -5
c2.66699 -2 4 -14 4 -36c0 -18.667 0.333008 -32 1 -40c2 -14.667 7.83301 -30.167 17.5 -46.5s24.5 -24.5 44.5 -24.5c22 0 36.5 9.33301 43.5 28s10.5 44.667 10.5 78c0 21.333 -7.5 38.833 -22.5 52.5s-38.167 29.167 -69.5 46.5c-28.667 15.333 -52 29.666 -70 42.999
s-33.5 31.166 -46.5 53.499s-19.5 49.5 -19.5 81.5c0 20 5.16699 40.167 15.5 60.5s25.5 38.333 45.5 54s43.667 26.5 71 32.5c0 24 -0.333008 42 -1 54l-1 42v8c0 6.66699 1.16699 10.667 3.5 12s8.16602 2.33301 17.499 3l42 3h3c9.33301 0 14 -5.33301 14 -16l1 -47v-58
c49.333 -10 80.5 -28.167 93.5 -54.5s19.833 -39.833 20.5 -40.5c4 -6 6 -10.333 6 -13s-3.66699 -6.66699 -11 -12c-26.667 -16 -47 -27.667 -61 -35c-0.666992 -0.666992 -2.66699 -1 -6 -1c-6 0 -9 1 -9 3c-5.33301 14.667 -14.333 27.667 -27 39s-26.334 17 -41.001 17
c-18.667 0 -34.667 -5 -48 -15s-20 -26 -20 -48c0 -16.667 7.5 -30.667 22.5 -42s34.5 -22.333 58.5 -33c2.66699 -1.33301 5.83398 -2.83301 9.50098 -4.5s7.16699 -3.5 10.5 -5.5c21.333 -14 40.166 -27.667 56.499 -41s33 -33.333 50 -60s25.5 -57 25.5 -91
c0 -19.333 -3.16699 -43 -9.5 -71z" />
    <glyph glyph-name="percent" unicode="%" horiz-adv-x="531" 
d="M24 28c18 -17.333 31.3311 -28.333 39.998 -33c2 -1.33301 5.33301 -2 10 -2c4 0 8 2 12 6l191.5 249.5c90.333 118.333 143.5 188.833 159.5 211.5c2.66699 3.33301 4 7 4 11c0 4.66699 -2.66699 8.66699 -8 12c-20 14 -36 25.667 -48 35
c-1.33301 0.666992 -4.66602 3 -9.99902 7s-9.66602 6 -12.999 6c-2.66699 0 -5.66699 -1.5 -9 -4.5s-6.5 -6.16699 -9.5 -9.5s-5.16699 -6 -6.5 -8l-337 -445c-2 -6.66699 6 -18.667 24 -36zM57.998 515.5c-19.333 -0.333008 -31.667 -0.166016 -37 0.500977
c-8 0 -12 -3.66699 -12 -11l2 -72c0 -10.667 1.16699 -17.834 3.5 -21.501s10.166 -5.5 23.499 -5.5c9.33301 -1.33301 23.333 -2 42 -2c12 0 20.333 1.83301 25 5.5s7.33398 11.167 8.00098 22.5v65c0 12.667 -6.33301 19 -19 19c-4.66699 0 -16.667 -0.166992 -36 -0.5z
M347.997 113.5c-19.333 -0.333008 -31.334 -0.503906 -36.001 -0.503906h-3c-5.33301 0 -8 -3.33301 -8 -10c0 -32 0.333008 -56 1 -72c0 -1.33301 0.166992 -5.16602 0.5 -11.499s2.66602 -10.666 6.99902 -12.999s10.833 -3.5 19.5 -3.5
c9.33301 -0.666992 23.333 -1 42 -1c12.667 0 21.334 1.83301 26.001 5.5s7 11.167 7 22.5c0.666992 8 1 19 1 33s-0.333008 24.667 -1 32c0 6.66699 -1.5 11.334 -4.5 14.001s-7.83301 4 -14.5 4c-5.33301 0.666992 -17.666 0.833984 -36.999 0.500977z" />
    <glyph glyph-name="ampersand" unicode="&#x26;" horiz-adv-x="480" 
d="M65 340c-3.33301 -3.33301 -10.1709 -9.50098 -20.5039 -18.501s-19.166 -17.667 -26.499 -26s-13.333 -16.833 -18 -25.5c-8 -14.667 -14.167 -30 -18.5 -46s-6.5 -31 -6.5 -45c0 -27.333 7 -55.333 21 -84s34 -52.5 60 -71.5s56 -28.5 90 -28.5
c28.667 0 52.334 5.16699 71.001 15.5s33.667 20.833 45 31.5s19 17.667 23 21c2.66699 2.66699 5.33398 4 8.00098 4s5.33398 -2 8.00098 -6l15 -23c10.667 -15.333 17.667 -26 21 -32c2.66699 -3.33301 5.16699 -5.33301 7.5 -6s4.83301 0.333008 7.5 3l64 43
c2.66699 2.66699 4 5.33398 4 8.00098c0 3.33301 -1.33301 6.66602 -4 9.99902l-58 72l6 8c26 32 46 67 60 105c2 6 3 10.333 3 13c0 5.33301 -2.33301 9.33301 -7 12c-24 12.667 -48.667 22 -74 28h-4c-6 0 -10.333 -3 -13 -9c-1.33301 -1.33301 -5 -9.66602 -11 -24.999
c-2 -5.33301 -5.66699 -13.833 -11 -25.5s-9.33301 -19.834 -12 -24.501c-8 9.33301 -20 24.666 -36 45.999c-12 16.667 -25.333 34 -40 52c8 6.66699 13.333 10.667 16 12c13.333 10.667 22.333 18.334 27 23.001c15.333 13.333 27.833 31.166 37.5 53.499
s14.5 42.5 14.5 60.5c0 35.333 -8.5 68.5 -25.5 99.5s-53.5 46.5 -109.5 46.5s-93.167 -16.167 -111.5 -48.5s-28.833 -65.5 -31.5 -99.5c-2 -39.333 9 -74.666 33 -105.999l5 -10c-5.33301 -3.33301 -8.33301 -5.66602 -9 -6.99902zM137.495 429.499
c-5 12.333 -7.50098 25.166 -7.50098 38.499c0 14.667 3.33301 27 10 37s16.334 15 29.001 15c18 0 31.667 -4.33301 41 -13s14 -19.667 14 -33c0 -14 -5.66699 -28.167 -17 -42.5s-27.333 -25.166 -48 -32.499c-9.33301 8 -16.5 18.167 -21.5 30.5zM110.494 130.499
c-13 13.667 -19.501 30.166 -19.501 49.499c0 15.333 3.5 28.333 10.5 39s17.167 22.334 30.5 35.001c2.66699 2.66699 5.33398 4 8.00098 4s5 -1.33301 7 -4l78 -99c0.666992 -0.666992 1 -1.66699 1 -3s-1.33301 -4 -4 -8c-22.667 -22.667 -45.667 -34 -69 -34
c-15.333 0 -29.5 6.83301 -42.5 20.5z" />
    <glyph glyph-name="quotesingle" unicode="'" horiz-adv-x="156" 
d="M-37.5 501c5 -0.666992 8.16797 -0.998047 9.50098 -0.998047c11.333 -0.666992 21.166 -0.833984 29.499 -0.500977s15.5 0.5 21.5 0.5h25c13.333 0 24 3 32 9s14.333 15.333 19 28c2 24 3 42.667 3 56c0 12 -1 27.333 -3 46c-0.666992 2 -2 3.66699 -4 5
s-3.66699 2 -5 2l-82 2c-4 0 -6.66699 -1.66699 -8 -5s-2 -9 -2 -17l1 -31c0 -34 -6 -56.333 -18 -67c-3.33301 -2 -8.5 -4.83301 -15.5 -8.5s-10.5 -7.16699 -10.5 -10.5c0 -4.66699 2.5 -7.33398 7.5 -8.00098z" />
    <glyph glyph-name="parenleft" unicode="(" horiz-adv-x="281" 
d="M11 174c10.667 -48.667 22.667 -89.002 36 -121.002s24 -53 32 -63c2 -2.66699 5.83301 -4.5 11.5 -5.5s10.5 -0.833008 14.5 0.5c8 2 19.333 6.33301 34 13l19 8c8 3.33301 13.667 6.5 17 9.5s5 6.83301 5 11.5c0 6 -2 14.333 -6 25c-4 6 -11.5 23.333 -22.5 52
s-21.5 63.167 -31.5 103.5s-15 80.833 -15 121.5c0 60 12.333 112.167 37 156.5s50.667 79.5 78 105.5c2 2.66699 4.5 6.5 7.5 11.5s4.5 9.5 4.5 13.5s-2.33301 7 -7 9c-15.333 6.66699 -41.333 15.667 -78 27l-4 1c-4 0 -8.33301 -1.66699 -13 -5
c-18 -17.333 -37.5 -42.666 -58.5 -75.999s-39 -71.166 -54 -113.499s-22.5 -84.833 -22.5 -127.5c0 -56 5.33301 -108.333 16 -157z" />
    <glyph glyph-name="parenright" unicode=")" horiz-adv-x="313" 
d="M5 601c0 -3.33301 1.99805 -6.99707 5.99805 -10.9971c30.667 -26.667 56.334 -68.334 77.001 -125.001s31 -108.334 31 -155.001c0 -38 -12 -83 -36 -135s-48.333 -99 -73 -141c-3.33301 -6.66699 -5 -12 -5 -16c0 -4.66699 2 -8.83398 6 -12.501
s10.333 -7.16699 19 -10.5l28 -12c12 -5.33301 19 -8.33301 21 -9c5.33301 -1.33301 11.833 0.666992 19.5 6s14.5 13 20.5 23c2 4 7.66699 13.333 17 28c17.333 28.667 31.833 55 43.5 79s22.334 54.5 32.001 91.5s14.5 77.5 14.5 121.5c0 64 -14.167 126.833 -42.5 188.5
s-56.833 111.5 -85.5 149.5c-2 2.66699 -6 4 -12 4s-10 -1 -12 -3l-19 -14c-22 -16 -36 -27 -42 -33c-5.33301 -5.33301 -8 -10 -8 -14z" />
    <glyph glyph-name="asterisk" unicode="*" horiz-adv-x="239" 
d="M272 538l0.00292969 -3.00195c0 -6 -0.666992 -9.5 -2 -10.5s-4.33301 -1.5 -9 -1.5h-13h-52l56 -54c2 -2 3.83301 -4.33301 5.5 -7s1.16699 -5 -1.5 -7c-2.66699 -3.33301 -6 -6.66602 -10 -9.99902c-5.33301 -5.33301 -9 -8 -11 -8c-1.33301 0 -3.83301 1.66699 -7.5 5
s-6.83398 6.33301 -9.50098 9l-47 46v-52v-4c0 -6 -0.833008 -9.66699 -2.5 -11s-4.66699 -2 -9 -2h-10.5c-4.66699 0 -13.667 0.333008 -27 1c-6 0 -10.333 0.666992 -13 2s-4 4.66602 -4 9.99902v60c-34.667 -34.667 -53.334 -53.667 -56.001 -57
c-4.66699 -4.66699 -9 -7 -13 -7c-2.66699 0 -5.83398 1.5 -9.50098 4.5s-5.83398 4.83301 -6.50098 5.5c-6 5.33301 -7.5 6.83301 -4.5 4.5s3.83301 -2.83301 2.5 -1.5s-2 3.33301 -2 6c0 4.66699 1.66699 8.66699 5 12l54 54h-60c-3.33301 0 -6.5 0.833008 -9.5 2.5
s-4.5 4.16699 -4.5 7.5s-0.166992 7.83301 -0.5 13.5s-0.5 13.834 -0.5 24.501c0.666992 9.33301 2 15.5 4 18.5s6.66699 4.16699 14 3.5h57l-54 54c-2.66699 2.66699 -4.33398 5.83398 -5.00098 9.50098s0 6.5 2 8.5c1.33301 1.33301 1.16602 1.33301 -0.500977 0
s-2.83398 -2.33301 -3.50098 -3l1.5 1.5l4.5 4.5c0.666992 0.666992 2.83398 2.5 6.50098 5.5s6.83398 4.5 9.50098 4.5c4 0 8.33301 -2.33301 13 -7l19 -19c4.66699 -5.33301 10.167 -11 16.5 -17s12.833 -12.667 19.5 -20l1 62c0.666992 2 2 4 4 6s3.66699 3 5 3l25 1h21
c8 0 12 -4.66699 12 -14v-54l46 45c2.66699 2.66699 5.83398 5.66699 9.50098 9s6.16699 5 7.5 5c2 0 5.66699 -2.66699 11 -8c4 -3.33301 7.33301 -6.66602 10 -9.99902c1.33301 -0.666992 2 -2 2 -4s-0.666992 -3.83301 -2 -5.5s-2.66602 -2.83398 -3.99902 -3.50098
l-52 -52h60h3c6 0 9 -2.33301 9 -7v-49z" />
    <glyph glyph-name="plus" unicode="+" horiz-adv-x="354" 
d="M185 263l56.999 0.00195312c5.33301 0 8.66602 1.33301 9.99902 4s2 7 2 13c0.666992 12.667 1 32 1 58c0 2.66699 -0.166992 6.33398 -0.5 11.001s-1.66602 7.66699 -3.99902 9s-6.5 2 -12.5 2h-47c-5.33301 0 -8.66602 0.5 -9.99902 1.5s-2 3.5 -2 7.5v26
c0 2.66699 0.166992 6 0.5 10s0.166016 9 -0.500977 15c0 3.33301 -0.166992 7.83301 -0.5 13.5s-1.33301 8.83398 -3 9.50098s-5.5 1 -11.5 1h-77c-4.66699 0 -7 -3 -7 -9v-23c0 -4 -0.166992 -9.33301 -0.5 -16s-0.166016 -14.334 0.500977 -23.001v-1
c0 -4 -1.83301 -7 -5.5 -9s-6.16699 -3 -7.5 -3h-53c-9.33301 0 -14 -4 -14 -12c0.666992 -10 0.833984 -19.167 0.500977 -27.5s-0.5 -15.5 -0.5 -21.5c0 -12.667 0.333008 -22 1 -28c0 -1.33301 1.16699 -3 3.5 -5s4.16602 -3 5.49902 -3c7.33301 -0.666992 29 -1 65 -1
c4.66699 0 7 -2.33301 7 -7v-67v-3c0 -6.66699 1.5 -10.834 4.5 -12.501s8.83301 -2.5 17.5 -2.5c10.667 -0.666992 23.667 -0.833984 39 -0.500977s24 0.5 26 0.5c3.33301 0 6 1.66699 8 5s3 6.66602 3 9.99902v69c0 6 1.66699 9 5 9z" />
    <glyph glyph-name="comma" unicode="," horiz-adv-x="136" 
d="M-65.5 -68c3 -0.666992 7.16797 -0.998047 12.501 -0.998047c6 -0.666992 15.333 -1 28 -1c5.33301 0 12 0.166992 20 0.5s17.333 0.166016 28 -0.500977c13.333 0 24 3 32 9s14.333 15.667 19 29c7.33301 20 11 42 11 66c0 12 -1.33301 30 -4 54
c-0.666992 1.33301 -1.83398 2.66602 -3.50098 3.99902s-3.5 2.33301 -5.5 3l-81 1c-4 0 -6.66699 -1.5 -8 -4.5s-2 -8.5 -2 -16.5c0 -20 -1.66699 -42.167 -5 -66.5s-10 -40.833 -20 -49.5c-2.66699 -2 -7.66699 -4.83301 -15 -8.5s-11 -7.5 -11 -11.5s1.5 -6.33301 4.5 -7
z" />
    <glyph glyph-name="hyphen" unicode="-" horiz-adv-x="267" 
d="M4 279.5c2.66699 -2.33301 6.00098 -3.5 10.001 -3.5c82 0 128.333 -0.333008 139 -1c13.333 0 21 5.33301 23 16c1.33301 4 2.16602 13.667 2.49902 29s0.833008 25.333 1.5 30v4c0 13.333 -6.33301 20 -19 20h-148c-8 0 -12 -4.33301 -12 -13l-1 -72
c-0 -4 1.33301 -7.16699 4 -9.5z" />
    <glyph glyph-name="period" unicode="." horiz-adv-x="156" 
d="M-7 103c-7.33301 0 -10.998 -3.33496 -10.998 -10.002c0 -32 0.333008 -56 1 -72c0 -1.33301 0.166992 -5.16602 0.5 -11.499s2.66602 -10.666 6.99902 -12.999s10.833 -3.5 19.5 -3.5c9.33301 -0.666992 23.666 -1 42.999 -1c12 0 20.333 1.83301 25 5.5
s7 11.167 7 22.5c0.666992 15.333 1 37 1 65c-0.666992 12 -7 18 -19 18h-74z" />
    <glyph glyph-name="slash" unicode="/" horiz-adv-x="312" 
d="M44 5c24 -8 40.6689 -12.001 50.002 -12.001c10 0 16 4.33301 18 13l23 86c82.667 302.667 127 472.334 133 509.001l1 6c0 6.66699 -4.66699 11 -14 13c-12.667 2 -32.334 5.66699 -59.001 11c-9.33301 2 -16 3 -20 3c-5.33301 0 -9 -1.83301 -11 -5.5
s-4.66699 -12.167 -8 -25.5l-37 -141c-72.667 -276 -110.334 -420.667 -113.001 -434c0.666992 -7.33301 13 -15 37 -23z" />
    <glyph glyph-name="zero" unicode="0" horiz-adv-x="376" 
d="M290 362c0 82 -0.667969 127.331 -2.00098 135.998c-4.66699 38 -15.5 73.5 -32.5 106.5s-50.5 49.5 -100.5 49.5c-39.333 0 -70.333 -9.33301 -93 -28s-38.167 -40.5 -46.5 -65.5s-12.5 -48.833 -12.5 -71.5l-1 -338c0 -51.333 13.833 -90.666 41.5 -117.999
s63.167 -41 106.5 -41c40.667 0 73.834 15.833 99.501 47.5s38.5 71.5 38.5 119.5c1.33301 18.667 2 86.334 2 203.001zM99.999 299.998c0 68.667 0.665039 125 1.99805 169c1.33301 20 5.33301 41 12 63s18.334 33 35.001 33s27.334 -10.5 32.001 -31.5
s7.66699 -45.167 9 -72.5c1.33301 -14.667 2 -41.334 2 -80.001c0 -52 -1 -113 -3 -183v-30c0 -17.333 -3.33301 -32.833 -10 -46.5s-17 -20.5 -31 -20.5s-24.333 5.33301 -31 16s-10.667 20.834 -12 30.501s-2.33301 22.5 -3 38.5c-1.33301 20 -2 58 -2 114z" />
    <glyph glyph-name="one" unicode="1" horiz-adv-x="322" 
d="M128 480c4.66699 0 7 -2.66797 7 -8.00098c-1.33301 -64 -3 -150.5 -5 -259.5s-2.66699 -168.5 -2 -178.5c0 -9.33301 2.66699 -17.5 8 -24.5s13 -10.5 23 -10.5l53 4c12.667 0 19 7.33301 19 22c-1.33301 32.667 -0.333008 178.667 3 438l1 137
c0 6 -5.33301 12.667 -16 20s-16.667 11.333 -18 12c-2.66699 2 -6.66699 3 -12 3c-10 0 -18.333 -2.66699 -25 -8l-66 -44l-45.5 -30c-17.667 -11.333 -34.5 -22.666 -50.5 -33.999c-10.667 -8 -16 -16 -16 -24c0 -4.66699 1.33301 -9.66699 4 -15
c14.667 -27.333 23.667 -43 27 -47c6 -8 11.667 -12 17 -12s13 4 23 12c14 10.667 36 25.667 66 45z" />
    <glyph glyph-name="two" unicode="2" 
d="M133 131c4 14 10.3311 25.832 18.998 35.499s20.667 20.167 36 31.5l59 42c20 13.333 35.833 33 47.5 59s17.5 49.667 17.5 71v118c-0.666992 19.333 -5.16699 40.833 -13.5 64.5s-23.166 44.5 -44.499 62.5s-49.666 27 -84.999 27c-66 0 -107.833 -19.167 -125.5 -57.5
s-25.834 -78.5 -24.501 -120.5c0.666992 -8 2.16699 -13.5 4.5 -16.5s8.16602 -4.5 17.499 -4.5h49c12 0 19.5 1.66699 22.5 5s4.5 9.33301 4.5 18l1 45c0 8.66699 4.33301 16.834 13 24.501s19 11.5 31 11.5c13.333 0 24.833 -4.5 34.5 -13.5s14.5 -21.167 14.5 -36.5v-69
v-38c0 -24 -11.667 -46.667 -35 -68c-15.333 -14.667 -33.666 -30.334 -54.999 -47.001l-25 -21l-30 -27c-24 -22 -43 -56 -57 -102c-3.33301 -11.333 -5 -25.333 -5 -42v-35c0 -9.33301 0.666992 -21.333 2 -36c0.666992 -2 1.83398 -4.16699 3.50098 -6.5
s3.16699 -3.5 4.5 -3.5c8 -1.33301 42.333 -2 103 -2l184 1c9.33301 0 15.666 1.66699 18.999 5s5.66602 10 6.99902 20c0.666992 8 0.833984 15.5 0.500977 22.5s-0.5 12.833 -0.5 17.5c0 10.667 0.333008 18.334 1 23.001v3c0 9.33301 -5 15 -15 17l-185 2
c2.66699 11.333 4.33398 18 5.00098 20z" />
    <glyph glyph-name="three" unicode="3" horiz-adv-x="427" 
d="M74 374c0 -8.66699 0.49707 -16.668 1.49707 -24.001s1.83301 -11 2.5 -11l62 1c25.333 0 47 -10.333 65 -31s27 -53.334 27 -98.001c0 -32 -8.16699 -57 -24.5 -75s-35.833 -27 -58.5 -27c-31.333 0 -57.666 25.333 -78.999 76c-2.66699 6 -6 9 -10 9
c-2.66699 0 -5.66699 -1.66699 -9 -5c-25.333 -22.667 -43.666 -40 -54.999 -52c-2 -2 -3.5 -4.83301 -4.5 -8.5s-1.16699 -7.16699 -0.5 -10.5c4 -18 13.167 -36 27.5 -54s33.666 -33.167 57.999 -45.5s51.833 -18.5 82.5 -18.5c17.333 0 39.333 5.33301 66 16
s52.167 34.834 76.5 72.501s36.5 92.5 36.5 164.5c0 36.667 -9 67 -27 91s-36.833 41.833 -56.5 53.5s-34.834 18.834 -45.501 21.501c3.33301 4 6 7.33301 8 10s3.66699 5 5 7l24 30c26 30.667 49 59 69 85c4 4 5.33301 9.66699 4 17v28
c0.666992 10 -1.16602 16 -5.49902 18s-13.166 3.33301 -26.499 4c-143.333 0 -227.666 -0.333008 -252.999 -1c-2 -4 -3 -6.66699 -3 -8c-1.33301 -14.667 -2 -37.334 -2 -68.001c0 -7.33301 1.66699 -12.666 5 -15.999s9.33301 -5.33301 18 -6l23 1l79 2
c8 0 12 -1.5 12 -4.5s-1 -5.5 -3 -7.5c-10 -10 -22.333 -24.333 -37 -43l-28 -36l-20 -26c-2.66699 -2.66699 -4 -13 -4 -31z" />
    <glyph glyph-name="four" unicode="4" horiz-adv-x="438" 
d="M342 333l-0.00195312 249c0 4 -2.16699 7.83301 -6.5 11.5s-7.16602 5.83398 -8.49902 6.50098l-82 3h-4c-5.33301 0 -9.33301 -1.66699 -12 -5c-3.33301 -6.66699 -14.833 -25 -34.5 -55l-51.5 -76l-150 -216c-2 -4 -3 -8 -3 -12c0 -10 5.33301 -17.667 16 -23
c4.66699 -2 12.5 -6.16699 23.5 -12.5s21.833 -10.833 32.5 -13.5h39h126c6 0 10.167 -1 12.5 -3s3.5 -6 3.5 -12v-43c0 -48 0.333008 -83 1 -105c0 -6.66699 1.66699 -12.334 5 -17.001s7.66602 -7.66699 12.999 -9c3.33301 -0.666992 8.33301 -1 15 -1
c4.66699 0 10.334 0.166992 17.001 0.5s14.334 0.166016 23.001 -0.500977h3c12 0 19 6 21 18c1.33301 4.66699 2 12 2 22c-0.666992 26.667 -1 124.334 -1 293.001zM190.998 366.5c30 47.667 46.332 71.499 48.999 71.499c3.33301 0 5 -4.33301 5 -13
c0 -9.33301 -0.666992 -24 -2 -44c-1.33301 -36 -2 -61.667 -2 -77c0 -6 -1.16699 -10 -3.5 -12s-6.16602 -3 -11.499 -3c-7.33301 0.666992 -18 1 -32 1s-24.667 -0.333008 -32 -1c-1.33301 0 -4.33301 -0.166992 -9 -0.5s-7 0.5 -7 2.5c0 2.66699 15 27.834 45 75.501z
" />
    <glyph glyph-name="five" unicode="5" horiz-adv-x="396" 
d="M72 356.5c16 6.33301 33.6709 9.49902 53.0039 9.49902c12.667 0 24.667 -2.33301 36 -7c15.333 -6 25.666 -15.167 30.999 -27.5s8.33301 -26.166 9 -41.499c0.666992 -10.667 1 -49 1 -115c0 -28 -3.33301 -47.667 -10 -59s-16.334 -17 -29.001 -17
c-6.66699 0 -14.667 2 -24 6s-16.333 8.66699 -21 14c-9.33301 10.667 -21.333 28 -36 52c-4.66699 6 -9 9 -13 9c-2.66699 0 -5.33398 -1 -8.00098 -3l-40 -27l-25 -17c-2 -2 -3.5 -4.5 -4.5 -7.5s-1.16699 -5.5 -0.5 -7.5c9.33301 -32 28.333 -60 57 -84
c30.667 -25.333 68 -38 112 -38c34 0 65.667 9.83301 95 29.5s46 53.167 50 100.5c4 48 6 85 6 111c0 72.667 -10.667 124 -32 154c-10.667 16 -25.834 30.833 -45.501 44.5s-40.834 20.5 -63.501 20.5c-5.33301 0 -9.66602 -0.333008 -12.999 -1
c-10.667 -1.33301 -17 -2 -19 -2c-6 0 -9.5 2.16699 -10.5 6.5s-1.5 11.666 -1.5 21.999v25.5c0 8 0.833008 13.167 2.5 15.5s6.16699 3.5 13.5 3.5l41 -1c24 -1.33301 42.333 -1.66602 55 -0.999023c18.667 0.666992 28.667 9 30 25l4 58c0 10 -4.66699 15.667 -14 17
c-4.66699 0.666992 -44.667 1 -120 1c-60.667 0 -95.667 -0.666992 -105 -2c-11.333 -1.33301 -16 -8 -14 -20c0.666992 -4.66699 1 -22 1 -52l-1 -151c-0.666992 -4 2.5 -14 9.5 -30s12.167 -24 15.5 -24c2.66699 0.666992 12 4.16699 28 10.5z" />
    <glyph glyph-name="six" unicode="6" horiz-adv-x="407" 
d="M109 424c0 34 3.99707 64.998 11.9971 92.998s22 42 42 42c15.333 0 27.833 -4.5 37.5 -13.5s16.834 -17.167 21.501 -24.5l9 -14c7.33301 -9.33301 14 -14 20 -14c2.66699 0 5.66699 1.66699 9 5c2.66699 2.66699 10.667 13.334 24 32.001l15 20
c3.33301 4.66699 5 8.66699 5 12s-1.66699 7.33301 -5 12c-0.666992 1.33301 -5.16699 8.66602 -13.5 21.999s-23.333 25.833 -45 37.5s-47.167 17.5 -76.5 17.5c-34 0 -62.333 -7.66699 -85 -23s-39.167 -32.666 -49.5 -51.999s-16.5 -36.333 -18.5 -51
c-1.33301 -18 -2.83301 -41.5 -4.5 -70.5s-2.83398 -49.833 -3.50098 -62.5l1 -180c0 -29.333 2.16699 -59 6.5 -89s17.5 -59.5 39.5 -88.5s56.333 -43.5 103 -43.5c42.667 0 75.167 9.33301 97.5 28s37 39 44 61s12.5 47.667 16.5 77c2 16 3 32.333 3 49
c0 57.333 -2.33301 104 -7 140c-5.33301 36 -23.666 64.333 -54.999 85c-9.33301 6 -21.166 10.167 -35.499 12.5s-26.166 3.16602 -35.499 2.49902c-17.333 -2 -31.333 -8.66699 -42 -20s-20 -23.666 -28 -36.999c-1.33301 6.66699 -2 18.334 -2 35.001zM214.497 169.498
c0.333008 -24.333 -3.83105 -43.5 -12.498 -57.5s-21.334 -21 -38.001 -21s-29.834 6 -39.501 18s-14.5 24.333 -14.5 37v57c0 34.667 0.666992 58.667 2 72c2 41.333 22.667 62 62 62c16 0 26.667 -8.33301 32 -25s8 -39 8 -67v-33c0 -4 0.166992 -18.167 0.5 -42.5z" />
    <glyph glyph-name="seven" unicode="7" horiz-adv-x="419" 
d="M203 518c0 -3.33301 -1.33008 -7.66797 -3.99707 -13.001c-8 -16 -41.833 -95.667 -101.5 -239s-90.834 -219.333 -93.501 -228c-1.33301 -5.33301 -2 -8.66602 -2 -9.99902c0 -10.667 4.66699 -17.334 14 -20.001l21 -3c14.667 -1.33301 29.334 -3.33301 44.001 -6h3
c6.66699 0 11.667 3.66699 15 11l69 159c120.667 277.333 180.667 418.333 180 423c0 6.66699 -5.16699 14.834 -15.5 24.501s-19.833 14.5 -28.5 14.5l-274 -3c-1.33301 0 -3.83301 -0.833008 -7.5 -2.5s-5.5 -4.16699 -5.5 -7.5l-5 -82c0 -2 1.16699 -4 3.5 -6
s8.16602 -2.66699 17.499 -2c5.33301 0.666992 18.666 0.5 39.999 -0.5s37.666 -1.5 48.999 -1.5c22 -0.666992 45 -1 69 -1c8 0 12 -2.33301 12 -7z" />
    <glyph glyph-name="eight" unicode="8" horiz-adv-x="412" 
d="M40 392c-14 -15.333 -24.833 -30.999 -32.5 -46.999s-11.5 -33.333 -11.5 -52c0 -28.667 0.333008 -52 1 -70l1 -80c0 -60 17.5 -99.833 52.5 -119.5s69.833 -29.5 104.5 -29.5c20 0 42.333 4 67 12s46.834 23.333 66.501 46s29.5 54 29.5 94l1 33
c1.33301 29.333 2 51.333 2 66c0 43.333 -4 78.333 -12 105c-7.33301 24 -17.333 41.667 -30 53l-15 16c7.33301 6 15.666 19.167 24.999 39.5s14 42.5 14 66.5c0 19.333 -6.16699 38.166 -18.5 56.499s-30 33.333 -53 45s-49.167 17.5 -78.5 17.5
s-54.833 -7.16699 -76.5 -21.5s-38.167 -31.833 -49.5 -52.5s-17 -40 -17 -58c0 -24.667 5.33301 -46.5 16 -65.5s20.667 -31.5 30 -37.5zM201 552.001c8 -10.667 11.667 -23.666 11 -38.999c0 -7.33301 -3.83301 -15.5 -11.5 -24.5s-15.667 -17 -24 -24
s-13.833 -11.5 -16.5 -13.5c-2.66699 1.33301 -8.5 5 -17.5 11s-17.5 13.333 -25.5 22s-12 17.667 -12 27c0 13.333 4 26.333 12 39s21.333 19 40 19c21.333 -0.666992 36 -6.33398 44 -17.001zM220 210.002c0 -32.667 -1.99707 -53.6641 -5.99707 -62.9971
c-6 -16 -13.167 -27.833 -21.5 -35.5s-22.5 -11.167 -42.5 -10.5c-19.333 0 -33.333 8.5 -42 25.5s-13 32.833 -13 47.5l3 113c0 12 4.16699 24.167 12.5 36.5s17.666 23 27.999 32s17.166 13.5 20.499 13.5c5.33301 -0.666992 12.666 -4.33398 21.999 -11.001
s17.5 -15.334 24.5 -26.001s10.5 -21.667 10.5 -33c2.66699 -26.667 4 -56.334 4 -89.001z" />
    <glyph glyph-name="nine" unicode="9" 
d="M213 269c-0.666992 -3.33301 -0.832031 -7.16699 -0.499023 -11.5s0.5 -8.5 0.5 -12.5v-22c0 -34.667 -4.83301 -63.667 -14.5 -87s-29.167 -35 -58.5 -35c-13.333 0 -25.666 2.83301 -36.999 8.5s-24.333 13.5 -39 23.5c-6.66699 4.66699 -12.667 8.5 -18 11.5
s-9 3.5 -11 1.5l-36 -30l-19 -16l-6 -9c1.33301 -1.33301 12.666 -17.5 33.999 -48.5s66.666 -46.5 135.999 -46.5c60 0 104.333 19.333 133 58s43 97.334 43 176.001c0 177.333 -2 277.666 -6 300.999c-3.33301 16.667 -8.33301 32.5 -15 47.5s-20.334 29.167 -41.001 42.5
s-50 20 -88 20c-56.667 0 -96.667 -13.5 -120 -40.5s-37.666 -61.167 -42.999 -102.5c-1.33301 -8 -2 -38 -2 -90v-64c0 -25.333 7.16699 -45.333 21.5 -60s30.333 -25 48 -31s32.5 -9 44.5 -9c16.667 0 34.334 4.66699 53.001 14c3.33301 1.33301 10.666 6 21.999 14l18 12
zM214.002 401.999c-1.33301 -18.667 -6.83301 -33.833 -16.5 -45.5s-23.167 -17.5 -40.5 -17.5c-13.333 -0.666992 -25.333 4.5 -36 15.5s-16 21.833 -16 32.5c0 45.333 0.333008 76 1 92c2 20.667 6.33301 38.167 13 52.5s20.667 21.5 42 21.5c14 0 26 -4.83301 36 -14.5
s15.333 -23.167 16 -40.5c0.666992 -5.33301 1 -37.333 1 -96z" />
    <glyph glyph-name="colon" unicode=":" horiz-adv-x="188" 
d="M55 422c-6 0 -12.166 -0.330078 -18.499 -0.99707s-12.833 -1 -19.5 -1c-10.667 0 -16 -5.66699 -16 -17c0 -33.333 0.333008 -58.333 1 -75c0 -14 6 -22 18 -24c4.66699 -0.666992 11.667 -1 21 -1c4 0 9 0.166992 15 0.5s13 0.166016 21 -0.500977h2
c5.33301 0 9.66602 1.66699 12.999 5s5 8 5 14c0 17.333 -0.666992 46.666 -2 87.999c-0.666992 7.33301 -6 11.666 -16 12.999h-24v-1zM96.001 83.0029c0 12 -6.00098 17.334 -18.001 16.001c-9.33301 -0.666992 -17.5 -0.833984 -24.5 -0.500977s-12.833 0.5 -17.5 0.5
c-11.333 0 -19.666 -0.333008 -24.999 -1c-7.33301 0 -11 -4.33301 -11 -13c0.666992 -6.66699 0.833984 -13.5 0.500977 -20.5s-0.5 -13.5 -0.5 -19.5c0 -17.333 0.666992 -29.333 2 -36c0.666992 -3.33301 3 -6.5 7 -9.5s7.66699 -4.83301 11 -5.5c10.667 -2 29 -3 55 -3
c5.33301 0 10.166 2.16699 14.499 6.5s6.5 9.5 6.5 15.5v70z" />
    <glyph glyph-name="semicolon" unicode=";" horiz-adv-x="187" 
d="M1 325c1.33301 -6 3.33301 -10.333 6 -13s7.66699 -4 15 -4h49c18.667 0 28 6.33301 28 19v32c0 13.333 -0.666992 24.333 -2 33c-1.33301 12.667 -8 19 -20 19l-59 1c-4.66699 0 -9 -2.16699 -13 -6.5s-6 -11.833 -6 -22.5c0 -26.667 0.666992 -46 2 -58zM96 77
c-0.666992 6.66699 -2.16602 11.3389 -4.49902 14.0059s-6.5 4 -12.5 4h-30c-15.333 0 -26 -0.333008 -32 -1c-11.333 -0.666992 -18 -7 -20 -19c-0.666992 -4 -0.833984 -7.66699 -0.500977 -11s0.5 -6.33301 0.5 -9c0.666992 -4.66699 1 -11.334 1 -20.001
c0 -15.333 -1 -27.833 -3 -37.5s-6.66699 -18.834 -14 -27.501l-0.5 -1c-0.333008 -0.666992 -0.5 -1.33398 -0.5 -2.00098c0 -2.66699 0.666992 -5.33398 2 -8.00098s2.66602 -4.33398 3.99902 -5.00098c14 -7.33301 29.333 -11 46 -11c4.66699 0 12.334 0.666992 23.001 2
c10 2 19.5 9.16699 28.5 21.5s13.5 29.166 13.5 50.499c0 27.333 -0.333008 47.333 -1 60z" />
    <glyph glyph-name="less" unicode="&#x3c;" horiz-adv-x="379" 
d="M2.5 305c-0.333008 -3.33301 0.5 -6.00293 2.5 -8.00293c14.667 -14.667 65.667 -56.334 153 -125.001l70 -56c4.66699 -4 9.33398 -6 14.001 -6c4 0 7.66699 1.33301 11 4c10 6 25.667 19.667 47 41c5.33301 5.33301 8 10.333 8 15c0 4 -2.33301 8.33301 -7 13
s-25.667 22.167 -63 52.5l-83 66.5c-1.33301 0.666992 -1.83301 2.33398 -1.5 5.00098s1.16602 4.33398 2.49902 5.00098l133 88c1.33301 0.666992 2.5 2.33398 3.5 5.00098s1.16699 4.66699 0.5 6c-1.33301 7.33301 -4.33301 15 -9 23s-9.33398 14.833 -14.001 20.5
s-7.66699 9.16699 -9 10.5c-0.666992 0.666992 -2.16699 2.33398 -4.5 5.00098s-5.33301 5 -9 7s-7.5 2 -11.5 0c-6.66699 -3.33301 -41.667 -27.5 -105 -72.5s-104.666 -75.5 -123.999 -91.5c-2.66699 -2 -4.16699 -4.66699 -4.5 -8z" />
    <glyph glyph-name="equal" unicode="=" horiz-adv-x="323" 
d="M167 428c-32 0 -63.3359 -0.331055 -94.0029 -0.998047s-46.667 -1 -48 -1c-8 0 -13.667 -1.16699 -17 -3.5s-5.66602 -7.16602 -6.99902 -14.499c-0.666992 -4.66699 -1 -13 -1 -25l1 -40c0 -6.66699 2.66699 -10 8 -10c18.667 0 51.334 -0.333008 98.001 -1
s75.334 -1.33398 86.001 -2.00098c10 -0.666992 18 1.66602 24 6.99902s9.33301 12.666 10 21.999l1 23c0 7.33301 -0.666992 18.333 -2 33c0 2 -1.33301 4.5 -4 7.5s-5 4.5 -7 4.5c-6 0.666992 -22 1 -48 1zM1.99707 197.002c0 -7.33301 3.66699 -11 11 -11
c113.333 0 178.333 0.333008 195 1c8 0.666992 13.5 2.66699 16.5 6s4.5 8 4.5 14v52c0 17.333 -6.33301 26 -19 26h-193c-9.33301 0 -14 -4.66699 -14 -14c0 -38 -0.333008 -62.333 -1 -73v-1z" />
    <glyph glyph-name="greater" unicode="&#x3e;" horiz-adv-x="406" 
d="M316 291c0 -4.66699 -3.00195 -10.6719 -9.00195 -18.0049c-8 -7.33301 -44.5 -31.666 -109.5 -72.999s-108.5 -67.333 -130.5 -78c-5.33301 -3.33301 -9.66602 -5 -12.999 -5c-4.66699 0 -9.33398 3.66699 -14.001 11l-26 42c-4 8 -6 13.667 -6 17
c0 8.66699 7.33301 16.334 22 23.001c18.667 9.33301 42.5 22.333 71.5 39l61.5 36c4.66699 2.66699 4.66699 6.33398 0 11.001l-88 55.5c-41.333 26.333 -65.666 42.5 -72.999 48.5c-4.66699 4.66699 -7 8.33398 -7 11.001c0 3.33301 1.33301 6.33301 4 9l15 18
c8 10.667 16.667 21.334 26 32.001c4.66699 6.66699 9.33398 10 14.001 10c3.33301 0 8 -2 14 -6l76 -53c106.667 -74 162 -113.333 166 -118c4 -4 6 -8 6 -12z" />
    <glyph glyph-name="question" unicode="?" horiz-adv-x="427" 
d="M53 449c4 0 7.66797 1.66699 11.001 5c17.333 17.333 39.833 36.5 67.5 57.5s50.167 31.5 67.5 31.5c16.667 -0.666992 28.5 -7 35.5 -19s11.167 -23.333 12.5 -34c0 -8.66699 -2.16699 -17.334 -6.5 -26.001s-10.166 -15.334 -17.499 -20.001
c-87.333 -53.333 -131.333 -108.333 -132 -165c0 -11.333 1 -32.666 3 -63.999c0.666992 -14 7 -21.667 19 -23l63 1c5.33301 0 9.83301 2.5 13.5 7.5s5.16699 12.167 4.5 21.5l-1 58c0 6.66699 2.33301 15.167 7 25.5s10.667 17.833 18 22.5
c4.66699 3.33301 18.667 11.833 42 25.5s43.5 33.5 60.5 59.5s25.5 57 25.5 93c0 13.333 -4.83301 30.833 -14.5 52.5s-24.834 41.167 -45.501 58.5s-46.667 26 -78 26c-45.333 0.666992 -82.333 -8.16602 -111 -26.499s-54.334 -40.5 -77.001 -66.5
c-4 -4.66699 -7.66699 -9.66699 -11 -15s-5 -10.333 -5 -15c0 -6.66699 2.66699 -13.667 8 -21c2.66699 -3.33301 7.33398 -10.333 14.001 -21l14 -22c3.33301 -4.66699 7.66602 -7 12.999 -7zM150.001 102.5c-14 0.333008 -24.666 0.166992 -31.999 -0.5
c-2.66699 0 -6 -1.66699 -10 -5s-6 -6.33301 -6 -9c-1.33301 -12 -2 -22.667 -2 -32c0 -20.667 1.33301 -33.667 4 -39c5.33301 -10 11.333 -15.333 18 -16c9.33301 -1.33301 17.666 -2 24.999 -2l29 1c6 -0 11.833 2.83301 17.5 8.5s8.5 11.167 8.5 16.5l-1 57
c0 6.66699 -2.5 11.667 -7.5 15s-10.5 5 -16.5 5c-4 0 -13 0.166992 -27 0.5z" />
    <glyph glyph-name="at" unicode="@" horiz-adv-x="657" 
d="M137 270c0 -35.333 9.17676 -62.8359 27.5098 -82.5029s38.666 -33 60.999 -40s40.833 -10.5 55.5 -10.5c34.667 0 62.334 7.66699 83.001 23c3.33301 2 6.33301 3 9 3c4 0 7.66699 -1.33301 11 -4c15.333 -12.667 35 -19 59 -19c8.66699 0 15 0.333008 19 1
c12 0.666992 26.5 5.83398 43.5 15.501s33.333 31 49 64s23.5 81.167 23.5 144.5c0 30 -7.66699 66.667 -23 110s-45.333 83 -90 119s-107 54 -187 54c-76.667 0 -138 -18.833 -184 -56.5s-78.167 -81.167 -96.5 -130.5s-27.5 -92.666 -27.5 -129.999
c0 -132 29.833 -222.333 89.5 -271s128.167 -73 205.5 -73c26.667 0 56.167 4.5 88.5 13.5s57.166 17.5 74.499 25.5c5.33301 2.66699 8 7 8 13c0 2.66699 -0.333008 5.16699 -1 7.5s-1.33398 3.83301 -2.00098 4.5c-4 4.66699 -10.167 12.834 -18.5 24.501l-20.5 29.5
c-2.66699 4 -5.33398 5.5 -8.00098 4.5s-4.33398 -1.5 -5.00098 -1.5c-2.66699 -1.33301 -8.83398 -4.16602 -18.501 -8.49902s-21.334 -8.33301 -35.001 -12s-28.834 -5.5 -45.501 -5.5c-49.333 2 -96.666 18.167 -141.999 48.5s-68 91.5 -68 183.5
c0 37.333 6.66699 74 20 110s34.833 66 64.5 90s67.167 36 112.5 36c55.333 0 99.166 -12.833 131.499 -38.5s54.5 -54.334 66.5 -86.001s18 -58.167 18 -79.5c0 -42.667 -3.5 -71 -10.5 -85s-15.5 -21 -25.5 -21c-6.66699 0 -12.334 2.66699 -17.001 8s-7 11.666 -7 18.999
v91c0 18 -4.33301 37.833 -13 59.5s-24.167 40.834 -46.5 57.501s-52.5 25 -90.5 25c-32.667 0 -58.834 -8.83301 -78.501 -26.5s-33.834 -36.667 -42.501 -57s-13.667 -36.5 -15 -48.5s-2 -44.667 -2 -98zM249.01 246.497c-11.333 7.66699 -17.001 19.5 -17.001 35.5v70
c0 8.66699 3.16699 19.667 9.5 33s20.166 20 41.499 20c22 0 36.333 -6.5 43 -19.5s10 -23.833 10 -32.5l1 -77c0 -10 -4.16699 -19.333 -12.5 -28s-21.166 -13 -38.499 -13c-13.333 0 -25.666 3.83301 -36.999 11.5z" />
    <glyph glyph-name="A" unicode="A" horiz-adv-x="462" 
d="M285 -9c-1.33301 -0.666992 -3.33105 -0.999023 -5.99805 -0.999023c-6.66699 0 -11.334 2.5 -14.001 7.5s-4 8.83301 -4 11.5l-24 130c-0.666992 5.33301 -2.33398 8.83301 -5.00098 10.5s-6.66699 2.16699 -12 1.5l-47 1c-32.667 0 -49.334 -1.66699 -50.001 -5l-5 -22
c-1.33301 -6.66699 -6.16602 -28 -14.499 -64s-13.833 -55.333 -16.5 -58c-3.33301 -3.33301 -16.333 -1.33301 -39 6s-35.334 11.333 -38.001 12c-20.667 5.33301 -29 15.333 -25 30c6.66699 29.333 32.834 130.666 78.501 303.999s70.167 261.666 73.5 264.999
c6.66699 8 13.667 12 21 12l47 1c10 0 17.333 -0.333008 22 -1c6 0 10.167 -0.5 12.5 -1.5s4.5 -3.5 6.5 -7.5c8.66699 -22.667 29.167 -112.667 61.5 -270s53.5 -264.666 63.5 -321.999c0.666992 -2 1 -4.33301 1 -7c0 -6 -3.33301 -10 -10 -12zM182.002 251.001
c12.667 0 21.332 0.333008 25.999 1h1c4 0 5 3.66699 3 11c-13.333 116 -21.666 181 -24.999 195c-0.666992 0.666992 -1.16699 2.16699 -1.5 4.5s-1.5 0.833008 -3.5 -4.5c-5.33301 -24 -12.833 -63.5 -22.5 -118.5s-14.167 -83.5 -13.5 -85.5c2 -2 14 -3 36 -3z" />
    <glyph glyph-name="B" unicode="B" horiz-adv-x="479" 
d="M294.5 403c13.667 10 25.333 23.502 35 40.502s14.5 36.833 14.5 59.5c0 39.333 -13 70.5 -39 93.5s-55.5 39 -88.5 48s-62.167 13.833 -87.5 14.5h-105c-13.333 0 -20 -6.66699 -20 -20v-614c0 -12.667 3.33301 -21.667 10 -27s18 -8 34 -8h167
c22.667 0 47.334 7 74.001 21s49.167 35 67.5 63s27.5 62 27.5 102v48c0 20.667 -5.66699 42.167 -17 64.5s-26.833 42.166 -46.5 59.499s-40.834 29.666 -63.501 36.999c11.333 2 23.833 8 37.5 18zM111.999 459.002c1.33301 50.667 1.66895 84.333 1.00195 101
c0 3.33301 0.666992 5.83301 2 7.5s2.66602 2.66699 3.99902 3s2.33301 0.5 3 0.5c0 1.33301 11.5 0.5 34.5 -2.5s43.833 -9.83301 62.5 -20.5s28 -26.667 28 -48c0 -18.667 -9.33301 -33.5 -28 -44.5s-39.834 -19 -63.501 -24s-35.5 -6.83301 -35.5 -5.5h-1
c-4.66699 0 -7 3.33301 -7 10v23zM112.002 193.001c0 77.333 0.999023 117.002 2.99902 119.002c2.66699 1.33301 7.33398 2 14.001 2c8.66699 0 17 -0.333008 25 -1s14.667 -1 20 -1c28.667 0 52.667 -9.16699 72 -27.5s29 -40.5 29 -66.5v-29
c0 -20.667 -5.5 -38.334 -16.5 -53.001s-24.167 -25.834 -39.5 -33.501s-29.333 -11.5 -42 -11.5l-52 -1c-6 0 -9.33301 0.333008 -10 1c-2 1.33301 -3 35.333 -3 102z" />
    <glyph glyph-name="C" unicode="C" horiz-adv-x="375" 
d="M255 42.5c21.333 45 32.002 94.165 32.002 147.498c0 10 -0.166992 17.5 -0.5 22.5s-0.5 8.5 -0.5 10.5c0 13.333 -6.66699 19.333 -20 18l-64 -3c-8.66699 0 -12.667 -4 -12 -12c1.33301 -6 1.16602 -21.5 -0.500977 -46.5s-6.83398 -48.333 -15.501 -70
s-22.334 -32.5 -41.001 -32.5c-14.667 0 -25.667 10.167 -33 30.5s-11 38.5 -11 54.5l1 297c0 28.667 5.33301 53.834 16 75.501s22.667 32.5 36 32.5c20 0 33 -10.667 39 -32s9.33301 -39.666 10 -54.999s1 -24.333 1 -27c3.33301 -10.667 10 -16 20 -16
c6.66699 0 13.834 -0.166992 21.501 -0.5s16.5 -0.166016 26.5 0.500977h9c4 0 7.33301 0.833008 10 2.5s4 4.5 4 8.5c0 2.66699 0.333008 7.16699 1 13.5s1 15.166 1 26.499c0 45.333 -10 85.666 -30 120.999s-58.333 53 -115 53c-59.333 0 -98.5 -23 -117.5 -69
s-29.167 -91.333 -30.5 -136c-0.666992 -8.66699 -1 -28 -1 -58c0 -34.667 1 -115 3 -241l1 -51c0 -37.333 12.333 -68.666 37 -93.999s57 -38 97 -38c62.667 0 104.667 22.5 126 67.5z" />
    <glyph glyph-name="D" unicode="D" horiz-adv-x="416" 
d="M58 648c-31.333 0 -48.333 -2.33301 -51 -7c-0.666992 -3.33301 -1.5 -74.666 -2.5 -213.999s-1.5 -261 -1.5 -365v-60c0.666992 -6 20 -9 58 -9l76 1c64.667 0 114.5 22.167 149.5 66.5s52.5 108.833 52.5 193.5v137c0 36 -5.83301 73.167 -17.5 111.5
s-34.667 72.166 -69 101.499s-82.5 44 -144.5 44h-50zM114 95c-5.33301 0 -8.00098 5.00098 -8.00098 15.001l1 422c0 3.33301 0.666992 5.83301 2 7.5s3 2.16699 5 1.5l26 1c14 0 28 -5.66699 42 -17s25.833 -26.333 35.5 -45s14.834 -38.334 15.501 -59.001
c0.666992 -15.333 1 -42.333 1 -81c0 -56 -0.333008 -97 -1 -123c0 -38 -9.16699 -67.167 -27.5 -87.5s-48.5 -31.833 -90.5 -34.5h-1z" />
    <glyph glyph-name="E" unicode="E" horiz-adv-x="406" 
d="M295 519c-8.66699 0 -15.332 0.331055 -19.999 0.998047h-57c-36.667 0 -60 0.333008 -70 1h-8c-6.66699 0 -10.667 -1.16699 -12 -3.5s-2.66602 -8.16602 -3.99902 -17.499c-0.666992 -17.333 -1 -48.666 -1 -93.999h50c57.333 0 90.333 -1 99 -3
c8.66699 -1.33301 13 -10 13 -26c0 -26.667 -1.66699 -46.334 -5 -59.001c-2.66699 -3.33301 -7.83398 -5.66602 -15.501 -6.99902s-12.834 -2 -15.501 -2l-111 -2c-8.66699 0 -13 -4.33301 -13 -13c-1.33301 -25.333 -2 -49.333 -2 -72c0 -28 0.333008 -53.167 1 -75.5
s1 -34.5 1 -36.5c10 0.666992 66 1 168 1c10 0 16.667 -1.16699 20 -3.5s5 -5.5 5 -9.5l-3 -82c0 -4 -2.16699 -7 -6.5 -9s-9.5 -3 -15.5 -3l-271 -1c-6 0 -10 1.33301 -12 4s-3 6.66699 -3 12c0 368.667 0.333008 562.667 1 582c0 4.66699 2.16699 9.66699 6.5 15
s8.83301 8 13.5 8h80h183c19.333 0 29 -9.66699 29 -29v-25.5c0 -15.667 -1.33301 -29.167 -4 -40.5c-2.66699 -6.66699 -9.66699 -10 -21 -10z" />
    <glyph glyph-name="F" unicode="F" 
d="M3 443l0.998047 -322.003c0.666992 -30 1 -60.667 1 -92c0 -11.333 0.833008 -19.166 2.5 -23.499s5.5 -6.5 11.5 -6.5c3.33301 0 10 -0.5 20 -1.5s19.667 -1.5 29 -1.5c30 0 45 5.33301 45 16c0 16.667 -0.333008 29.667 -1 39c-1.33301 90.667 -2 163.334 -2 218.001
c0 36 0.666992 54.667 2 56c2 0.666992 5.16699 0.833984 9.5 0.500977s8.83301 -0.5 13.5 -0.5h29c56 0 84 5.66699 84 17c1.33301 13.333 2 24.666 2 33.999c0 32 -4 48 -12 48l-111 -1c-5.33301 0 -9.5 1.5 -12.5 4.5s-4.5 6.5 -4.5 10.5
c0 2.66699 -0.166992 9.83398 -0.5 21.501s-0.166016 22.834 0.500977 33.501c0.666992 10 1.5 16.833 2.5 20.5s3.33301 6.16699 7 7.5s10.834 2.66602 21.501 3.99902c1.33301 0 24.5 0.333008 69.5 1s75.833 0.666992 92.5 0c8.66699 0 15.167 4 19.5 12
s6.83301 16 7.5 24c4 28 6 45 6 51c0 8 -1.33301 12 -4 12c-3.33301 0 -29 0.333008 -77 1s-96.667 1 -146 1c-66.667 0 -101 -1 -103 -3s-3 -62.333 -3 -181z" />
    <glyph glyph-name="G" unicode="G" 
d="M229 196c0.666992 -25.333 -4.3291 -49.1689 -14.9961 -71.502s-27 -33.5 -49 -33.5c-20.667 0 -36.834 7.33301 -48.501 22s-19.334 30.5 -23.001 47.5s-5.5 30.5 -5.5 40.5v127c0 82.667 0.333008 129.334 1 140.001c1.33301 16 6.5 31.833 15.5 47.5
s21.5 23.5 37.5 23.5c16.667 0 30 -3.66699 40 -11s18.667 -16 26 -26s12.333 -14.333 15 -13l25 17c18.667 13.333 32 22 40 26c6 3.33301 9 7 9 11s-1.33301 7.33301 -4 10c-2.66699 3.33301 -9.83398 13.666 -21.501 30.999s-28.334 32.5 -50.001 45.5
s-46.834 19.5 -75.501 19.5c-16 0 -36.667 -4.5 -62 -13.5s-48.666 -26.667 -69.999 -53s-32 -62.833 -32 -109.5l1 -276c0 -22.667 3.83301 -50.167 11.5 -82.5s24.667 -62.666 51 -90.999s64.5 -42.5 114.5 -42.5c57.333 0 99.666 20 126.999 60s41 95.667 41 167
c0.666992 14 1 28.667 1 44c0 5.33301 -0.166992 12.333 -0.5 21s-0.166016 23 0.500977 43c0 6 -1.83301 10.667 -5.5 14s-7.5 5.33301 -11.5 6s-6.66699 1 -8 1c-12 0 -32.667 0.333008 -62 1s-54.666 0.666992 -75.999 0c-12.667 -1.33301 -19 -7.66602 -19 -18.999v-22
c0 -5.33301 0.166992 -12 0.5 -20s0.166016 -17 -0.500977 -27v-3c0 -4.66699 1 -7.66699 3 -9s5.66699 -2 11 -2c16 0.666992 38.333 1 67 1c0 -2 0.333008 -15.667 1 -41z" />
    <glyph glyph-name="H" unicode="H" 
d="M159 420c-10 0 -18.502 0.166992 -25.502 0.5s-11.5 0.5 -13.5 0.5c-1.33301 0 -3.66602 0.833008 -6.99902 2.5s-4.66602 4.5 -3.99902 8.5l1 187c0 5.33301 -2.16699 9.33301 -6.5 12s-9 4.33398 -14 5.00098s-8.16699 1 -9.5 1c-6 0 -17.5 -0.333008 -34.5 -1
s-27.5 -1.33398 -31.5 -2.00098c-7.33301 -1.33301 -11 -5.66602 -11 -12.999c0.666992 -8 1.66699 -133 3 -375l1 -216v-11c0 -6.66699 0.666992 -11.5 2 -14.5s4 -4.5 8 -4.5c26.667 -1.33301 50.667 -2 72 -2c6 0 10.5 0.833008 13.5 2.5s4.83301 5.5 5.5 11.5l2 282
c0 8.66699 1 14.667 3 18s5.66699 5 11 5c32 0 57 0.333008 75 1h2c6.66699 0 10 -4.33301 10 -13v-273c0 -14.667 1.5 -23.834 4.5 -27.501s11.5 -6.16699 25.5 -7.5h57c6 0 10.5 3 13.5 9s4.5 12.667 4.5 20l-1 523v73c0 5.33301 -0.833008 9 -2.5 11s-5.16699 3 -10.5 3
h-81c-8 0 -12 -4 -12 -12l-1 -199c0 -3.33301 -16.333 -5 -49 -5z" />
    <glyph glyph-name="I" unicode="I" horiz-adv-x="209" 
d="M48 -1c-12.667 0 -21.333 0.333984 -26 1.00098l-5 -1c-8 0 -12 6.33301 -12 19v405v168c0.666992 19.333 1.5 31.166 2.5 35.499s4.5 6.5 10.5 6.5c2.66699 0 6.16699 -0.333008 10.5 -1s10.166 -1 17.499 -1c2 0 20 -1 54 -3c7.33301 0 11 -4.33301 11 -13
c-1.33301 -34 -2 -164.667 -2 -392v-188c0 -12 -0.666992 -20.833 -2 -26.5s-4.66602 -8.5 -9.99902 -8.5z" />
    <glyph glyph-name="J" unicode="J" horiz-adv-x="375" 
d="M-40 234c1.33301 -32 1.99902 -61.9971 1.99902 -89.9971c0 -38 8.66699 -68.5 26 -91.5s37.833 -39 61.5 -48s45.834 -13.5 66.501 -13.5c26.667 0 52 7.16699 76 21.5s43.833 37.166 59.5 68.499s23.5 70.666 23.5 117.999l-1 359v61c0 5.33301 -0.666992 9 -2 11
s-4.66602 3 -9.99902 3h-40c-18 0 -31.333 -0.333008 -40 -1c-2 -0.666992 -4.33301 -2.16699 -7 -4.5s-4 -4.5 -4 -6.5c-0.666992 -2 -1 -21.333 -1 -58l1 -282v-49c0 -28 -3.83301 -56.333 -11.5 -85s-23.167 -43 -46.5 -43c-13.333 0 -25.333 6.5 -36 19.5
s-16.334 27.5 -17.001 43.5c-0.666992 12 -1 25.333 -1 40c-0.666992 5.33301 -1 14.666 -1 27.999c0 5.33301 -1 9 -3 11s-5.33301 3 -10 3h-75c-6.66699 0 -10 -5 -10 -15z" />
    <glyph glyph-name="K" unicode="K" horiz-adv-x="411" 
d="M108 622l0.000976562 3.00293c0 4.66699 -1 7.83398 -3 9.50098s-5.66699 2.5 -11 2.5c-30.667 -1.33301 -56 -2 -76 -2c-6 0 -9.83301 -1.33301 -11.5 -4s-2.5 -7.33398 -2.5 -14.001v-606c0 -5.33301 1 -8.66602 3 -9.99902c4 -2 14.667 -3 32 -3
c23.333 0 41 0.666992 53 2c10 1.33301 15 6.33301 15 15l3 288c0 18 7 27 21 27c6 0 13.667 -1.33301 23 -4c14 -3.33301 26.333 -10.5 37 -21.5s17 -24.5 19 -40.5c0.666992 -10.667 1 -35.667 1 -75v-112v-37c0 -2.66699 0.166992 -9.16699 0.5 -19.5
s2.16602 -16.333 5.49902 -18s9.33301 -2.5 18 -2.5h31c22 0 35.333 0.333008 40 1c1.33301 0 2.66602 1.16699 3.99902 3.5s2 4.5 2 6.5c0.666992 4 0.833984 19.333 0.500977 46s-0.5 50 -0.5 70v75v39c2 30.667 -2.66699 56.667 -14 78
c-13.333 23.333 -29.333 40.666 -48 51.999c-4 2.66699 -6 5 -6 7c0 2.66699 2 5 6 7c16.667 9.33301 29.334 23.5 38.001 42.5s13.667 36.167 15 51.5c0.666992 9.33301 1 39.666 1 90.999v36c-0.666992 12.667 -2.16699 20.167 -4.5 22.5s-9.83301 3.5 -22.5 3.5h-44
c-18 0 -27.333 -0.333008 -28 -1s-0.833984 -10 -0.500977 -28s0.5 -33.333 0.5 -46c0.666992 -12.667 1 -27.334 1 -44.001c0 -20.667 -4.66699 -37.834 -14 -51.501s-20.5 -23.5 -33.5 -29.5s-24.833 -9 -35.5 -9c-8.66699 0 -13 1.66699 -13 5
c-1.33301 25.333 -2 90 -2 194z" />
    <glyph glyph-name="L" unicode="L" horiz-adv-x="396" 
d="M117 106.5c-2 2.33301 -3.00293 4.83398 -3.00293 7.50098l-1 205c0 162.667 0.666992 260.667 2 294c0 5.33301 -1 9 -3 11s-5.33301 2.66699 -10 2c-5.33301 -0.666992 -13.666 -1 -24.999 -1l-52 1c-7.33301 0 -12.166 -1.33301 -14.499 -4
s-3.5 -7.33398 -3.5 -14.001c0 -76.667 -0.166992 -176 -0.5 -298s-0.833008 -215.667 -1.5 -281c0 -7.33301 2.16699 -14 6.5 -20s8.83301 -9 13.5 -9c6 -0.666992 41.667 -1 107 -1c104 0 159.333 1 166 3c2.66699 0.666992 5.33398 2.5 8.00098 5.5s4 5.83301 4 8.5
c1.33301 14 2 36.333 2 67c0 7.33301 -1.66699 12.5 -5 15.5s-9 4.5 -17 4.5h-168c-1.33301 0 -3 1.16699 -5 3.5z" />
    <glyph glyph-name="M" unicode="M" horiz-adv-x="677" 
d="M466 617l-50.999 -0.998047c-6 0 -10.167 -2 -12.5 -6s-3.5 -6.33301 -3.5 -7l-41 -108c-40.667 -114 -62.334 -171 -65.001 -171c-2 0 -11.333 25.167 -28 75.5l-35 104.5l-31 94c-4.66699 12 -15 18 -31 18l-20 -1c-6.66699 -0.666992 -13.667 -1 -21 -1
s-13.666 -0.333008 -18.999 -1c-8.66699 0 -14.334 -6.33301 -17.001 -19c-6 -37.333 -33.667 -174.333 -83 -411l-19 -93c-5.33301 -25.333 -9 -43.666 -11 -54.999v-5c0 -5.33301 1.16699 -9.33301 3.5 -12s4.66602 -4.33398 6.99902 -5.00098s3.83301 -1 4.5 -1l77 -12
c1.33301 0 3.83301 0.166992 7.5 0.5s7.5 2.16602 11.5 5.49902s6.66699 8.33301 8 15l34 203.5c16.667 98.333 26 147.5 28 147.5s12.167 -26.333 30.5 -79l43.5 -127c2 -8 5.5 -13.333 10.5 -16s10.833 -4 17.5 -4l49 -1c3.33301 0 7 1.5 11 4.5s7 5.83301 9 8.5
c3.33301 5.33301 16 34.666 38 87.999c36.667 85.333 56 128 58 128s16.667 -71 44 -213l29 -149c1.33301 -6 5 -11.5 11 -16.5s11.333 -6.83301 16 -5.5c41.333 12.667 67 21 77 25c2 0.666992 3.83301 3 5.5 7s2.16699 7.33301 1.5 10l-69 346
c-31.333 156 -48 235 -50 237c-1.33301 1.33301 -9.66602 2 -24.999 2z" />
    <glyph glyph-name="N" unicode="N" horiz-adv-x="469" 
d="M121 317l5.99902 -11.001l65 -156c32 -76.667 50.667 -120.667 56 -132c2.66699 -5.33301 6.66699 -9.33301 12 -12s10.333 -4 15 -4h9l58 -1c6 0 11.833 2.66699 17.5 8s8.5 12.666 8.5 21.999c-0.666992 46.667 -1 171.334 -1 374.001c-0.666992 64.667 -1 135 -1 211
c0 6.66699 -1.33301 11.167 -4 13.5s-7 3.16602 -13 2.49902c-12.667 -1.33301 -37 -2.66602 -73 -3.99902c-10.667 -0.666992 -17 -2.16699 -19 -4.5s-2.66699 -8.83301 -2 -19.5c2 -60 3 -169.667 3 -329c0 -2.66699 -0.666992 -7.33398 -2 -14.001
c-9.33301 18.667 -31.333 71 -66 157s-60 150.333 -76 193c-1.33301 4.66699 -4.16602 8.16699 -8.49902 10.5s-8.5 3.66602 -12.5 3.99902s-6.66699 0.5 -8 0.5l-59 1c-6.66699 0 -11.334 -1.5 -14.001 -4.5s-4 -7.83301 -4 -14.5v-50
c0 -97.333 -0.333008 -200.666 -1 -309.999s-1 -185 -1 -227c0 -1.33301 1 -4.33301 3 -9s5.33301 -9 10 -13s10.334 -5.33301 17.001 -4c4.66699 0.666992 10.5 1.33398 17.5 2.00098s12.5 1 16.5 1c12 0 20.667 0.333008 26 1c8 0.666992 13.5 2.33398 16.5 5.00098
s4.5 8 4.5 16v215v82h4z" />
    <glyph glyph-name="O" unicode="O" horiz-adv-x="430" 
d="M339 452c0 55.333 -12.499 100.5 -37.499 135.5s-63.167 52.5 -114.5 52.5c-57.333 0 -102.333 -14.833 -135 -44.5s-49 -76.5 -49 -140.5l-1 -147c0 -101.333 1.33301 -160 4 -176c4.66699 -34 19.5 -65.667 44.5 -95s67.833 -44 128.5 -44c34 0 63.167 9 87.5 27
s42.666 39.833 54.999 65.5s18.5 49.5 18.5 71.5zM102.001 291c-0.666992 68 -0.998047 122.667 -0.998047 164c0 26.667 5.83301 47.5 17.5 62.5s30.167 22.5 55.5 22.5c42 0 63 -27.333 63 -82v-278c0 -25.333 -4.83301 -44.833 -14.5 -58.5s-26.834 -20.5 -51.501 -20.5
c-40 0 -62.333 26.667 -67 80c-0.666992 5.33301 -1.33398 42 -2.00098 110z" />
    <glyph glyph-name="P" unicode="P" horiz-adv-x="387" 
d="M223 263c56 19.333 84.002 68.665 84.002 147.998l-1 78c0 15.333 -4 34.333 -12 57s-23.833 43.667 -47.5 63s-57.5 29 -101.5 29h-115c-5.33301 0 -10.333 -1.66699 -15 -5s-7.33398 -8.66602 -8.00098 -15.999c-0.666992 -66 -1.16699 -162 -1.5 -288
s-0.5 -226 -0.5 -300c0 -9.33301 2.5 -16 7.5 -20s11.833 -5.33301 20.5 -4c2 0.666992 10.167 0.833984 24.5 0.500977s24.166 -0.5 29.499 -0.5c10.667 0.666992 16 7 16 19l3 222c60.667 5.33301 99.667 11 117 17zM135.502 546.499
c15.667 -0.333008 28.5 -1.49902 38.5 -3.49902s18 -8 24 -18s9 -20 9 -30v-94c0 -10 -3.33301 -20.5 -10 -31.5s-15 -18.167 -25 -21.5c-8.66699 -2.66699 -20.834 -4.83398 -36.501 -6.50098s-26.167 -2.5 -31.5 -2.5l1 208c4.66699 0 14.834 -0.166992 30.501 -0.5z" />
    <glyph glyph-name="Q" unicode="Q" horiz-adv-x="428" 
d="M329 304l-1.00293 193.999c0 30.667 -7 59.334 -21 86.001s-33.833 48.167 -59.5 64.5s-55.167 24.5 -88.5 24.5c-30.667 0 -57.5 -8 -80.5 -24s-40.833 -37.167 -53.5 -63.5s-19 -54.5 -19 -84.5l-3 -317c0 -78 17.333 -128.833 52 -152.5s68 -35.5 100 -35.5
c16.667 -0.666992 34 2 52 8h2c4.66699 0 8.33398 -1.33301 11.001 -4c8.66699 -9.33301 17.334 -20.666 26.001 -33.999c4.66699 -6.66699 10 -10 16 -10c4 0 7.66699 1.33301 11 4l43 28c10.667 8 16 15 16 21c0 5.33301 -3 12 -9 20l-23 29
c-2.66699 3.33301 -4 6.66602 -4 9.99902c0 4 1 8.33301 3 13s5.5 12 10.5 22s8.83301 19.167 11.5 27.5s4.33398 16.5 5.00098 24.5c2 20 3 69.667 3 149zM100.997 502.999c0 12 3.99902 26.833 11.999 44.5s25.667 26.5 53 26.5c43.333 0 65 -27 65 -81l-1 -294
c0 -10.667 -2.16699 -23.167 -6.5 -37.5s-11.166 -27 -20.499 -38s-21 -16.5 -35 -16.5c-21.333 0 -38 9.83301 -50 29.5s-18 42.5 -18 68.5z" />
    <glyph glyph-name="R" unicode="R" horiz-adv-x="449" 
d="M241.5 282c4.33301 1.33301 7.49902 2.33496 9.49902 3.00195c15.333 8 30.166 17 44.499 27s28.833 27.333 43.5 52s22 56 22 94c0 33.333 -8.33301 62.666 -25 87.999s-38.167 45 -64.5 59s-53.833 21 -82.5 21c-14.667 1.33301 -37 2 -67 2l-73 -1
c-11.333 0 -21.666 -3.33301 -30.999 -10s-14 -16.334 -14 -29.001l-1 -562c0 -13.333 3.66699 -21.333 11 -24c4 -1.33301 13 -2 27 -2c20.667 0 33.667 0.666992 39 2c8.66699 1.33301 14.334 3.33301 17.001 6s4 9.66699 4 21c0 144 0.333008 222.667 1 236
c11.333 0.666992 19.333 -0.666016 24 -3.99902s9 -9 13 -17l64.5 -134c29.667 -60.667 46.5 -94.334 50.5 -101.001c4 -10 9.66699 -15 17 -15c4 0 8 1 12 3c14 4 33.333 12 58 24c8.66699 4.66699 13 9.33398 13 14.001c0 3.33301 -1.66699 8.33301 -5 15l-36 70
c-45.333 85.333 -72.333 138 -81 158c2 1.33301 5.16699 2.66602 9.5 3.99902zM101.999 511.002c0 11.333 5.33301 16.998 16 16.998c9.33301 0.666992 23 1 41 1c23.333 -1.33301 45 -6.16602 65 -14.499s30 -27.166 30 -56.499c0 -20 -6 -36.667 -18 -50
s-25.333 -23 -40 -29s-24.667 -9 -30 -9c-5.33301 -0.666992 -11.333 -1 -18 -1c-3.33301 0 -7 0.166992 -11 0.5s-10 0.5 -18 0.5c-6 0 -10.167 1.5 -12.5 4.5s-3.5 7.5 -3.5 13.5v8c0 52.667 -0.333008 91 -1 115z" />
    <glyph glyph-name="S" unicode="S" horiz-adv-x="406" 
d="M39 264l-40.001 -0.00585938c-5.33301 0 -8.83301 -0.666992 -10.5 -2s-2.5 -4.66602 -2.5 -9.99902v-61c0 -26.667 0.333008 -47 1 -61c0.666992 -19.333 7.33398 -39.666 20.001 -60.999s31.167 -39.166 55.5 -53.499s53.166 -21.5 86.499 -21.5
c48.667 0 86 13.667 112 41s43.167 57 51.5 89s12.5 59.333 12.5 82c0 34 -8.5 64.333 -25.5 91s-33.667 46.667 -50 60s-35.166 27 -56.499 41c-3.33301 2 -6.83301 3.83301 -10.5 5.5s-6.83398 3.16699 -9.50098 4.5c-24 10.667 -43.5 21.667 -58.5 33
s-22.5 25.333 -22.5 42c0 22 6.66699 38 20 48s29.333 15 48 15c14.667 0 28.334 -5.66699 41.001 -17s21.667 -24.333 27 -39c0 -1.33301 2 -2.33301 6 -3s7 -0.333984 9 0.999023c14 7.33301 34.333 19 61 35c7.33301 5.33301 11 9.33301 11 12s-2 7 -6 13
c-0.666992 0.666992 -4.83398 9 -12.501 25s-24.167 32.167 -49.5 48.5s-54.333 24.5 -87 24.5c-36 0 -67.333 -7.66699 -94 -23s-47 -34.666 -61 -57.999s-21 -46.666 -21 -69.999c0 -32 6.5 -59.167 19.5 -81.5s28.5 -40.166 46.5 -53.499s41.333 -27.666 70 -42.999
c31.333 -17.333 54.5 -32.833 69.5 -46.5s22.5 -31.167 22.5 -52.5c0 -33.333 -3.5 -59.333 -10.5 -78s-21.5 -28 -43.5 -28c-20 0 -34.833 8.16699 -44.5 24.5s-15.5 31.833 -17.5 46.5c-0.666992 8 -1 21.333 -1 40c0 22 -1.33301 34 -4 36
c-3.33301 3.33301 -20.666 5 -51.999 5z" />
    <glyph glyph-name="T" unicode="T" horiz-adv-x="427" 
d="M47 524c20 0 38.002 0.666992 54.002 2h5c6.66699 0 10 -4 10 -12c-0.666992 -14 -0.333984 -99 0.999023 -255c0.666992 -74.667 1 -153.334 1 -236.001c0 -8.66699 1.5 -14.834 4.5 -18.501s8.16699 -5.5 15.5 -5.5c24.667 0 42 0.333008 52 1
c14 0.666992 23.167 2.83398 27.5 6.50098s6.5 11.834 6.5 24.501v315v170c0 2 0.833008 3.66699 2.5 5s3.16699 2 4.5 2h83c13.333 0 22.5 0.666992 27.5 2s7.5 4.33301 7.5 9l1 83c0 4.66699 -2.33301 7.66699 -7 9s-12.334 2 -23.001 2h-308c-6 0 -11.833 -2 -17.5 -6
s-8.16699 -10 -7.5 -18c0 -0.666992 0.166992 -2.5 0.5 -5.5s0.5 -8.16699 0.5 -15.5c0 -38.667 1.33301 -58 4 -58z" />
    <glyph glyph-name="U" unicode="U" 
d="M39.5 635c13.667 0.666992 30.167 0.99707 49.5 0.99707c5.33301 0 8.83301 -1.16699 10.5 -3.5s2.5 -6.16602 2.5 -11.499v-138v-312c0 -3.33301 1.5 -10.333 4.5 -21s8.83301 -20.834 17.5 -30.501s21 -14.5 37 -14.5s28 4.16699 36 12.5s13 16.833 15 25.5
s3.66699 20 5 34c0.666992 8.66699 1 49.334 1 122.001c0 207.333 -0.666992 313 -2 317c0 8 1.66699 13.5 5 16.5s7 4.66699 11 5s6.66699 0.5 8 0.5h56c1.33301 0 3.5 -0.666992 6.5 -2s6 -3.66602 9 -6.99902s4.5 -7.66602 4.5 -12.999
c1.33301 -38.667 2 -158.667 2 -360c0 -67.333 -0.333008 -103 -1 -107c-2.66699 -22.667 -9.33398 -46 -20.001 -70s-26.667 -44.5 -48 -61.5s-48 -25.5 -80 -25.5c-36.667 0 -67 8.16699 -91 24.5s-41.667 35.5 -53 57.5s-17 42 -17 60v323v139l-1 21
c0 11.333 1.66699 17 5 17c4.66699 0 13.834 0.333008 27.501 1z" />
    <glyph glyph-name="V" unicode="V" horiz-adv-x="436" 
d="M165 268l-3.00195 7.99805l-41.5 159.5l-46.5 175.5c-4 14.667 -12.667 20.334 -26 17.001l-68 -23c-8 -2 -10.667 -7 -8 -15c6.66699 -23.333 28.834 -106 66.501 -248l85.5 -326c1.33301 -5.33301 4.16602 -9.33301 8.49902 -12s8.83301 -3.33398 13.5 -2.00098
s10.334 2.33301 17.001 3s11.334 1 14.001 1c16 1.33301 28 3.33301 36 6c4 0.666992 6.66699 4.33398 8 11.001l69 276l74 289c0.666992 2 1 4.33301 1 7c0 7.33301 -4 12 -12 14l-73 16l-4 1c-5.33301 0 -9 -3.66699 -11 -11l-38 -136
c-34 -127.333 -53.333 -197.666 -58 -210.999h-4z" />
    <glyph glyph-name="W" unicode="W" horiz-adv-x="593" 
d="M478.5 640c-29 2.66699 -45.5 3.33105 -49.5 1.99805c-4 -2 -6.66699 -5 -8 -9c-8 -48.667 -18.333 -117.5 -31 -206.5l-27 -192.5c0 -0.666992 -0.5 -1.5 -1.5 -2.5s-1.83301 -0.166992 -2.5 2.5l-65 225c-0.666992 4.66699 -8.66699 7 -24 7
c-7.33301 0 -13.666 -0.333008 -18.999 -1s-9 -1 -11 -1c-1.33301 0 -3.5 -0.666992 -6.5 -2s-4.83301 -2.66602 -5.5 -3.99902l-87 -256c0 -0.666992 -0.5 -1.5 -1.5 -2.5s-1.83301 0.166992 -2.5 3.5l-59 399c-2.66699 12.667 -9.66699 17.334 -21 14.001
c-22 -4.66699 -44.333 -10.667 -67 -18c-8 -2 -11.667 -7.66699 -11 -17c52 -332 81.333 -517.333 88 -556c1.33301 -6 4 -11.333 8 -16s8.33301 -7 13 -7c2 0 6.5 -0.333008 13.5 -1s17.167 -1 30.5 -1c20.667 -0 33 2.33301 37 7c8.66699 7.33301 15 19.666 19 36.999
c3.33301 11.333 20.333 62 51 152l12 34c0.666992 3.33301 1.66699 5.83301 3 7.5s2.33301 1.5 3 -0.5c4 -20 11.667 -52.667 23 -98l32 -123c2.66699 -12 11 -18 25 -18c13.333 0 23.333 0.333008 30 1c20 0 35 0.333008 45 1c3.33301 0 6.66602 0.833008 9.99902 2.5
s5.33301 3.5 6 5.5c3.33301 8.66699 20.833 113.834 52.5 315.501s46.5 304.167 44.5 307.5s-17.5 6.33301 -46.5 9z" />
    <glyph glyph-name="X" unicode="X" horiz-adv-x="427" 
d="M97 583l-23.002 44.001c-4 6 -8 9 -12 9s-7.66699 -1.33301 -11 -4c-15.333 -10.667 -30 -20.334 -44 -29.001l-17 -11c-6.66699 -4 -8.33398 -9.66699 -5.00098 -17l45 -84l68 -128c2.66699 -6.66699 4 -11.334 4 -14.001c0 -4.66699 -1.66699 -9.66699 -5 -15l-64 -132
l-71 -151c-2.66699 -5.33301 -4 -10.666 -4 -15.999c0 -12.667 7 -21.667 21 -27l46 -15c5.33301 -1.33301 9 -2 11 -2c7.33301 0 12.333 4.33301 15 13l62 134c30 64.667 46 97 48 97c0.666992 0 6.66699 -11.5 18 -34.5l27 -55.5l68 -136
c1.33301 -2.66699 4.33301 -5 9 -7s8.33398 -2.66699 11.001 -2c28.667 10.667 49.667 24.667 63 42c2 3.33301 3 7.33301 3 12s-0.333008 7.66699 -1 9l-50 103l-81 168c-2.66699 6 -4 12 -4 18s1.33301 11.667 4 17l100 218c2.66699 4.66699 4 8.66699 4 12
c0 5.33301 -4.66699 9.33301 -14 12c-3.33301 0 -10.666 2.33301 -21.999 7l-37 11l-6 1c-8 0 -14.333 -4 -19 -12l-24 -49l-27.5 -57c-14.333 -30 -22.166 -45 -23.499 -45c-2 0 -22.667 38.667 -62 116z" />
    <glyph glyph-name="Y" unicode="Y" horiz-adv-x="427" 
d="M83 591l-17.9941 33.9971c-4.66699 6 -10.334 7.66699 -17.001 5l-52 -29c-6.66699 -4 -11.167 -7.16699 -13.5 -9.5s-3.5 -5.16602 -3.5 -8.49902c0 -4 2 -10 6 -18c9.33301 -19.333 26 -51.833 50 -97.5l57 -106.5c19.333 -33.333 28.666 -69.666 27.999 -108.999
c-1.33301 -30 -2 -105 -2 -225c0 -17.333 8.66699 -26 26 -26h51c6 0 11.667 2.66699 17 8s7.66602 13 6.99902 23c0 3.33301 0.5 34.333 1.5 93s1.5 108 1.5 148c0 20.667 4.66699 39 14 55c15.333 26 58.333 106.333 129 241c2 4 3 7 3 9c0 4.66699 -3 8 -9 10
c-25.333 10.667 -48 19.334 -68 26.001h-1c-2.66699 0 -5.33398 -0.666992 -8.00098 -2s-4.33398 -3 -5.00098 -5l-33 -62c-42.667 -82 -65.334 -123 -68.001 -123c-3.33301 0 -34.333 56.333 -93 169z" />
    <glyph glyph-name="Z" unicode="Z" horiz-adv-x="438" 
d="M227.5 528.5c-0.333008 -1.66699 -0.835938 -2.83008 -1.50293 -3.49707l-127 -249.5c-62 -121.667 -93.667 -184.834 -95 -189.501c-1.33301 -10.667 -2 -19.334 -2 -26.001l1 -37c0 -10 1.33301 -16.5 4 -19.5s8.66699 -4.5 18 -4.5c10.667 -0.666992 60.667 -1 150 -1
h141c15.333 0 23.333 6 24 18v21c0 4.66699 -0.166992 10.5 -0.5 17.5s-0.166016 15.167 0.500977 24.5c0 13.333 -7 20 -21 20l-136 -1c-36 0 -54.333 0.666992 -55 2c-1.33301 2 26.667 59.167 84 171.5l131 254.5c6 9.33301 9.33301 15.666 10 18.999
c0.666992 12 1 33.667 1 65c0 6.66699 -2.83301 11.5 -8.5 14.5s-12.167 4.5 -19.5 4.5h-31c-66.667 -1.33301 -137.667 -2 -213 -2l-57 1c-5.33301 0 -9.16602 -1 -11.499 -3s-3.83301 -5.33301 -4.5 -10c-0.666992 -6.66699 -1 -25.667 -1 -57
c0 -15.333 6.66699 -24.333 20 -27h196c2.66699 0 3.83398 -0.833008 3.50098 -2.5z" />
    <glyph glyph-name="backslash" unicode="\" horiz-adv-x="308" 
d="M245 25c0 2 -0.666992 6.33301 -2 13l-160 608c-2 10 -7.33301 13.333 -16 10l-60 -21c-12 -4.66699 -19.667 -8 -23 -10s-5 -5.33301 -5 -10c0 -4 1.66699 -12.667 5 -26c8 -32 11.333 -45 10 -39c78.667 -302.667 127 -486 145 -550
c2.66699 -8 5.16699 -13.5 7.5 -16.5s6.5 -4.5 12.5 -4.5c4 0 9.33301 1 16 3c30.667 10 50 18 58 24c8 4 12 10.333 12 19z" />
    <glyph glyph-name="underscore" unicode="_" horiz-adv-x="312" 
d="M218.5 -69.5c2.33301 1.66699 3.49902 4.16797 3.49902 7.50098c0 2.66699 -0.166992 12.5 -0.5 29.5s-0.166016 31.5 0.500977 43.5c0 6 -1.16699 10 -3.5 12s-6.83301 2.66699 -13.5 2c-10.667 -0.666992 -26.667 -1 -48 -1c-23.333 0 -41 0.333008 -53 1
c-9.33301 0 -20.666 0.166992 -33.999 0.5s-29 0.166016 -47 -0.500977c-14 0 -21.333 -6 -22 -18c-0.666992 -4.66699 -1 -12 -1 -22c0 -4.66699 0.166992 -10.5 0.5 -17.5s0.166016 -14.5 -0.500977 -22.5v-1c0 -5.33301 1.5 -9.33301 4.5 -12s6.16699 -4 9.5 -4h6h191
c2.66699 0 5.16699 0.833008 7.5 2.5z" />
    <glyph glyph-name="a" unicode="a" horiz-adv-x="462" 
d="M285 -9c-1.33301 -0.666992 -3.33105 -0.999023 -5.99805 -0.999023c-6.66699 0 -11.334 2.5 -14.001 7.5s-4 8.83301 -4 11.5l-24 130c-0.666992 5.33301 -2.33398 8.83301 -5.00098 10.5s-6.66699 2.16699 -12 1.5l-47 1c-32.667 0 -49.334 -1.66699 -50.001 -5l-5 -22
c-1.33301 -6.66699 -6.16602 -28 -14.499 -64s-13.833 -55.333 -16.5 -58c-3.33301 -3.33301 -16.333 -1.33301 -39 6s-35.334 11.333 -38.001 12c-20.667 5.33301 -29 15.333 -25 30c6.66699 29.333 32.834 130.666 78.501 303.999s70.167 261.666 73.5 264.999
c6.66699 8 13.667 12 21 12l47 1c10 0 17.333 -0.333008 22 -1c6 0 10.167 -0.5 12.5 -1.5s4.5 -3.5 6.5 -7.5c8.66699 -22.667 29.167 -112.667 61.5 -270s53.5 -264.666 63.5 -321.999c0.666992 -2 1 -4.33301 1 -7c0 -6 -3.33301 -10 -10 -12zM182.002 251.001
c12.667 0 21.333 0.333984 26 1.00098h1c4 0 5 3.66699 3 11l-11.5 94c-5 40 -8.5 63.667 -10.5 71c-0.666992 0.666992 -1.16699 2.16699 -1.5 4.5s-1.5 0.833008 -3.5 -4.5c-5.33301 -20.667 -13.333 -54.334 -24 -101.001s-15.667 -71 -15 -73c2 -2 14 -3 36 -3z" />
    <glyph glyph-name="b" unicode="b" horiz-adv-x="479" 
d="M294.5 403c13.667 10 25.333 23.502 35 40.502s14.5 36.833 14.5 59.5c0 39.333 -13 70.5 -39 93.5s-55.5 39 -88.5 48s-62.167 13.833 -87.5 14.5h-105c-13.333 0 -20 -6.66699 -20 -20v-614c0 -12.667 3.33301 -21.667 10 -27s18 -8 34 -8h167
c22.667 0 47.334 7 74.001 21s49.167 35 67.5 63s27.5 62 27.5 102v48c0 20.667 -5.66699 42.167 -17 64.5s-26.833 42.166 -46.5 59.499s-40.834 29.666 -63.501 36.999c11.333 2 23.833 8 37.5 18zM111.999 459.002c1.33301 50.667 1.66895 84.333 1.00195 101
c0 3.33301 0.666992 5.83301 2 7.5s2.66602 2.66699 3.99902 3s2.33301 0.5 3 0.5c0 1.33301 11.5 0.5 34.5 -2.5s43.833 -9.83301 62.5 -20.5s28 -26.667 28 -48c0 -18.667 -9.33301 -33.5 -28 -44.5s-39.834 -19 -63.501 -24s-35.5 -6.83301 -35.5 -5.5h-1
c-4.66699 0 -7 3.33301 -7 10v23zM112.002 193.001c0 77.333 0.999023 117.002 2.99902 119.002c2.66699 1.33301 7.33398 2 14.001 2c8.66699 0 17 -0.333008 25 -1s14.667 -1 20 -1c28.667 0 52.667 -9.16699 72 -27.5s29 -40.5 29 -66.5v-29
c0 -20.667 -5.5 -38.334 -16.5 -53.001s-24.167 -25.834 -39.5 -33.501s-29.333 -11.5 -42 -11.5l-52 -1c-6 0 -9.33301 0.333008 -10 1c-2 1.33301 -3 35.333 -3 102z" />
    <glyph glyph-name="c" unicode="c" horiz-adv-x="375" 
d="M255 42.5c21.333 45 32.002 94.165 32.002 147.498c0 10 -0.166992 17.5 -0.5 22.5s-0.5 8.5 -0.5 10.5c0 13.333 -6.66699 19.333 -20 18l-64 -3c-8.66699 0 -12.667 -4 -12 -12c1.33301 -6 1.16602 -21.5 -0.500977 -46.5s-6.83398 -48.333 -15.501 -70
s-22.334 -32.5 -41.001 -32.5c-14.667 0 -25.667 10.167 -33 30.5s-11 38.5 -11 54.5l1 297c0 28.667 5.33301 53.834 16 75.501s22.667 32.5 36 32.5c20 0 33 -10.667 39 -32s9.33301 -39.666 10 -54.999s1 -24.333 1 -27c3.33301 -10.667 10 -16 20 -16
c6.66699 0 13.834 -0.166992 21.501 -0.5s16.5 -0.166016 26.5 0.500977h9c4 0 7.33301 0.833008 10 2.5s4 4.5 4 8.5c0 2.66699 0.333008 7.16699 1 13.5s1 15.166 1 26.499c0 45.333 -10 85.666 -30 120.999s-58.333 53 -115 53c-59.333 0 -98.5 -23 -117.5 -69
s-29.167 -91.333 -30.5 -136c-0.666992 -8.66699 -1 -28 -1 -58c0 -34.667 1 -115 3 -241l1 -51c0 -37.333 12.333 -68.666 37 -93.999s57 -38 97 -38c62.667 0 104.667 22.5 126 67.5z" />
    <glyph glyph-name="d" unicode="d" horiz-adv-x="416" 
d="M58 648c-31.333 0 -48.333 -2.33301 -51 -7c-0.666992 -3.33301 -1.5 -74.666 -2.5 -213.999s-1.5 -261 -1.5 -365v-60c0.666992 -6 20 -9 58 -9l76 1c64.667 0 114.5 22.167 149.5 66.5s52.5 108.833 52.5 193.5v137c0 36 -5.83301 73.167 -17.5 111.5
s-34.667 72.166 -69 101.499s-82.5 44 -144.5 44h-50zM114 95c-5.33301 0 -8.00098 5.00098 -8.00098 15.001l1 422c0 3.33301 0.666992 5.83301 2 7.5s3 2.16699 5 1.5l26 1c14 0 28 -5.66699 42 -17s25.833 -26.333 35.5 -45s14.834 -38.334 15.501 -59.001
c0.666992 -15.333 1 -42.333 1 -81c0 -56 -0.333008 -97 -1 -123c0 -38 -9.16699 -67.167 -27.5 -87.5s-48.5 -31.833 -90.5 -34.5h-1z" />
    <glyph glyph-name="e" unicode="e" horiz-adv-x="406" 
d="M295 519c-8.66699 0 -15.332 0.331055 -19.999 0.998047h-57c-36.667 0 -60 0.333008 -70 1h-8c-6.66699 0 -10.667 -1.16699 -12 -3.5s-2.66602 -8.16602 -3.99902 -17.499c-0.666992 -17.333 -1 -48.666 -1 -93.999h50c57.333 0 90.333 -1 99 -3
c8.66699 -1.33301 13 -10 13 -26c0 -26.667 -1.66699 -46.334 -5 -59.001c-2.66699 -3.33301 -7.83398 -5.66602 -15.501 -6.99902s-12.834 -2 -15.501 -2l-111 -2c-8.66699 0 -13 -4.33301 -13 -13c-1.33301 -25.333 -2 -49.333 -2 -72c0 -28 0.333008 -53.167 1 -75.5
s1 -34.5 1 -36.5c10 0.666992 66 1 168 1c10 0 16.667 -1.16699 20 -3.5s5 -5.5 5 -9.5l-3 -82c0 -4 -2.16699 -7 -6.5 -9s-9.5 -3 -15.5 -3l-271 -1c-6 0 -10 1.33301 -12 4s-3 6.66699 -3 12c0 368.667 0.333008 562.667 1 582c0 4.66699 2.16699 9.66699 6.5 15
s8.83301 8 13.5 8h80h183c19.333 0 29 -9.66699 29 -29v-25.5c0 -15.667 -1.33301 -29.167 -4 -40.5c-2.66699 -6.66699 -9.66699 -10 -21 -10z" />
    <glyph glyph-name="f" unicode="f" 
d="M3 443l0.998047 -322.003c0.666992 -30 1 -60.667 1 -92c0 -11.333 0.833008 -19.166 2.5 -23.499s5.5 -6.5 11.5 -6.5c3.33301 0 10 -0.5 20 -1.5s19.667 -1.5 29 -1.5c30 0 45 5.33301 45 16c0 16.667 -0.333008 29.667 -1 39c-1.33301 90.667 -2 163.334 -2 218.001
c0 36 0.666992 54.667 2 56c2 0.666992 5.16699 0.833984 9.5 0.500977s8.83301 -0.5 13.5 -0.5h29c56 0 84 5.66699 84 17c1.33301 13.333 2 24.666 2 33.999c0 32 -4 48 -12 48l-111 -1c-5.33301 0 -9.5 1.5 -12.5 4.5s-4.5 6.5 -4.5 10.5
c0 2.66699 -0.166992 9.83398 -0.5 21.501s-0.166016 22.834 0.500977 33.501c0.666992 10 1.5 16.833 2.5 20.5s3.33301 6.16699 7 7.5s10.834 2.66602 21.501 3.99902c1.33301 0 24.5 0.333008 69.5 1s75.833 0.666992 92.5 0c8.66699 0 15.167 4 19.5 12
s6.83301 16 7.5 24c4 28 6 45 6 51c0 8 -1.33301 12 -4 12c-3.33301 0 -29 0.333008 -77 1s-96.667 1 -146 1c-66.667 0 -101 -1 -103 -3s-3 -62.333 -3 -181z" />
    <glyph glyph-name="g" unicode="g" 
d="M229 196c0.666992 -25.333 -4.3291 -49.1689 -14.9961 -71.502s-27 -33.5 -49 -33.5c-20.667 0 -36.834 7.33301 -48.501 22s-19.334 30.5 -23.001 47.5s-5.5 30.5 -5.5 40.5v127c0 82.667 0.333008 129.334 1 140.001c1.33301 16 6.5 31.833 15.5 47.5
s21.5 23.5 37.5 23.5c16.667 0 30 -3.66699 40 -11s18.667 -16 26 -26s12.333 -14.333 15 -13l25 17c18.667 13.333 32 22 40 26c6 3.33301 9 7 9 11s-1.33301 7.33301 -4 10c-2.66699 3.33301 -9.83398 13.666 -21.501 30.999s-28.334 32.5 -50.001 45.5
s-46.834 19.5 -75.501 19.5c-16 0 -36.667 -4.5 -62 -13.5s-48.666 -26.667 -69.999 -53s-32 -62.833 -32 -109.5l1 -276c0 -22.667 3.83301 -50.167 11.5 -82.5s24.667 -62.666 51 -90.999s64.5 -42.5 114.5 -42.5c57.333 0 99.666 20 126.999 60s41 95.667 41 167
c0.666992 14 1 28.667 1 44c0 5.33301 -0.166992 12.333 -0.5 21s-0.166016 23 0.500977 43c0 6 -1.83301 10.667 -5.5 14s-7.5 5.33301 -11.5 6s-6.66699 1 -8 1c-12 0 -32.667 0.333008 -62 1s-54.666 0.666992 -75.999 0c-12.667 -1.33301 -19 -7.66602 -19 -18.999v-22
c0 -5.33301 0.166992 -12 0.5 -20s0.166016 -17 -0.500977 -27v-3c0 -4.66699 1 -7.66699 3 -9s5.66699 -2 11 -2c16 0.666992 38.333 1 67 1c0 -2 0.333008 -15.667 1 -41z" />
    <glyph glyph-name="h" unicode="h" 
d="M159 420c-10 0 -18.502 0.166992 -25.502 0.5s-11.5 0.5 -13.5 0.5c-1.33301 0 -3.66602 0.833008 -6.99902 2.5s-4.66602 4.5 -3.99902 8.5l1 187c0 5.33301 -2.16699 9.33301 -6.5 12s-9 4.33398 -14 5.00098s-8.16699 1 -9.5 1c-6 0 -17.5 -0.333008 -34.5 -1
s-27.5 -1.33398 -31.5 -2.00098c-7.33301 -1.33301 -11 -5.66602 -11 -12.999c0.666992 -8 1.66699 -133 3 -375l1 -216v-11c0 -6.66699 0.666992 -11.5 2 -14.5s4 -4.5 8 -4.5c26.667 -1.33301 50.667 -2 72 -2c6 0 10.5 0.833008 13.5 2.5s4.83301 5.5 5.5 11.5l2 282
c0 8.66699 1 14.667 3 18s5.66699 5 11 5c32 0 57 0.333008 75 1h2c6.66699 0 10 -4.33301 10 -13v-273c0 -14.667 1.5 -23.834 4.5 -27.501s11.5 -6.16699 25.5 -7.5h57c6 0 10.5 3 13.5 9s4.5 12.667 4.5 20l-1 523v73c0 5.33301 -0.833008 9 -2.5 11s-5.16699 3 -10.5 3
h-81c-8 0 -12 -4 -12 -12l-1 -199c0 -3.33301 -16.333 -5 -49 -5z" />
    <glyph glyph-name="i" unicode="i" horiz-adv-x="209" 
d="M48 -1c-12.667 0 -21.333 0.333984 -26 1.00098l-5 -1c-8 0 -12 6.33301 -12 19v405v168c0.666992 19.333 1.5 31.166 2.5 35.499s4.5 6.5 10.5 6.5c2.66699 0 6.16699 -0.333008 10.5 -1s10.166 -1 17.499 -1c2 0 20 -1 54 -3c7.33301 0 11 -4.33301 11 -13
c-1.33301 -34 -2 -164.667 -2 -392v-188c0 -12 -0.666992 -20.833 -2 -26.5s-4.66602 -8.5 -9.99902 -8.5z" />
    <glyph glyph-name="j" unicode="j" horiz-adv-x="375" 
d="M-40 234c1.33301 -32 1.99902 -61.9971 1.99902 -89.9971c0 -38 8.66699 -68.5 26 -91.5s37.833 -39 61.5 -48s45.834 -13.5 66.501 -13.5c26.667 0 52 7.16699 76 21.5s43.833 37.166 59.5 68.499s23.5 70.666 23.5 117.999l-1 359v61c0 5.33301 -0.666992 9 -2 11
s-4.66602 3 -9.99902 3h-40c-18 0 -31.333 -0.333008 -40 -1c-2 -0.666992 -4.33301 -2.16699 -7 -4.5s-4 -4.5 -4 -6.5c-0.666992 -2 -1 -21.333 -1 -58l1 -282v-49c0 -28 -3.83301 -56.333 -11.5 -85s-23.167 -43 -46.5 -43c-13.333 0 -25.333 6.5 -36 19.5
s-16.334 27.5 -17.001 43.5c-0.666992 12 -1 25.333 -1 40c-0.666992 5.33301 -1 14.666 -1 27.999c0 5.33301 -1 9 -3 11s-5.33301 3 -10 3h-75c-6.66699 0 -10 -5 -10 -15z" />
    <glyph glyph-name="k" unicode="k" horiz-adv-x="411" 
d="M108 622l0.000976562 3.00293c0 4.66699 -1 7.83398 -3 9.50098s-5.66699 2.5 -11 2.5c-30.667 -1.33301 -56 -2 -76 -2c-6 0 -9.83301 -1.33301 -11.5 -4s-2.5 -7.33398 -2.5 -14.001v-606c0 -5.33301 1 -8.66602 3 -9.99902c4 -2 14.667 -3 32 -3
c23.333 0 41 0.666992 53 2c10 1.33301 15 6.33301 15 15l3 288c0 18 7 27 21 27c6 0 13.667 -1.33301 23 -4c14 -3.33301 26.333 -10.5 37 -21.5s17 -24.5 19 -40.5c0.666992 -10.667 1 -35.667 1 -75v-112v-37c0 -2.66699 0.166992 -9.16699 0.5 -19.5
s2.16602 -16.333 5.49902 -18s9.33301 -2.5 18 -2.5h31c22 0 35.333 0.333008 40 1c1.33301 0 2.66602 1.16699 3.99902 3.5s2 4.5 2 6.5c0.666992 4 0.833984 19.333 0.500977 46s-0.5 50 -0.5 70v75v39c2 30.667 -2.66699 56.667 -14 78
c-13.333 23.333 -29.333 40.666 -48 51.999c-4 2.66699 -6 5 -6 7c0 2.66699 2 5 6 7c16.667 9.33301 29.334 23.5 38.001 42.5s13.667 36.167 15 51.5c0.666992 9.33301 1 39.666 1 90.999v36c-0.666992 12.667 -2.16699 20.167 -4.5 22.5s-9.83301 3.5 -22.5 3.5h-44
c-18 0 -27.333 -0.333008 -28 -1s-0.833984 -10 -0.500977 -28s0.5 -33.333 0.5 -46c0.666992 -12.667 1 -27.334 1 -44.001c0 -20.667 -4.66699 -37.834 -14 -51.501s-20.5 -23.5 -33.5 -29.5s-24.833 -9 -35.5 -9c-8.66699 0 -13 1.66699 -13 5
c-1.33301 25.333 -2 90 -2 194z" />
    <glyph glyph-name="l" unicode="l" horiz-adv-x="396" 
d="M117 106.5c-2 2.33301 -3.00293 4.83398 -3.00293 7.50098l-1 205c0 162.667 0.666992 260.667 2 294c0 5.33301 -1 9 -3 11s-5.33301 2.66699 -10 2c-5.33301 -0.666992 -13.666 -1 -24.999 -1l-52 1c-7.33301 0 -12.166 -1.33301 -14.499 -4
s-3.5 -7.33398 -3.5 -14.001c0 -76.667 -0.166992 -176 -0.5 -298s-0.833008 -215.667 -1.5 -281c0 -7.33301 2.16699 -14 6.5 -20s8.83301 -9 13.5 -9c6 -0.666992 41.667 -1 107 -1c104 0 159.333 1 166 3c2.66699 0.666992 5.33398 2.5 8.00098 5.5s4 5.83301 4 8.5
c1.33301 14 2 36.333 2 67c0 7.33301 -1.66699 12.5 -5 15.5s-9 4.5 -17 4.5h-168c-1.33301 0 -3 1.16699 -5 3.5z" />
    <glyph glyph-name="m" unicode="m" horiz-adv-x="677" 
d="M466 617l-50.999 -0.998047c-6 0 -10.167 -2 -12.5 -6s-3.5 -6.33301 -3.5 -7l-41 -108c-40.667 -114 -62.334 -171 -65.001 -171c-2 0 -11.333 25.167 -28 75.5l-35 104.5l-31 94c-4.66699 12 -15 18 -31 18l-20 -1c-6.66699 -0.666992 -13.667 -1 -21 -1
s-13.666 -0.333008 -18.999 -1c-8.66699 0 -14.334 -6.33301 -17.001 -19c-6 -37.333 -33.667 -174.333 -83 -411l-19 -93c-5.33301 -25.333 -9 -43.666 -11 -54.999v-5c0 -5.33301 1.16699 -9.33301 3.5 -12s4.66602 -4.33398 6.99902 -5.00098s3.83301 -1 4.5 -1l77 -12
c1.33301 0 3.83301 0.166992 7.5 0.5s7.5 2.16602 11.5 5.49902s6.66699 8.33301 8 15l34 203.5c16.667 98.333 26 147.5 28 147.5s12.167 -26.333 30.5 -79l43.5 -127c2 -8 5.5 -13.333 10.5 -16s10.833 -4 17.5 -4l49 -1c3.33301 0 7 1.5 11 4.5s7 5.83301 9 8.5
c3.33301 5.33301 16 34.666 38 87.999c36.667 85.333 56 128 58 128s16.667 -71 44 -213l29 -149c1.33301 -6 5 -11.5 11 -16.5s11.333 -6.83301 16 -5.5c41.333 12.667 67 21 77 25c2 0.666992 3.83301 3 5.5 7s2.16699 7.33301 1.5 10l-69 346
c-31.333 156 -48 235 -50 237c-1.33301 1.33301 -9.66602 2 -24.999 2z" />
    <glyph glyph-name="n" unicode="n" horiz-adv-x="469" 
d="M121 317l5.99902 -11.001l65 -156c32 -76.667 50.667 -120.667 56 -132c2.66699 -5.33301 6.66699 -9.33301 12 -12s10.333 -4 15 -4h9l58 -1c6 0 11.833 2.66699 17.5 8s8.5 12.666 8.5 21.999c-0.666992 46.667 -1 171.334 -1 374.001c-0.666992 64.667 -1 135 -1 211
c0 6.66699 -1.33301 11.167 -4 13.5s-7 3.16602 -13 2.49902c-12.667 -1.33301 -37 -2.66602 -73 -3.99902c-10.667 -0.666992 -17 -2.16699 -19 -4.5s-2.66699 -8.83301 -2 -19.5c2 -60 3 -169.667 3 -329c0 -2.66699 -0.666992 -7.33398 -2 -14.001
c-9.33301 18.667 -31.333 71 -66 157s-60 150.333 -76 193c-1.33301 4.66699 -4.16602 8.16699 -8.49902 10.5s-8.5 3.66602 -12.5 3.99902s-6.66699 0.5 -8 0.5l-59 1c-6.66699 0 -11.334 -1.5 -14.001 -4.5s-4 -7.83301 -4 -14.5v-50
c0 -97.333 -0.333008 -200.666 -1 -309.999s-1 -185 -1 -227c0 -1.33301 1 -4.33301 3 -9s5.33301 -9 10 -13s10.334 -5.33301 17.001 -4c4.66699 0.666992 10.5 1.33398 17.5 2.00098s12.5 1 16.5 1c12 0 20.667 0.333008 26 1c8 0.666992 13.5 2.33398 16.5 5.00098
s4.5 8 4.5 16v215v82h4z" />
    <glyph glyph-name="o" unicode="o" horiz-adv-x="430" 
d="M339 460c0 55.333 -12.499 100.5 -37.499 135.5s-63.167 52.5 -114.5 52.5c-57.333 0 -102.333 -14.833 -135 -44.5s-49 -76.5 -49 -140.5v-152c0 -109.333 1 -170 3 -182c4.66699 -34 19.5 -65.667 44.5 -95s67.833 -44 128.5 -44c34 0 63.167 9 87.5 27
s42.666 39.833 54.999 65.5s18.5 49.5 18.5 71.5zM102.001 292.5c-0.666992 71 -0.998047 127.833 -0.998047 170.5c0 26.667 5.83301 47.5 17.5 62.5s30.167 22.5 55.5 22.5c42 0 63 -28 63 -84v-287c0 -25.333 -4.83301 -44.833 -14.5 -58.5s-26.834 -20.5 -51.501 -20.5
c-40 0 -62.333 26.667 -67 80c-0.666992 5.33301 -1.33398 43.5 -2.00098 114.5z" />
    <glyph glyph-name="p" unicode="p" horiz-adv-x="387" 
d="M223 263c56 19.333 84.002 68.665 84.002 147.998l-1 78c0 15.333 -4 34.333 -12 57s-23.833 43.667 -47.5 63s-57.5 29 -101.5 29h-115c-5.33301 0 -10.333 -1.66699 -15 -5s-7.33398 -8.66602 -8.00098 -15.999c-0.666992 -66 -1.16699 -162 -1.5 -288
s-0.5 -226 -0.5 -300c0 -9.33301 2.5 -16 7.5 -20s11.833 -5.33301 20.5 -4c2 0.666992 10.167 0.833984 24.5 0.500977s24.166 -0.5 29.499 -0.5c10.667 0.666992 16 7 16 19l3 222c60.667 5.33301 99.667 11 117 17zM135.502 546.499
c15.667 -0.333008 28.5 -1.49902 38.5 -3.49902s18 -8 24 -18s9 -20 9 -30v-94c0 -10 -3.33301 -20.5 -10 -31.5s-15 -18.167 -25 -21.5c-8.66699 -2.66699 -20.834 -4.83398 -36.501 -6.50098s-26.167 -2.5 -31.5 -2.5l1 208c4.66699 0 14.834 -0.166992 30.501 -0.5z" />
    <glyph glyph-name="q" unicode="q" horiz-adv-x="428" 
d="M329 304l-1.00293 193.999c0 30.667 -7 59.334 -21 86.001s-33.833 48.167 -59.5 64.5s-55.167 24.5 -88.5 24.5c-30.667 0 -57.5 -8 -80.5 -24s-40.833 -37.167 -53.5 -63.5s-19 -54.5 -19 -84.5l-3 -317c0 -78 17.333 -128.833 52 -152.5s68 -35.5 100 -35.5
c16.667 -0.666992 34 2 52 8h2c4.66699 0 8.33398 -1.33301 11.001 -4c8.66699 -9.33301 17.334 -20.666 26.001 -33.999c4.66699 -6.66699 10 -10 16 -10c4 0 7.66699 1.33301 11 4l43 28c10.667 8 16 15 16 21c0 5.33301 -3 12 -9 20l-23 29
c-2.66699 3.33301 -4 6.66602 -4 9.99902c0 4 1 8.33301 3 13s5.5 12 10.5 22s8.83301 19.167 11.5 27.5s4.33398 16.5 5.00098 24.5c2 20 3 69.667 3 149zM100.997 502.999c0 12 3.99902 26.833 11.999 44.5s25.667 26.5 53 26.5c43.333 0 65 -27 65 -81l-1 -294
c0 -10.667 -2.16699 -23.167 -6.5 -37.5s-11.166 -27 -20.499 -38s-21 -16.5 -35 -16.5c-21.333 0 -38 9.83301 -50 29.5s-18 42.5 -18 68.5z" />
    <glyph glyph-name="r" unicode="r" horiz-adv-x="449" 
d="M241.5 282c4.33301 1.33301 7.49902 2.33496 9.49902 3.00195c15.333 8 30.166 17 44.499 27s28.833 27.333 43.5 52s22 56 22 94c0 33.333 -8.33301 62.666 -25 87.999s-38.167 45 -64.5 59s-53.833 21 -82.5 21c-14.667 1.33301 -37 2 -67 2l-73 -1
c-11.333 0 -21.666 -3.33301 -30.999 -10s-14 -16.334 -14 -29.001l-1 -562c0 -13.333 3.66699 -21.333 11 -24c4 -1.33301 13 -2 27 -2c20.667 0 33.667 0.666992 39 2c8.66699 1.33301 14.334 3.33301 17.001 6s4 9.66699 4 21c0 144 0.333008 222.667 1 236
c11.333 0.666992 19.333 -0.666016 24 -3.99902s9 -9 13 -17l64.5 -134c29.667 -60.667 46.5 -94.334 50.5 -101.001c4 -10 9.66699 -15 17 -15c4 0 8 1 12 3c14 4 33.333 12 58 24c8.66699 4.66699 13 9.33398 13 14.001c0 3.33301 -1.66699 8.33301 -5 15l-36 70
c-45.333 85.333 -72.333 138 -81 158c2 1.33301 5.16699 2.66602 9.5 3.99902zM101.999 511.002c0 11.333 5.33301 16.998 16 16.998c9.33301 0.666992 23 1 41 1c23.333 -1.33301 45 -6.16602 65 -14.499s30 -27.166 30 -56.499c0 -20 -6 -36.667 -18 -50
s-25.333 -23 -40 -29s-24.667 -9 -30 -9c-5.33301 -0.666992 -11.333 -1 -18 -1c-3.33301 0 -7 0.166992 -11 0.5s-10 0.5 -18 0.5c-6 0 -10.167 1.5 -12.5 4.5s-3.5 7.5 -3.5 13.5v8c0 52.667 -0.333008 91 -1 115z" />
    <glyph glyph-name="s" unicode="s" horiz-adv-x="406" 
d="M39 264l-40.001 -0.00585938c-5.33301 0 -8.83301 -0.666992 -10.5 -2s-2.5 -4.66602 -2.5 -9.99902v-61c0 -26.667 0.333008 -47 1 -61c0.666992 -19.333 7.33398 -39.666 20.001 -60.999s31.167 -39.166 55.5 -53.499s53.166 -21.5 86.499 -21.5
c48.667 0 86 13.667 112 41s43.167 57 51.5 89s12.5 59.333 12.5 82c0 34 -8.5 64.333 -25.5 91s-33.667 46.667 -50 60s-35.166 27 -56.499 41c-3.33301 2 -6.83301 3.83301 -10.5 5.5s-6.83398 3.16699 -9.50098 4.5c-24 10.667 -43.5 21.667 -58.5 33
s-22.5 25.333 -22.5 42c0 22 6.66699 38 20 48s29.333 15 48 15c14.667 0 28.334 -5.66699 41.001 -17s21.667 -24.333 27 -39c0 -1.33301 2 -2.33301 6 -3s7 -0.333984 9 0.999023c14 7.33301 34.333 19 61 35c7.33301 5.33301 11 9.33301 11 12s-2 7 -6 13
c-0.666992 0.666992 -4.83398 9 -12.501 25s-24.167 32.167 -49.5 48.5s-54.333 24.5 -87 24.5c-36 0 -67.333 -7.66699 -94 -23s-47 -34.666 -61 -57.999s-21 -46.666 -21 -69.999c0 -32 6.5 -59.167 19.5 -81.5s28.5 -40.166 46.5 -53.499s41.333 -27.666 70 -42.999
c31.333 -17.333 54.5 -32.833 69.5 -46.5s22.5 -31.167 22.5 -52.5c0 -33.333 -3.5 -59.333 -10.5 -78s-21.5 -28 -43.5 -28c-20 0 -34.833 8.16699 -44.5 24.5s-15.5 31.833 -17.5 46.5c-0.666992 8 -1 21.333 -1 40c0 22 -1.33301 34 -4 36
c-3.33301 3.33301 -20.666 5 -51.999 5z" />
    <glyph glyph-name="t" unicode="t" horiz-adv-x="427" 
d="M47 524c20 0 38.002 0.666992 54.002 2h5c6.66699 0 10 -4 10 -12c-0.666992 -14 -0.333984 -99 0.999023 -255c0.666992 -74.667 1 -153.334 1 -236.001c0 -8.66699 1.5 -14.834 4.5 -18.501s8.16699 -5.5 15.5 -5.5c24.667 0 42 0.333008 52 1
c14 0.666992 23.167 2.83398 27.5 6.50098s6.5 11.834 6.5 24.501v315v170c0 2 0.833008 3.66699 2.5 5s3.16699 2 4.5 2h83c13.333 0 22.5 0.666992 27.5 2s7.5 4.33301 7.5 9l1 83c0 4.66699 -2.33301 7.66699 -7 9s-12.334 2 -23.001 2h-308c-6 0 -11.833 -2 -17.5 -6
s-8.16699 -10 -7.5 -18c0 -0.666992 0.166992 -2.5 0.5 -5.5s0.5 -8.16699 0.5 -15.5c0 -38.667 1.33301 -58 4 -58z" />
    <glyph glyph-name="u" unicode="u" 
d="M39.5 635c13.667 0.666992 30.167 0.99707 49.5 0.99707c5.33301 0 8.83301 -1.16699 10.5 -3.5s2.5 -6.16602 2.5 -11.499v-138v-312c0 -3.33301 1.5 -10.333 4.5 -21s8.83301 -20.834 17.5 -30.501s21 -14.5 37 -14.5s28 4.16699 36 12.5s13 16.833 15 25.5
s3.66699 20 5 34c0.666992 8.66699 1 49.334 1 122.001c0 207.333 -0.666992 313 -2 317c0 8 1.66699 13.5 5 16.5s7 4.66699 11 5s6.66699 0.5 8 0.5h56c1.33301 0 3.5 -0.666992 6.5 -2s6 -3.66602 9 -6.99902s4.5 -7.66602 4.5 -12.999
c1.33301 -38.667 2 -158.667 2 -360c0 -67.333 -0.333008 -103 -1 -107c-2.66699 -22.667 -9.33398 -46 -20.001 -70s-26.667 -44.5 -48 -61.5s-48 -25.5 -80 -25.5c-36.667 0 -67 8.16699 -91 24.5s-41.667 35.5 -53 57.5s-17 42 -17 60v323v139l-1 21
c0 11.333 1.66699 17 5 17c4.66699 0 13.834 0.333008 27.501 1z" />
    <glyph glyph-name="v" unicode="v" horiz-adv-x="436" 
d="M165 268l-3.00195 7.99805l-41.5 159.5l-46.5 175.5c-4 14.667 -12.667 20.334 -26 17.001l-68 -23c-8 -2 -10.667 -7 -8 -15c6.66699 -23.333 28.834 -106 66.501 -248l85.5 -326c1.33301 -5.33301 4.16602 -9.33301 8.49902 -12s8.83301 -3.33398 13.5 -2.00098
s10.334 2.33301 17.001 3s11.334 1 14.001 1c16 1.33301 28 3.33301 36 6c4 0.666992 6.66699 4.33398 8 11.001l69 276l74 289c0.666992 2 1 4.33301 1 7c0 7.33301 -4 12 -12 14l-73 16l-4 1c-5.33301 0 -9 -3.66699 -11 -11l-38 -136
c-34 -127.333 -53.333 -197.666 -58 -210.999h-4z" />
    <glyph glyph-name="w" unicode="w" horiz-adv-x="593" 
d="M478.5 640c-29 2.66699 -45.4971 3.33105 -49.4971 1.99805c-4 -2 -6.66699 -5 -8 -9c-8 -46 -18.5 -110.333 -31.5 -193l-27.5 -178c0 -0.666992 -0.5 -1.5 -1.5 -2.5s-1.83301 -0.166992 -2.5 2.5l-15 59l-18 72.5c-6.66699 27 -12.334 48.833 -17.001 65.5
c-0.666992 4.66699 -12.667 7 -36 7c-11.333 0 -21.333 -0.333008 -30 -1s-14.334 -1 -17.001 -1c-1.33301 0 -3.5 -0.666992 -6.5 -2s-4.83301 -2.66602 -5.5 -3.99902l-72 -228c0 -0.666992 -0.5 -1.5 -1.5 -2.5s-1.83301 0.166992 -2.5 3.5l-59 371
c-2.66699 12.667 -9.66699 17.334 -21 14.001c-22 -4.66699 -44.333 -10.667 -67 -18c-8 -2 -11.667 -7.66699 -11 -17c52 -332 81.333 -517.333 88 -556c1.33301 -6 4 -11.333 8 -16s8.33301 -7 13 -7c2 0 6.5 -0.333008 13.5 -1s17.167 -1 30.5 -1
c20.667 -0 33 2.33301 37 7c8.66699 7.33301 15 19.666 19 36.999c3.33301 11.333 20.333 62 51 152l12 34c0.666992 3.33301 1.66699 5.83301 3 7.5s2.33301 1.5 3 -0.5c4 -20 11.667 -52.667 23 -98l32 -123c2.66699 -12 11 -18 25 -18c13.333 0 23.333 0.333008 30 1
c20 0 35 0.333008 45 1c3.33301 0 6.66602 0.833008 9.99902 2.5s5.33301 3.5 6 5.5c3.33301 8.66699 20.833 113.834 52.5 315.501s46.5 304.167 44.5 307.5s-17.5 6.33301 -46.5 9z" />
    <glyph glyph-name="x" unicode="x" horiz-adv-x="427" 
d="M97 583l-23.002 44.001c-4 6 -8 9 -12 9s-7.66699 -1.33301 -11 -4c-15.333 -10.667 -30 -20.334 -44 -29.001l-17 -11c-6.66699 -4 -8.33398 -9.66699 -5.00098 -17l45 -84l68 -128c2.66699 -6.66699 4 -11.334 4 -14.001c0 -4.66699 -1.66699 -9.66699 -5 -15l-64 -132
l-71 -151c-2.66699 -5.33301 -4 -10.666 -4 -15.999c0 -12.667 7 -21.667 21 -27l46 -15c5.33301 -1.33301 9 -2 11 -2c7.33301 0 12.333 4.33301 15 13l62 134c30 64.667 46 97 48 97c0.666992 0 6.66699 -11.5 18 -34.5l27 -55.5l68 -136
c1.33301 -2.66699 4.33301 -5 9 -7s8.33398 -2.66699 11.001 -2c28.667 10.667 49.667 24.667 63 42c2 3.33301 3 7.33301 3 12s-0.333008 7.66699 -1 9l-50 103l-81 168c-2.66699 6 -4 12 -4 18s1.33301 11.667 4 17l100 218c2.66699 4.66699 4 8.66699 4 12
c0 5.33301 -4.66699 9.33301 -14 12c-3.33301 0 -10.666 2.33301 -21.999 7l-37 11l-6 1c-8 0 -14.333 -4 -19 -12l-24 -49l-27.5 -57c-14.333 -30 -22.166 -45 -23.499 -45c-2 0 -22.667 38.667 -62 116z" />
    <glyph glyph-name="y" unicode="y" horiz-adv-x="427" 
d="M83 591l-17.9941 33.9971c-4.66699 6 -10.334 7.66699 -17.001 5l-52 -29c-6.66699 -4 -11.167 -7.16699 -13.5 -9.5s-3.5 -5.16602 -3.5 -8.49902c0 -4 2 -10 6 -18c9.33301 -19.333 26 -51.833 50 -97.5l57 -106.5c19.333 -33.333 28.666 -69.666 27.999 -108.999
c-1.33301 -30 -2 -105 -2 -225c0 -17.333 8.66699 -26 26 -26h51c6 0 11.667 2.66699 17 8s7.66602 13 6.99902 23c0 3.33301 0.5 34.333 1.5 93s1.5 108 1.5 148c0 20.667 4.66699 39 14 55c15.333 26 58.333 106.333 129 241c2 4 3 7 3 9c0 4.66699 -3 8 -9 10
c-25.333 10.667 -48 19.334 -68 26.001h-1c-2.66699 0 -5.33398 -0.666992 -8.00098 -2s-4.33398 -3 -5.00098 -5l-33 -62c-42.667 -82 -65.334 -123 -68.001 -123c-3.33301 0 -34.333 56.333 -93 169z" />
    <glyph glyph-name="z" unicode="z" horiz-adv-x="438" 
d="M227.5 528.5c-0.333008 -1.66699 -0.835938 -2.83008 -1.50293 -3.49707l-127 -249.5c-62 -121.667 -93.667 -184.834 -95 -189.501c-1.33301 -10.667 -2 -19.334 -2 -26.001l1 -37c0 -10 1.33301 -16.5 4 -19.5s8.66699 -4.5 18 -4.5c10.667 -0.666992 60.667 -1 150 -1
h141c15.333 0 23.333 6 24 18v21c0 4.66699 -0.166992 10.5 -0.5 17.5s-0.166016 15.167 0.500977 24.5c0 13.333 -7 20 -21 20l-136 -1c-36 0 -54.333 0.666992 -55 2c-1.33301 2 26.667 59.167 84 171.5l131 254.5c6 9.33301 9.33301 15.666 10 18.999
c0.666992 12 1 33.667 1 65c0 6.66699 -2.83301 11.5 -8.5 14.5s-12.167 4.5 -19.5 4.5h-31c-66.667 -1.33301 -137.667 -2 -213 -2l-57 1c-5.33301 0 -9.16602 -1 -11.499 -3s-3.83301 -5.33301 -4.5 -10c-0.666992 -6.66699 -1 -25.667 -1 -57
c0 -15.333 6.66699 -24.333 20 -27h196c2.66699 0 3.83398 -0.833008 3.50098 -2.5z" />
    <glyph glyph-name="exclamdown" unicode="&#xa1;" horiz-adv-x="197" 
d="M106 579c0 12.667 -0.332031 21.333 -0.999023 26c-0.666992 11.333 -7 17.666 -19 18.999c-3.33301 0.666992 -9 1 -17 1c-11.333 0 -21.166 -0.333008 -29.499 -1s-14.5 -1 -18.5 -1c-6 0 -10.667 -2.5 -14 -7.5s-5 -12.5 -5 -22.5l1 -29c0.666992 -6 1 -15 1 -27
c0.666992 -7.33301 2.16699 -12 4.5 -14s6.83301 -2.66699 13.5 -2c9.33301 1.33301 19.666 1.83301 30.999 1.5s19.333 -0.5 24 -0.5c11.333 0.666992 18.666 1.33398 21.999 2.00098s5.5 2.66699 6.5 6s1.16699 10 0.5 20v29zM46.501 -10.501
c14.333 -0.333008 26.835 -0.166016 37.502 0.500977c14 0 21 6.66699 21 20c0.666992 43.333 1 174.333 1 393c0 5.33301 -1 10.166 -3 14.499s-5 6.5 -9 6.5h-77c-0.666992 0 -1.83398 -0.5 -3.50098 -1.5s-3.33398 -3.16699 -5.00098 -6.5s-2.5 -8 -2.5 -14v-70l1 -323
c0 -12.667 4.66699 -19 14 -19c2.66699 0 11.167 -0.166992 25.5 -0.5z" />
    <glyph glyph-name="currency" unicode="&#xa4;" horiz-adv-x="396" 
d="M249 302c24 15.333 42.835 35.999 56.502 61.999s20.5 54.667 20.5 86s-7.66699 61.333 -23 90s-36 51.667 -62 69s-53.667 26 -83 26h-64c-40.667 0 -63.334 -0.333008 -68.001 -1c-9.33301 -0.666992 -15.666 -2.5 -18.999 -5.5s-5 -8.5 -5 -16.5l-1 -496v-91
c0 -16 4.66699 -24 14 -24l27 -1c11.333 0 25 0.666992 41 2c12.667 0 19 5.33301 19 16c0 64 -0.333008 101.667 -1 113c0 3.33301 1 6.5 3 9.5s4.33301 4.5 7 4.5l147 1c1.33301 0 3.66602 0.833008 6.99902 2.5s6.66602 3.83398 9.99902 6.50098s5 6 5 10v39
c0 4 -1.16699 7 -3.5 9s-4.83301 3 -7.5 3h-5l-155 -1c-4 0 -6.83301 0.5 -8.5 1.5s-2.5 3.5 -2.5 7.5v55h70c30 0 57 7.66699 81 23zM99.002 538.999h37.002c18 -1.33301 38 -8 60 -20s33 -32.333 33 -61c0 -20.667 -5.33301 -37 -16 -49s-22.834 -20.5 -36.501 -25.5
s-24.834 -7.5 -33.501 -7.5l-22 -1l-22 1v163z" />
    <glyph glyph-name="copyright" unicode="&#xa9;" horiz-adv-x="679" 
d="M73.5 66.5c42.333 -49.667 108.833 -74.501 199.5 -74.501c104.667 0 181.667 26.333 231 79s74 134 74 244c0 92.667 -20.167 168.834 -60.5 228.501s-117.5 89.5 -231.5 89.5c-108 0 -181 -31.167 -219 -93.5s-57 -143.5 -57 -243.5
c0 -103.333 21.167 -179.833 63.5 -229.5zM133.5 495.999c34.333 46 82.1641 69 143.497 69s108.333 -11.667 141 -35s54.334 -54 65.001 -92s16 -85.333 16 -142c0 -75.333 -17.667 -134 -53 -176s-87.666 -63 -156.999 -63c-59.333 0 -108.666 17.333 -147.999 52
s-59 103 -59 205c0 75.333 17.167 136 51.5 182zM182.498 191.999c16.333 -18.667 34.6689 -31.5 55.002 -38.5s36.833 -10.5 49.5 -10.5c40.667 0 72.334 10.667 95.001 32s34 50.666 34 87.999c0 4 -0.5 6.66699 -1.5 8s-3.5 2 -7.5 2h-58c-2.66699 0 -4 -2 -4 -6
c0 -17.333 -4.33301 -31 -13 -41s-22 -15 -40 -15c-19.333 0 -34.833 5.83301 -46.5 17.5s-17.5 26.5 -17.5 44.5v70c0 13.333 4.5 28 13.5 44s24.833 24 47.5 24c20 0 34.167 -6.33301 42.5 -19s12.5 -26.334 12.5 -41.001c0 -4 3.33301 -6 10 -6h52
c3.33301 0 5.83301 1.5 7.5 4.5s2.5 6.16699 2.5 9.5c0 28.667 -10.333 55.334 -31 80.001s-55.334 37 -104.001 37c-28.667 0 -51.834 -7.83301 -69.501 -23.5s-30.334 -32.667 -38.001 -51s-12.167 -33.166 -13.5 -44.499s-2 -41.333 -2 -90
c0 -31.333 8.16699 -56.333 24.5 -75z" />
    <glyph glyph-name="guillemotleft" unicode="&#xab;" horiz-adv-x="534" 
d="M7 274c0 -4 1.50098 -7.66895 4.50098 -11.002s4.83301 -5.33301 5.5 -6l90 -95l69 -76c6 -7.33301 13 -11 21 -11c6.66699 0 13 3.33301 19 10c4 4 14.333 13 31 27c5.33301 4.66699 9.16602 8.33398 11.499 11.001s3.5 5.66699 3.5 9
c0 4.66699 -3.66699 11.334 -11 20.001l-54 57l-57 63c-2.66699 1.33301 -4 3.33301 -4 6c0 2 1.66699 5.33301 5 10c10 10 35.667 37.333 77 82l16 18c5.33301 5.33301 8 10.333 8 15s-3.66699 9.66699 -11 15c-11.333 8 -27.666 20.667 -48.999 38
c-4.66699 3.33301 -8.33398 5 -11.001 5s-6 -2 -10 -6l-79.5 -90l-67.5 -78c-4.66699 -4.66699 -7 -9 -7 -13zM361.001 273.998c0 3.33301 1.33008 5.99902 3.99707 7.99902s4.33398 3.33301 5.00098 4c4 4.66699 11.333 12.334 22 23.001l66 69
c4.66699 4.66699 7 8.33398 7 11.001c0 4 -3.33301 8 -10 12l-59 44c-0.666992 0.666992 -2 1 -4 1s-4 -1 -6 -3l-16 -17c-69.333 -71.333 -109.666 -112.333 -120.999 -123c-9.33301 -9.33301 -14 -17.333 -14 -24c0 -3.33301 1.66699 -7.33301 5 -12l50 -59
c50 -56.667 82 -94.334 96 -113.001c7.33301 -8 14.333 -12 21 -12c5.33301 0 11.333 2.33301 18 7c4.66699 3.33301 10.334 8 17.001 14s12.667 10.667 18 14c9.33301 6 14 12.333 14 19c0 3.33301 -1.66699 7.66602 -5 12.999c-4.66699 6 -20 23.5 -46 52.5l-58 63.5
c-2.66699 2.66699 -4 5.33398 -4 8.00098z" />
    <glyph glyph-name="registered" unicode="&#xae;" horiz-adv-x="564" 
d="M38.5 249.5c19 -35 46.668 -63.333 83.001 -85s78.833 -32.5 127.5 -32.5c65.333 0 118.166 19.5 158.499 58.5s60.5 97.167 60.5 174.5c0 39.333 -6.33301 79.333 -19 120s-35.5 75.5 -68.5 104.5s-77.833 43.5 -134.5 43.5c-90 0 -151.833 -27 -185.5 -81
s-50.5 -117.667 -50.5 -191c0 -39.333 9.5 -76.5 28.5 -111.5zM118.501 518.5c29 33 68.5 49.5 118.5 49.5c60.667 0 102.334 -17.5 125.001 -52.5s34 -85.167 34 -150.5c0 -53.333 -13 -95.166 -39 -125.499s-62 -45.5 -108 -45.5c-56.667 0 -99.834 16.167 -129.501 48.5
s-44.5 79.166 -44.5 140.499c0 57.333 14.5 102.5 43.5 135.5zM152.001 266c0 -2 2.00195 -3.16699 6.00195 -3.5s11.333 -0.5 22 -0.5c5.33301 0 11.333 0.5 18 1.5s10 1.83301 10 2.5v88h32l40 -91c2 -4 4.33301 -5.33301 7 -4l40 17
c1.33301 0.666992 2.16602 1.5 2.49902 2.5s0.166016 2.16699 -0.500977 3.5l-42 76c19.333 4.66699 32.5 12.167 39.5 22.5s10.5 25.5 10.5 45.5c0 48.667 -37 73 -111 73h-54c-12 0 -18 -5.66699 -18 -17zM210.503 444.5c1.66699 2.33301 5.16602 3.5 10.499 3.5h27
c12.667 0 21.834 -2.5 27.501 -7.5s8.5 -12.5 8.5 -22.5c0 -8 -4.16699 -14.167 -12.5 -18.5s-19.833 -6.5 -34.5 -6.5h-29v33c0 10 0.833008 16.167 2.5 18.5z" />
    <glyph glyph-name="guillemotright" unicode="&#xbb;" horiz-adv-x="463" 
d="M434 278c0 2.66699 -1.66797 6.66602 -5.00098 11.999s-5.66602 9.33301 -6.99902 12c-2 5.33301 -24 36 -66 92l-38 53c-4 4.66699 -8 7 -12 7c-2.66699 0 -6 -1 -10 -3l-34 -23.5c-12 -8.33301 -20.667 -14.833 -26 -19.5c-3.33301 -1.33301 -5 -4.33301 -5 -9
c0 -3.33301 1.33301 -6.33301 4 -9c4 -5.33301 14 -18 30 -38c26.667 -34.667 41 -53.667 43 -57c6.66699 -9.33301 10 -16.333 10 -21c0 -4 -3.66699 -11 -11 -21l-44 -57.5c-22 -29 -39.333 -53.167 -52 -72.5c-2.66699 -3.33301 -4 -7.66602 -4 -12.999
c0 -8 3.33301 -14.333 10 -19c13.333 -7.33301 27 -16 41 -26c10 -6.66699 17 -10 21 -10c4.66699 0 10.667 4.66699 18 14c14 18.667 37.667 53 71 103l55 80c7.33301 11.333 11 20 11 26zM17.999 377.999c0 -3.33301 1.99902 -6.99707 5.99902 -10.9971l71 -99
c2.66699 -4 4 -7 4 -9c0 -2.66699 -1.66699 -6.33398 -5 -11.001l-85 -104c-3.33301 -4.66699 -5 -8.33398 -5 -11.001c0 -5.33301 3 -10 9 -14l18 -14.5c8.66699 -7 15.667 -13.167 21 -18.5c10.667 -9.33301 18 -14 22 -14c4.66699 0 11 5 19 15
c8.66699 10.667 34.667 45.667 78 105c34.667 46 51.334 68.333 50.001 67c2 2 3 4.33301 3 7c0 4 -2 7.33301 -6 10l-51.5 67.5l-65.5 88.5c-3.33301 4 -6.33301 6 -9 6c-2 0 -4.33301 -1.33301 -7 -4c-8 -5.33301 -29 -21.333 -63 -48
c-2.66699 -2.66699 -4 -5.33398 -4 -8.00098z" />
    <glyph glyph-name="Aacute" unicode="&#xc1;" horiz-adv-x="462" 
d="M207 724c2 -0.666992 4.33496 -0.999023 7.00195 -0.999023c2 0 3.5 0.666992 4.5 2s2.16699 3.33301 3.5 6c0.666992 2 5 11.667 13 29c23.333 48 39.666 87.333 48.999 118c0.666992 2 1 4.33301 1 7c0 5.33301 -4.66699 9.33301 -14 12c-6 2 -17.167 4.5 -33.5 7.5
s-29.833 5.16699 -40.5 6.5h-6c-4 0 -6.66699 -2.66699 -8 -8l-12.5 -84.5c-5.66699 -39 -8.83398 -64.833 -9.50098 -77.5c0 -6.66699 15.333 -12.334 46 -17.001zM369.002 18.501c1.33301 3 1.33203 7.16895 -0.000976562 12.502
c-10 57.333 -31.167 164.666 -63.5 321.999s-52.833 247.333 -61.5 270c-2 4 -4.16699 6.5 -6.5 7.5s-6.5 1.5 -12.5 1.5c-4.66699 0.666992 -12 1 -22 1l-47 -1c-7.33301 0 -14.333 -4 -21 -12c-2.66699 -3.33301 -24.167 -81.333 -64.5 -234l-87.5 -335
c-4 -14.667 4.33301 -24.667 25 -30c2.66699 -0.666992 15.334 -4.66699 38.001 -12s35.667 -9.33301 39 -6c2.66699 2.66699 8.16699 22 16.5 58s13.166 57.333 14.499 64l5 22c0.666992 3.33301 17.667 5 51 5l46 -1h4c4 0 6.83301 -0.833008 8.5 -2.5
s3.16699 -4.83398 4.5 -9.50098l24 -130c0 -3.33301 1.83301 -7.83301 5.5 -13.5s9.83398 -7.16699 18.501 -4.5l77 21c4.66699 1.33301 7.66699 3.5 9 6.5zM159.001 338.003c10.667 54 18.666 92.667 23.999 116c2 5.33301 3.16699 6.83301 3.5 4.5
s0.833008 -3.83301 1.5 -4.5c0 -1.33301 4.66699 -39 14 -113c6 -51.333 9 -77.333 9 -78v-5c0 -4 -0.833008 -6 -2.5 -6h-2.5c-4.66699 -0.666992 -13 -1 -25 -1c-22.667 0 -34.667 1 -36 3s3.33398 30 14.001 84z" />
    <glyph glyph-name="Adieresis" unicode="&#xc4;" horiz-adv-x="462" 
d="M242 681.5c-2 2.33301 -3.00098 4.83594 -3.00098 7.50293c0 10 -0.333008 17.667 -1 23l-1 23l1 15c1.33301 11.333 7.33301 17.333 18 18l53 3c9.33301 0 15.666 -0.333008 18.999 -1s5.33301 -2.66699 6 -6s1.33398 -10.333 2.00098 -21
c0 -6 -0.166992 -13.333 -0.5 -22s-0.166016 -19 0.500977 -31v-4c0 -4.66699 -1 -7.83398 -3 -9.50098s-6 -2.83398 -12 -3.50098c-11.333 0 -20 -0.333008 -26 -1l-26 -1c-9.33301 0 -16.333 1.66699 -21 5c-2 1.33301 -4 3.16602 -6 5.49902zM60.999 740.003
c0 13.333 1.33203 21.5 3.99902 24.5s10.667 4.83301 24 5.5c6 0 13.333 -0.166992 22 -0.5s19 -0.166016 31 0.500977h4c4.66699 0 7.83398 -1 9.50098 -3s2.83398 -6 3.50098 -12l1 -26c0.666992 -6 1 -15 1 -27c0 -6.66699 -1.66699 -13.334 -5 -20.001
c-1.33301 -2 -3.33301 -4 -6 -6s-5 -3 -7 -3l-42 -1c-8.66699 0 -15.334 0.333008 -20.001 1s-8.66699 2.5 -12 5.5s-5.33301 7.16699 -6 12.5c0 10 -0.666992 26.333 -2 49zM390.998 30.0029c0 -6.66699 -1.99805 -12.001 -5.99805 -16.001s-10.667 -7.33301 -20 -10
c-13.333 -4.66699 -27 -8.66699 -41 -12c-5.33301 -1.33301 -9 -2 -11 -2c-4.66699 0 -8.33398 1.5 -11.001 4.5s-4.66699 7.83301 -6 14.5l-22 102c-2 7.33301 -7 11 -15 11l-111 -1c-2.66699 0 -5.33398 -1.16699 -8.00098 -3.5s-4.66699 -4.83301 -6 -7.5
c-2.66699 -6.66699 -6.66699 -20.834 -12 -42.501s-8.66602 -34.5 -9.99902 -38.5c-4 -10 -8.5 -17.167 -13.5 -21.5s-11.5 -6.5 -19.5 -6.5c-2.66699 0 -8 0.666992 -16 2c-8.66699 2 -16.334 3.33301 -23.001 4s-12 1.33398 -16 2.00098c-7.33301 1.33301 -12.5 4 -15.5 8
s-3.5 9.33301 -1.5 16l48 187l104 402c2 0 18.833 0.166992 50.5 0.5s48.167 -2.16699 49.5 -7.5c4.66699 -15.333 19 -76.666 43 -183.999l46 -204l40 -178c2 -8 3 -14.333 3 -19zM246.5 220.002c2.33301 1.33301 3.50293 3.99902 3.50293 7.99902
c0 4.66699 -0.333008 8.33398 -1 11.001c-1.33301 5.33301 -6 32.666 -14 81.999l-9 53c-6.66699 33.333 -12.334 50 -17.001 50c-1.33301 0 -3.33301 -4 -6 -12c-2.66699 -10 -9.33398 -41 -20.001 -93c-8.66699 -41.333 -15.334 -71.666 -20.001 -90.999l-1 -5
c0 -4.66699 3 -7 9 -7c16 0 36.667 0.666992 62 2c6.66699 0 11.167 0.666992 13.5 2z" />
    <glyph glyph-name="Eacute" unicode="&#xc9;" horiz-adv-x="406" 
d="M168 724c2 -0.666992 4.33398 -0.999023 7.00098 -0.999023c2 0 3.5 0.666992 4.5 2s2.16699 3.33301 3.5 6c2 7.33301 6.66699 17.333 14 30l20 45c10.667 24 20 48 28 72c0.666992 2 1 4.33301 1 7c0 5.33301 -4.66699 9.33301 -14 12c-6 2 -17.167 4.5 -33.5 7.5
s-29.833 5.16699 -40.5 6.5h-6c-2.66699 0 -4.5 -0.5 -5.5 -1.5s-1.83301 -3.16699 -2.5 -6.5l-12.5 -84.5c-5.66699 -39 -8.83398 -64.833 -9.50098 -77.5c0 -6.66699 15.333 -12.334 46 -17.001zM320.001 569.501l-0.00292969 25.502c0 19.333 -9.66699 29 -29 29h-183
h-80c-4.66699 0 -9.16699 -2.66699 -13.5 -8s-6.5 -10.333 -6.5 -15c-0.666992 -19.333 -1 -213.333 -1 -582c0 -5.33301 1 -9.33301 3 -12s6 -4 12 -4l271 1c6 0 11.167 1 15.5 3s6.5 5 6.5 9l3 82c0 4 -1.66699 7.16699 -5 9.5s-10 3.5 -20 3.5
c-102 0 -158 -0.333008 -168 -1c0 2 -0.333008 14.167 -1 36.5s-1 47.5 -1 75.5c0 22.667 0.666992 46.667 2 72c0 8.66699 4.33301 13 13 13l111 2c2.66699 0 7.83398 0.666992 15.501 2s12.834 3.66602 15.501 6.99902c2.66699 9.33301 4.16699 20 4.5 32s0.5 20 0.5 24v3
c0 16 -4.33301 24.667 -13 26c-8.66699 2 -41.667 3 -99 3h-50c0 45.333 0.333008 76.666 1 93.999c1.33301 10.667 3 17 5 19s8.33301 2.66699 19 2c10 -0.666992 33.333 -1 70 -1h57c4.66699 -0.666992 11.334 -1 20.001 -1c11.333 0 18.333 3.33301 21 10
c2.66699 11.333 4 24.833 4 40.5z" />
    <glyph glyph-name="Iacute" unicode="&#xcd;" horiz-adv-x="238" 
d="M25.5 730.5c7 -2.33301 14.0029 -4.16602 21.0029 -5.49902s11.833 -2.33301 14.5 -3l7 -1c2.66699 0 5.33398 2.66699 8.00098 8c-0.666992 -1.33301 3.66602 8.66699 12.999 30c20.667 43.333 37 82.666 49 117.999c0.666992 1.33301 1 3.33301 1 6
c0 6 -4.66699 10.333 -14 13l-40 8c-16.667 3.33301 -28 5.33301 -34 6c-5.33301 0 -8.83301 -0.5 -10.5 -1.5s-2.83398 -3.5 -3.50098 -7.5c-2.66699 -16.667 -6.83398 -44.5 -12.501 -83.5s-8.83398 -64.833 -9.50098 -77.5c0 -4 3.5 -7.16699 10.5 -9.5zM107.003 8.5
c1.33301 5.66699 1.99902 14.499 1.99902 26.499v188c0 227.333 0.666992 358 2 392c0 8.66699 -3.66699 13 -11 13c-34 2 -52 3 -54 3c-7.33301 0 -13.166 0.333008 -17.499 1s-7.83301 1 -10.5 1c-6 0 -9.5 -2.16699 -10.5 -6.5s-1.83301 -16.166 -2.5 -35.499v-83v-374
v-112v-2c0 -8 1.16699 -13.5 3.5 -16.5s4.83301 -4.5 7.5 -4.5s4.66699 0.333008 6 1c4.66699 -0.666992 13.334 -1 26.001 -1l49 1c5.33301 -0 8.66602 2.83301 9.99902 8.5z" />
    <glyph glyph-name="Oacute" unicode="&#xd3;" horiz-adv-x="430" 
d="M130 817l-10 -76.001c0 -4 3.5 -7.16699 10.5 -9.5s14 -4.16602 21 -5.49902s11.833 -2.33301 14.5 -3l7 -1c2.66699 0 5.33398 2.66699 8.00098 8c0 -0.666992 4.33301 9.33301 13 30c20.667 43.333 37 82.666 49 117.999c0.666992 1.33301 1 3.33301 1 6
c0 6 -4.66699 10.333 -14 13l-40 8c-16.667 3.33301 -28 5.33301 -34 6c-5.33301 0 -8.83301 -0.5 -10.5 -1.5s-2.83398 -3.5 -3.50098 -7.5c-3.33301 -21.333 -7.33301 -49.666 -12 -84.999zM339 451.999c0 55.333 -12.499 100.5 -37.499 135.5s-63.167 52.5 -114.5 52.5
c-57.333 0 -102.333 -14.833 -135 -44.5s-49 -76.5 -49 -140.5v-147c0 -105.333 1 -164 3 -176c4.66699 -34 19.5 -65.667 44.5 -95s67.833 -44 128.5 -44c34 0 63.167 9 87.5 27s42.666 39.833 54.999 65.5s18.5 49.5 18.5 71.5zM102.001 290.999
c-0.666992 68 -0.998047 122.667 -0.998047 164c0 26.667 5.83301 47.5 17.5 62.5s30.167 22.5 55.5 22.5c42 0 63 -28 63 -84v-276c0 -25.333 -4.83301 -44.833 -14.5 -58.5s-26.834 -20.5 -51.501 -20.5c-40 0 -62.333 26.667 -67 80
c-0.666992 5.33301 -1.33398 42 -2.00098 110z" />
    <glyph glyph-name="Otilde" unicode="&#xd5;" horiz-adv-x="430" 
d="M72 689c5.33301 0 9.33496 2.66699 12.002 8c0 0.666992 1.66699 6.5 5 17.5s15.333 16.5 36 16.5c8 0 15 -1.5 21 -4.5s13 -7.5 21 -13.5c12 -8.66699 23.5 -15.5 34.5 -20.5s25.5 -7.5 43.5 -7.5s34.333 4.83301 49 14.5s26.5 20.5 35.5 32.5s14.167 21 15.5 27
c2.66699 7.33301 2.33398 12.333 -0.999023 15c-4.66699 4.66699 -10.667 10 -18 16s-14 11 -20 15c-6.66699 4 -11.667 6 -15 6s-7 -2.66699 -11 -8c-0.666992 -1.33301 -2.16699 -4.16602 -4.5 -8.49902s-6.33301 -8.83301 -12 -13.5s-12.834 -7.33398 -21.501 -8.00098
s-16.334 0.5 -23.001 3.5s-15 7.83301 -25 14.5c-13.333 8.66699 -25.833 15.334 -37.5 20.001s-26.5 6.66699 -44.5 6c-22.667 -2 -40.834 -9.5 -54.501 -22.5s-23.5 -26.333 -29.5 -40s-9 -22.167 -9 -25.5c-0.666992 -0.666992 -1 -2.33398 -1 -5.00098
c0 -5.33301 3.33301 -9 10 -11l20.5 -12.5l17.5 -10.5c1.33301 -0.666992 3.33301 -1 6 -1zM339.002 452c0 55.333 -12.499 100.5 -37.499 135.5s-63.167 52.5 -114.5 52.5c-57.333 0 -102.333 -14.833 -135 -44.5s-49 -76.5 -49 -140.5l-1 -147
c0 -101.333 1.33301 -160 4 -176c4.66699 -34 19.5 -65.667 44.5 -95s67.833 -44 128.5 -44c34 0 63.167 9 87.5 27s42.666 39.833 54.999 65.5s18.5 49.5 18.5 71.5zM102.003 291c-0.666992 68 -0.998047 122.667 -0.998047 164c0 26.667 5.83301 47.5 17.5 62.5
s30.167 22.5 55.5 22.5c42 0 63 -27.333 63 -82v-278c0 -25.333 -4.83301 -44.833 -14.5 -58.5s-26.834 -20.5 -51.501 -20.5c-40 0 -62.333 26.667 -67 80c-0.666992 5.33301 -1.33398 42 -2.00098 110z" />
    <glyph glyph-name="Odieresis" unicode="&#xd6;" horiz-adv-x="443" 
d="M208 729c0 10 -0.333984 17.668 -1.00098 23.001l-1 23l1 15c1.33301 11.333 7.33301 17.333 18 18l53 3c9.33301 0 15.666 -0.333008 18.999 -1s5.33301 -2.66699 6 -6s1.33398 -10.333 2.00098 -21c0 -6 -0.166992 -13.333 -0.5 -22s-0.166016 -19 0.500977 -31v-4
c0 -4.66699 -1 -7.83398 -3 -9.50098s-6 -2.83398 -12 -3.50098c-11.333 0 -20 -0.333008 -26 -1l-26 -1c-8.66699 0 -15.667 1.33301 -21 4c-6 4.66699 -9 9.33398 -9 14.001zM40.999 780.001c0 13.333 1.33203 21.5 3.99902 24.5s10.667 4.83301 24 5.5
c6 0 13.333 -0.166992 22 -0.5s19 -0.166016 31 0.500977h4c4.66699 0 7.83398 -1 9.50098 -3s2.5 -6 2.5 -12c0.666992 -6 1.33398 -13.333 2.00098 -22s1 -19 1 -31c0 -6.66699 -1.66699 -13.334 -5 -20.001c-1.33301 -2 -3.33301 -4 -6 -6s-5 -3 -7 -3l-42 -1
c-8.66699 0 -15.334 0.333008 -20.001 1s-8.66699 2.5 -12 5.5s-5.33301 7.16699 -6 12.5c0 10 -0.666992 26.333 -2 49zM352.498 323.001c0.333008 -70.667 0.501953 -128.332 0.501953 -172.999c0 -18.667 -6.33301 -42 -19 -70s-32 -52.667 -58 -74s-58.333 -32 -97 -32
c-74 0 -121 22 -141 66s-30 88.333 -30 133l-1 58c-2 114 -3 181 -3 201c0 32.667 0.666992 53 2 61c7.33301 30.667 15.666 56.667 24.999 78s27.166 41.5 53.499 60.5s63.5 28.5 111.5 28.5c40 0 71.5 -10.167 94.5 -30.5s38.833 -43 47.5 -68s13 -46.833 13 -65.5
c0.666992 -44.667 1.16699 -102.334 1.5 -173.001zM242.5 256.503c1 58.333 1.50098 111.834 1.50098 160.501c0 33.333 -0.333008 51 -1 53c-1.33301 13.333 -3.5 25 -6.5 35s-8.16699 19.333 -15.5 28c-12 14 -26 21 -42 21c-10 0 -19.167 -2.5 -27.5 -7.5
s-14.833 -12.167 -19.5 -21.5c-9.33301 -16.667 -15 -34 -17 -52c-1.33301 -7.33301 -2 -44 -2 -110v-144v-55c0 -20 4.16699 -35 12.5 -45s22.166 -17 41.499 -21c2 -0.666992 5.33301 -1 10 -1c14 0 27.333 4.83301 40 14.5s19.667 21.167 21 34.5
c2 15.333 3.5 52.166 4.5 110.499z" />
    <glyph glyph-name="Uacute" unicode="&#xda;" 
d="M130 817l-10 -76.001c0 -4 3.5 -7.16699 10.5 -9.5s14 -4.16602 21 -5.49902s11.833 -2.33301 14.5 -3l7 -1c2.66699 0 5.33398 2.66699 8.00098 8c0 -0.666992 4.33301 9.33301 13 30c20.667 43.333 37 82.666 49 117.999c0.666992 1.33301 1 3.33301 1 6
c0 6 -4.66699 10.333 -14 13l-40 8c-16.667 3.33301 -28 5.33301 -34 6c-5.33301 0 -8.83301 -0.5 -10.5 -1.5s-2.83398 -3.5 -3.50098 -7.5c-3.33301 -21.333 -7.33301 -49.666 -12 -84.999zM7 616.999v16.0029l1 -499c0 -18 5.66699 -38 17 -60s29 -41.167 53 -57.5
s54.333 -24.5 91 -24.5c32 0 58.667 8.5 80 25.5s37.333 37.5 48 61.5s17.334 47.333 20.001 70c0.666992 4 1 39.667 1 107c0 201.333 -0.666992 321.333 -2 360c0 5.33301 -1.5 9.66602 -4.5 12.999s-6 5.66602 -9 6.99902s-5.16699 2 -6.5 2h-56
c-1.33301 0 -4 -0.166992 -8 -0.5s-7.66699 -2 -11 -5s-5 -8.5 -5 -16.5c1.33301 -4 2 -109.667 2 -317c0 -72.667 -0.333008 -113.334 -1 -122.001c-1.33301 -14 -3 -25.333 -5 -34s-7 -17.167 -15 -25.5s-20 -12.5 -36 -12.5s-28.333 4.83301 -37 14.5
s-14.5 19.834 -17.5 30.501s-4.5 17.667 -4.5 21v312v138c0 5.33301 -0.833008 9.16602 -2.5 11.499s-5.16699 3.5 -10.5 3.5c-19.333 0 -35.833 -0.333008 -49.5 -1s-22.834 -1 -27.501 -1c-3.33301 0 -5 -5.66699 -5 -17z" />
    <glyph glyph-name="Udieresis" unicode="&#xdc;" 
d="M197 707l-1 15.001l1 23c0.666992 5.33301 1 13 1 23c0 4.66699 3 9.33398 9 14.001c6.66699 3.33301 13.667 5 21 5l52 -3c6 -0.666992 10 -1.83398 12 -3.50098s3 -4.83398 3 -9.50098v-56c-0.666992 -10.667 -1.33398 -17.667 -2.00098 -21s-2.66699 -5.5 -6 -6.5
s-9.66602 -1.5 -18.999 -1.5l-53 3c-10.667 0.666992 -16.667 6.66699 -18 18zM35 692.501c-2.66699 3 -4 11.1699 -4 24.5029c1.33301 22.667 2 39 2 49c0.666992 5.33301 2.66699 9.5 6 12.5s7.33301 4.83301 12 5.5s11.334 1 20.001 1l42 -1c2 0 4.5 -0.833008 7.5 -2.5
s4.83301 -3.83398 5.5 -6.50098c3.33301 -6.66699 5 -13.334 5 -20.001c0 -12 -0.333008 -22.333 -1 -31s-1.33398 -16 -2.00098 -22c0 -6.66699 -1 -10.834 -3 -12.501s-6.33301 -2.5 -13 -2.5c-4 0.666992 -10 1 -18 1l-35 -1c-13.333 0.666992 -21.333 2.5 -24 5.5z
M318 256.004c0 -67.333 -0.333008 -103.003 -1 -107.003c-2.66699 -22.667 -9.33398 -46 -20.001 -70s-26.667 -44.5 -48 -61.5s-48 -25.5 -80 -25.5c-36.667 0 -67 8.16699 -91 24.5s-41.667 35.5 -53 57.5s-17 42 -17 60v323v139l-1 21c0 11.333 1.66699 17 5 17
c4.66699 0 13.834 0.333008 27.501 1s30.167 1 49.5 1c5.33301 0 8.83301 -1.16699 10.5 -3.5s2.5 -6.16602 2.5 -11.499v-138v-312c0 -3.33301 1.5 -10.333 4.5 -21s8.83301 -20.834 17.5 -30.501s21 -14.5 37 -14.5s28 4.16699 36 12.5s13 16.833 15 25.5s3.66699 20 5 34
c0.666992 8.66699 1 49.334 1 122.001c0 207.333 -0.666992 313 -2 317c0 8 1.66699 13.5 5 16.5s7 4.66699 11 5s6.66699 0.5 8 0.5h56c1.33301 0 3.5 -0.666992 6.5 -2s6 -3.66602 9 -6.99902s4.5 -7.66602 4.5 -12.999c1.33301 -38.667 2 -158.667 2 -360z" />
    <glyph glyph-name="germandbls" unicode="&#xdf;" horiz-adv-x="550" 
d="M397 350.5c19.333 -17 33.835 -36.8311 43.502 -59.498s14.5 -45 14.5 -67v-48c0 -60.667 -15.333 -106.834 -46 -138.501s-68.334 -47.5 -113.001 -47.5c-18.667 0 -37.5 4.16699 -56.5 12.5s-35.167 22.333 -48.5 42s-20 44.834 -20 75.501
c0 -2.66699 -0.666992 12 -2 44v2c0 8.66699 3.33301 13 10 13h59c4.66699 0 8 -1 10 -3s3 -5.66699 3 -11v-12l1 -10c0.666992 -16 4.83398 -28.667 12.501 -38s18.167 -14 31.5 -14c18 0 30.833 7.83301 38.5 23.5s11.5 40.5 11.5 74.5v29
c0 36.667 -9.5 65.334 -28.5 86.001s-43.167 31 -72.5 31h-54h-13c-4.66699 0 -7.33398 0.333008 -8.00098 1c-0.666992 1.33301 -1 13.666 -1 36.999v40c0 2.66699 3.16699 4.16699 9.5 4.5s10.5 0.5 12.5 0.5c0 -2 11.833 -1.66699 35.5 1s44.834 10 63.501 22
s28 31.667 28 59c0 21.333 -9 37.166 -27 47.499s-38.333 17.166 -61 20.499s-34 4.33301 -34 3h-67h-2c-6.66699 0 -10 -3.66699 -10 -11c0.666992 -30.667 1.16699 -72.5 1.5 -125.5s0.5 -93.833 0.5 -122.5v-145c0 -90.667 0.333008 -139.667 1 -147
c0.666992 -10.667 -0.5 -18.167 -3.5 -22.5s-7.83301 -6.5 -14.5 -6.5l-50 -1c-16 0 -27.167 2.66699 -33.5 8s-9.5 14.333 -9.5 27l-1 614c0 7.33301 1.66699 12.5 5 15.5s8.66602 4.5 15.999 4.5h171c26.667 -0.666992 56.167 -5.16699 88.5 -13.5s61.5 -24 87.5 -47
s39 -54.833 39 -95.5c0 -22.667 -4.83301 -42.5 -14.5 -59.5s-21.334 -30.5 -35.001 -40.5s-26.167 -16 -37.5 -18c26.667 -6 49.667 -17.5 69 -34.5z" />
    <glyph glyph-name="aacute" unicode="&#xe1;" horiz-adv-x="462" 
d="M207 724c2 -0.666992 4.33496 -0.999023 7.00195 -0.999023c2 0 3.5 0.666992 4.5 2s2.16699 3.33301 3.5 6c0.666992 2 5 11.667 13 29c23.333 48 39.666 87.333 48.999 118c0.666992 2 1 4.33301 1 7c0 5.33301 -4.66699 9.33301 -14 12c-6 2 -17.167 4.5 -33.5 7.5
s-29.833 5.16699 -40.5 6.5h-6c-4 0 -6.66699 -2.66699 -8 -8l-12.5 -84.5c-5.66699 -39 -8.83398 -64.833 -9.50098 -77.5c0 -6.66699 15.333 -12.334 46 -17.001zM369.002 18.501c1.33301 3 1.33203 7.16895 -0.000976562 12.502
c-10 57.333 -31.167 164.666 -63.5 321.999s-52.833 247.333 -61.5 270c-2 4 -4.16699 6.5 -6.5 7.5s-6.5 1.5 -12.5 1.5c-4.66699 0.666992 -12 1 -22 1l-47 -1c-7.33301 0 -14.333 -4 -21 -12c-2.66699 -3.33301 -24.167 -81.333 -64.5 -234l-87.5 -335
c-4 -14.667 4.33301 -24.667 25 -30c2.66699 -0.666992 15.334 -4.66699 38.001 -12s35.667 -9.33301 39 -6c2.66699 2.66699 8.16699 22 16.5 58s13.166 57.333 14.499 64l5 22c0.666992 3.33301 17.667 5 51 5l46 -1h4c4 0 6.83301 -0.833008 8.5 -2.5
s3.16699 -4.83398 4.5 -9.50098l24 -130c0 -3.33301 1.83301 -7.83301 5.5 -13.5s9.83398 -7.16699 18.501 -4.5l77 21c4.66699 1.33301 7.66699 3.5 9 6.5zM159.001 338.003c10.667 54 18.666 92.667 23.999 116c2 5.33301 3.16699 6.83301 3.5 4.5
s0.833008 -3.83301 1.5 -4.5c0 -1.33301 4.66699 -39 14 -113c6 -51.333 9 -77.333 9 -78v-5c0 -4 -0.833008 -6 -2.5 -6h-2.5c-4.66699 -0.666992 -13 -1 -25 -1c-22.667 0 -34.667 1 -36 3s3.33398 30 14.001 84z" />
    <glyph glyph-name="adieresis" unicode="&#xe4;" horiz-adv-x="482" 
d="M242 681.5c-2 2.33301 -3.00098 4.83594 -3.00098 7.50293c0 10 -0.333008 17.667 -1 23l-1 23l1 15c1.33301 11.333 7.33301 17.333 18 18l53 3c9.33301 0 15.666 -0.333008 18.999 -1s5.33301 -2.66699 6 -6s1.33398 -10.333 2.00098 -21
c0 -6 -0.166992 -13.333 -0.5 -22s-0.166016 -19 0.500977 -31v-4c0 -4.66699 -1 -7.83398 -3 -9.50098s-6 -2.83398 -12 -3.50098c-11.333 0 -20 -0.333008 -26 -1l-26 -1c-9.33301 0 -16.333 1.66699 -21 5c-2 1.33301 -4 3.16602 -6 5.49902zM60.999 740.003
c0 13.333 1.33203 21.5 3.99902 24.5s10.667 4.83301 24 5.5c6 0 13.333 -0.166992 22 -0.5s19 -0.166016 31 0.500977h4c4.66699 0 7.83398 -1 9.50098 -3s2.83398 -6 3.50098 -12l1 -26c0.666992 -6 1 -15 1 -27c0 -6.66699 -1.66699 -13.334 -5 -20.001
c-1.33301 -2 -3.33301 -4 -6 -6s-5 -3 -7 -3l-42 -1c-8.66699 0 -15.334 0.333008 -20.001 1s-8.66699 2.5 -12 5.5s-5.33301 7.16699 -6 12.5c0 10 -0.666992 26.333 -2 49zM390.998 30.0029c0 -6.66699 -1.99805 -12.001 -5.99805 -16.001s-10.667 -7.33301 -20 -10
c-13.333 -4.66699 -27 -8.66699 -41 -12c-5.33301 -1.33301 -9 -2 -11 -2c-4.66699 0 -8.33398 1.5 -11.001 4.5s-4.66699 7.83301 -6 14.5l-22 102c-2 7.33301 -7 11 -15 11l-111 -1c-2.66699 0 -5.33398 -1.16699 -8.00098 -3.5s-4.66699 -4.83301 -6 -7.5
c-2.66699 -6.66699 -6.66699 -20.834 -12 -42.501s-8.66602 -34.5 -9.99902 -38.5c-4 -10 -8.5 -17.167 -13.5 -21.5s-11.5 -6.5 -19.5 -6.5c-2.66699 0 -8 0.666992 -16 2c-8.66699 2 -16.334 3.33301 -23.001 4s-12 1.33398 -16 2.00098c-7.33301 1.33301 -12.5 4 -15.5 8
s-3.5 9.33301 -1.5 16l48 187l104 402c2 0 18.833 0.166992 50.5 0.5s48.167 -2.16699 49.5 -7.5c4.66699 -15.333 19 -76.666 43 -183.999l46 -204l40 -178c2 -8 3 -14.333 3 -19zM246.5 220.002c2.33301 1.33301 3.50293 3.99902 3.50293 7.99902
c0 4.66699 -0.333008 8.33398 -1 11.001c-1.33301 5.33301 -6 32.666 -14 81.999l-9 53c-6.66699 33.333 -12.334 50 -17.001 50c-1.33301 0 -3.33301 -4 -6 -12c-2.66699 -10 -9.33398 -41 -20.001 -93c-8.66699 -41.333 -15.334 -71.666 -20.001 -90.999l-1 -5
c0 -4.66699 3 -7 9 -7c16 0 36.667 0.666992 62 2c6.66699 0 11.167 0.666992 13.5 2z" />
    <glyph glyph-name="eacute" unicode="&#xe9;" horiz-adv-x="406" 
d="M168 724c2 -0.666992 4.33398 -0.999023 7.00098 -0.999023c2 0 3.5 0.666992 4.5 2s2.16699 3.33301 3.5 6c2 7.33301 6.66699 17.333 14 30l20 45c10.667 24 20 48 28 72c0.666992 2 1 4.33301 1 7c0 5.33301 -4.66699 9.33301 -14 12c-6 2 -17.167 4.5 -33.5 7.5
s-29.833 5.16699 -40.5 6.5h-6c-2.66699 0 -4.5 -0.5 -5.5 -1.5s-1.83301 -3.16699 -2.5 -6.5l-12.5 -84.5c-5.66699 -39 -8.83398 -64.833 -9.50098 -77.5c0 -6.66699 15.333 -12.334 46 -17.001zM320.001 569.501l-0.00292969 25.502c0 19.333 -9.66699 29 -29 29h-183
h-80c-4.66699 0 -9.16699 -2.66699 -13.5 -8s-6.5 -10.333 -6.5 -15c-0.666992 -19.333 -1 -213.333 -1 -582c0 -5.33301 1 -9.33301 3 -12s6 -4 12 -4l271 1c6 0 11.167 1 15.5 3s6.5 5 6.5 9l3 82c0 4 -1.66699 7.16699 -5 9.5s-10 3.5 -20 3.5
c-102 0 -158 -0.333008 -168 -1c0 2 -0.333008 14.167 -1 36.5s-1 47.5 -1 75.5c0 22.667 0.666992 46.667 2 72c0 8.66699 4.33301 13 13 13l111 2c2.66699 0 7.83398 0.666992 15.501 2s12.834 3.66602 15.501 6.99902c2.66699 9.33301 4.16699 20 4.5 32s0.5 20 0.5 24v3
c0 16 -4.33301 24.667 -13 26c-8.66699 2 -41.667 3 -99 3h-50c0 45.333 0.333008 76.666 1 93.999c1.33301 10.667 3 17 5 19s8.33301 2.66699 19 2c10 -0.666992 33.333 -1 70 -1h57c4.66699 -0.666992 11.334 -1 20.001 -1c11.333 0 18.333 3.33301 21 10
c2.66699 11.333 4 24.833 4 40.5z" />
    <glyph glyph-name="iacute" unicode="&#xed;" horiz-adv-x="238" 
d="M25.5 730.5c7 -2.33301 14.0029 -4.16602 21.0029 -5.49902s11.833 -2.33301 14.5 -3l7 -1c2.66699 0 5.33398 2.66699 8.00098 8c-0.666992 -1.33301 3.66602 8.66699 12.999 30c20.667 43.333 37 82.666 49 117.999c0.666992 1.33301 1 3.33301 1 6
c0 6 -4.66699 10.333 -14 13l-40 8c-16.667 3.33301 -28 5.33301 -34 6c-5.33301 0 -8.83301 -0.5 -10.5 -1.5s-2.83398 -3.5 -3.50098 -7.5c-2.66699 -16.667 -6.83398 -44.5 -12.501 -83.5s-8.83398 -64.833 -9.50098 -77.5c0 -4 3.5 -7.16699 10.5 -9.5zM107.003 8.5
c1.33301 5.66699 1.99902 14.499 1.99902 26.499v188c0 227.333 0.666992 358 2 392c0 8.66699 -3.66699 13 -11 13c-34 2 -52 3 -54 3c-7.33301 0 -13.166 0.333008 -17.499 1s-7.83301 1 -10.5 1c-6 0 -9.5 -2.16699 -10.5 -6.5s-1.83301 -16.166 -2.5 -35.499v-83v-374
v-112v-2c0 -8 1.16699 -13.5 3.5 -16.5s4.83301 -4.5 7.5 -4.5s4.66699 0.333008 6 1c4.66699 -0.666992 13.334 -1 26.001 -1l49 1c5.33301 -0 8.66602 2.83301 9.99902 8.5z" />
    <glyph glyph-name="ntilde" unicode="&#xf1;" horiz-adv-x="469" 
d="M75 692c5.33301 0 9.33496 2.66699 12.002 8c0 0.666992 1.66699 6.5 5 17.5s15.333 16.5 36 16.5c8 0 15 -1.5 21 -4.5s13 -7.5 21 -13.5c12 -8.66699 23.5 -15.5 34.5 -20.5s25.5 -7.5 43.5 -7.5s34.333 4.83301 49 14.5s26.5 20.5 35.5 32.5s14.167 21 15.5 27
c2.66699 7.33301 2.33398 12.333 -0.999023 15c-4.66699 4.66699 -10.667 10 -18 16s-14 11 -20 15c-6.66699 4 -11.667 6 -15 6s-7 -2.66699 -11 -8c-0.666992 -1.33301 -2.16699 -4.16602 -4.5 -8.49902s-6.33301 -8.83301 -12 -13.5s-12.834 -7.33398 -21.501 -8.00098
s-16.334 0.5 -23.001 3.5s-15 7.83301 -25 14.5c-13.333 8.66699 -25.833 15.334 -37.5 20.001s-26.5 6.66699 -44.5 6c-22.667 -2 -40.834 -9.5 -54.501 -22.5s-23.5 -26.333 -29.5 -40s-9 -22.167 -9 -25.5c-0.666992 -0.666992 -1 -2.33398 -1 -5.00098
c0 -5.33301 3.33301 -9 10 -11l20.5 -12.5l17.5 -10.5c1.33301 -0.666992 3.33301 -1 6 -1zM121.002 317l5.99902 -11.001l65 -156c32 -76.667 50.667 -120.667 56 -132c2.66699 -5.33301 6.66699 -9.33301 12 -12s10.333 -4 15 -4h9l58 -1c6 0 11.833 2.66699 17.5 8
s8.5 12.666 8.5 21.999c-0.666992 46.667 -1 171.334 -1 374.001c-0.666992 64.667 -1 135 -1 211c0 6.66699 -1.33301 11.167 -4 13.5s-7 3.16602 -13 2.49902c-12.667 -1.33301 -37 -2.66602 -73 -3.99902c-10.667 -0.666992 -17 -2.16699 -19 -4.5
s-2.66699 -8.83301 -2 -19.5c2 -60 3 -169.667 3 -329c0 -2.66699 -0.666992 -7.33398 -2 -14.001c-9.33301 18.667 -31.333 71 -66 157s-60 150.333 -76 193c-1.33301 4.66699 -4.16602 8.16699 -8.49902 10.5s-8.5 3.66602 -12.5 3.99902s-6.66699 0.5 -8 0.5l-59 1
c-6.66699 0 -11.334 -1.5 -14.001 -4.5s-4 -7.83301 -4 -14.5v-50c0 -97.333 -0.333008 -200.666 -1 -309.999s-1 -185 -1 -227c0 -1.33301 1 -4.33301 3 -9s5.33301 -9 10 -13s10.334 -5.33301 17.001 -4c4.66699 0.666992 10.5 1.33398 17.5 2.00098s12.5 1 16.5 1
c12 0 20.667 0.333008 26 1c8 0.666992 13.5 2.33398 16.5 5.00098s4.5 8 4.5 16v215v82h4z" />
    <glyph glyph-name="oacute" unicode="&#xf3;" horiz-adv-x="430" 
d="M130 817l-10 -76.001c0 -4 3.5 -7.16699 10.5 -9.5s14 -4.16602 21 -5.49902s11.833 -2.33301 14.5 -3l7 -1c2.66699 0 5.33398 2.66699 8.00098 8c0 -0.666992 4.33301 9.33301 13 30c20.667 43.333 37 82.666 49 117.999c0.666992 1.33301 1 3.33301 1 6
c0 6 -4.66699 10.333 -14 13l-40 8c-16.667 3.33301 -28 5.33301 -34 6c-5.33301 0 -8.83301 -0.5 -10.5 -1.5s-2.83398 -3.5 -3.50098 -7.5c-3.33301 -21.333 -7.33301 -49.666 -12 -84.999zM339 451.999c0 55.333 -12.499 100.5 -37.499 135.5s-63.167 52.5 -114.5 52.5
c-57.333 0 -102.333 -14.833 -135 -44.5s-49 -76.5 -49 -140.5v-147c0 -105.333 1 -164 3 -176c4.66699 -34 19.5 -65.667 44.5 -95s67.833 -44 128.5 -44c34 0 63.167 9 87.5 27s42.666 39.833 54.999 65.5s18.5 49.5 18.5 71.5zM102.001 290.999
c-0.666992 68 -0.998047 122.667 -0.998047 164c0 26.667 5.83301 47.5 17.5 62.5s30.167 22.5 55.5 22.5c42 0 63 -28 63 -84v-276c0 -25.333 -4.83301 -44.833 -14.5 -58.5s-26.834 -20.5 -51.501 -20.5c-40 0 -62.333 26.667 -67 80
c-0.666992 5.33301 -1.33398 42 -2.00098 110z" />
    <glyph glyph-name="otilde" unicode="&#xf5;" horiz-adv-x="430" 
d="M72 689c5.33301 0 9.33496 2.66699 12.002 8c0 0.666992 1.66699 6.5 5 17.5s15.333 16.5 36 16.5c8 0 15 -1.5 21 -4.5s13 -7.5 21 -13.5c12 -8.66699 23.5 -15.5 34.5 -20.5s25.5 -7.5 43.5 -7.5s34.333 4.83301 49 14.5s26.5 20.5 35.5 32.5s14.167 21 15.5 27
c2.66699 7.33301 2.33398 12.333 -0.999023 15c-4.66699 4.66699 -10.667 10 -18 16s-14 11 -20 15c-6.66699 4 -11.667 6 -15 6s-7 -2.66699 -11 -8c-0.666992 -1.33301 -2.16699 -4.16602 -4.5 -8.49902s-6.33301 -8.83301 -12 -13.5s-12.834 -7.33398 -21.501 -8.00098
s-16.334 0.5 -23.001 3.5s-15 7.83301 -25 14.5c-13.333 8.66699 -25.833 15.334 -37.5 20.001s-26.5 6.66699 -44.5 6c-22.667 -2 -40.834 -9.5 -54.501 -22.5s-23.5 -26.333 -29.5 -40s-9 -22.167 -9 -25.5c-0.666992 -0.666992 -1 -2.33398 -1 -5.00098
c0 -5.33301 3.33301 -9 10 -11l20.5 -12.5l17.5 -10.5c1.33301 -0.666992 3.33301 -1 6 -1zM339.002 460c0 55.333 -12.499 100.5 -37.499 135.5s-63.167 52.5 -114.5 52.5c-57.333 0 -102.333 -14.833 -135 -44.5s-49 -76.5 -49 -140.5v-152c0 -109.333 1 -170 3 -182
c4.66699 -34 19.5 -65.667 44.5 -95s67.833 -44 128.5 -44c34 0 63.167 9 87.5 27s42.666 39.833 54.999 65.5s18.5 49.5 18.5 71.5zM102.003 292.5c-0.666992 71 -0.998047 127.833 -0.998047 170.5c0 26.667 5.83301 47.5 17.5 62.5s30.167 22.5 55.5 22.5
c42 0 63 -28 63 -84v-287c0 -25.333 -4.83301 -44.833 -14.5 -58.5s-26.834 -20.5 -51.501 -20.5c-40 0 -62.333 26.667 -67 80c-0.666992 5.33301 -1.33398 43.5 -2.00098 114.5z" />
    <glyph glyph-name="odieresis" unicode="&#xf6;" horiz-adv-x="443" 
d="M208 729c0 10 -0.333984 17.668 -1.00098 23.001l-1 23l1 15c1.33301 11.333 7.33301 17.333 18 18l53 3c9.33301 0 15.666 -0.333008 18.999 -1s5.33301 -2.66699 6 -6s1.33398 -10.333 2.00098 -21c0 -6 -0.166992 -13.333 -0.5 -22s-0.166016 -19 0.500977 -31v-4
c0 -4.66699 -1 -7.83398 -3 -9.50098s-6 -2.83398 -12 -3.50098c-11.333 0 -20 -0.333008 -26 -1l-26 -1c-8.66699 0 -15.667 1.33301 -21 4c-6 4.66699 -9 9.33398 -9 14.001zM40.999 780.001c0 13.333 1.33203 21.5 3.99902 24.5s10.667 4.83301 24 5.5
c6 0 13.333 -0.166992 22 -0.5s19 -0.166016 31 0.500977h4c4.66699 0 7.83398 -1 9.50098 -3s2.5 -6 2.5 -12c0.666992 -6 1.33398 -13.333 2.00098 -22s1 -19 1 -31c0 -6.66699 -1.66699 -13.334 -5 -20.001c-1.33301 -2 -3.33301 -4 -6 -6s-5 -3 -7 -3l-42 -1
c-8.66699 0 -15.334 0.333008 -20.001 1s-8.66699 2.5 -12 5.5s-5.33301 7.16699 -6 12.5c0 10 -0.666992 26.333 -2 49zM352.498 323.001c0.333008 -70.667 0.501953 -128.332 0.501953 -172.999c0 -18.667 -6.33301 -42 -19 -70s-32 -52.667 -58 -74s-58.333 -32 -97 -32
c-74 0 -121 22 -141 66s-30 88.333 -30 133l-1 58c-2 114 -3 181 -3 201c0 32.667 0.666992 53 2 61c7.33301 30.667 15.666 56.667 24.999 78s27.166 41.5 53.499 60.5s63.5 28.5 111.5 28.5c40 0 71.5 -10.167 94.5 -30.5s38.833 -43 47.5 -68s13 -46.833 13 -65.5
c0.666992 -44.667 1.16699 -102.334 1.5 -173.001zM242.5 256.503c1 58.333 1.50098 111.834 1.50098 160.501c0 33.333 -0.333008 51 -1 53c-1.33301 13.333 -3.5 25 -6.5 35s-8.16699 19.333 -15.5 28c-12 14 -26 21 -42 21c-10 0 -19.167 -2.5 -27.5 -7.5
s-14.833 -12.167 -19.5 -21.5c-9.33301 -16.667 -15 -34 -17 -52c-1.33301 -7.33301 -2 -44 -2 -110v-144v-55c0 -20 4.16699 -35 12.5 -45s22.166 -17 41.499 -21c2 -0.666992 5.33301 -1 10 -1c14 0 27.333 4.83301 40 14.5s19.667 21.167 21 34.5
c2 15.333 3.5 52.166 4.5 110.499z" />
    <glyph glyph-name="divide" unicode="&#xf7;" horiz-adv-x="407" 
d="M107 394c0 -12.667 5.99902 -18.333 17.999 -17c4 0.666992 10 1 18 1c5.33301 0 12 -0.166992 20 -0.5s17.667 -0.166016 29 0.500977c4 0.666992 6.83301 2 8.5 4s2.5 5 2.5 9v40c0 21.333 -0.666992 33.666 -2 36.999c-0.666992 2.66699 -3 5.5 -7 8.5
s-7.66699 5.16699 -11 6.5c-10.667 1.33301 -29 2 -55 2c-5.33301 0 -10.166 -2 -14.499 -6s-6.5 -9.33301 -6.5 -16v-69zM309.499 283.501c-0.333008 17 -0.166992 28.499 0.5 34.499v3c0 6.66699 -3 10.334 -9 11.001h-77h-209c-10 0 -15 -3.66699 -15 -11v-72
c0 -8 0.666992 -13 2 -15s5 -3 11 -3l280 1c7.33301 0 12 1.33301 14 4s3 7.66699 3 15c0 4.66699 -0.166992 15.5 -0.5 32.5zM185.998 98c10.667 0 16.001 5.66504 16.001 16.998v22c0 3.33301 0.166992 7.5 0.5 12.5s0.166016 12.167 -0.500977 21.5
c-1.33301 14 -7.33301 21.667 -18 23c-4.66699 0.666992 -11.334 1 -20.001 1c-4 0 -9.16699 -0.166992 -15.5 -0.5s-13.5 -0.166016 -21.5 0.500977h-2c-5.33301 0 -9.66602 -1.66699 -12.999 -5s-5 -7.66602 -5 -12.999c0 -25.333 0.333008 -48.333 1 -69
c0.666992 -8 5.66699 -12 15 -12h25c16 1.33301 28.667 2 38 2z" />
    <glyph glyph-name="uacute" unicode="&#xfa;" 
d="M130 817l-10 -76.001c0 -4 3.5 -7.16699 10.5 -9.5s14 -4.16602 21 -5.49902s11.833 -2.33301 14.5 -3l7 -1c2.66699 0 5.33398 2.66699 8.00098 8c0 -0.666992 4.33301 9.33301 13 30c20.667 43.333 37 82.666 49 117.999c0.666992 1.33301 1 3.33301 1 6
c0 6 -4.66699 10.333 -14 13l-40 8c-16.667 3.33301 -28 5.33301 -34 6c-5.33301 0 -8.83301 -0.5 -10.5 -1.5s-2.83398 -3.5 -3.50098 -7.5c-3.33301 -21.333 -7.33301 -49.666 -12 -84.999zM7 616.999v16.0029l1 -499c0 -18 5.66699 -38 17 -60s29 -41.167 53 -57.5
s54.333 -24.5 91 -24.5c32 0 58.667 8.5 80 25.5s37.333 37.5 48 61.5s17.334 47.333 20.001 70c0.666992 4 1 39.667 1 107c0 201.333 -0.666992 321.333 -2 360c0 5.33301 -1.5 9.66602 -4.5 12.999s-6 5.66602 -9 6.99902s-5.16699 2 -6.5 2h-56
c-1.33301 0 -4 -0.166992 -8 -0.5s-7.66699 -2 -11 -5s-5 -8.5 -5 -16.5c1.33301 -4 2 -109.667 2 -317c0 -72.667 -0.333008 -113.334 -1 -122.001c-1.33301 -14 -3 -25.333 -5 -34s-7 -17.167 -15 -25.5s-20 -12.5 -36 -12.5s-28.333 4.83301 -37 14.5
s-14.5 19.834 -17.5 30.501s-4.5 17.667 -4.5 21v312v138c0 5.33301 -0.833008 9.16602 -2.5 11.499s-5.16699 3.5 -10.5 3.5c-19.333 0 -35.833 -0.333008 -49.5 -1s-22.834 -1 -27.501 -1c-3.33301 0 -5 -5.66699 -5 -17z" />
    <glyph glyph-name="udieresis" unicode="&#xfc;" horiz-adv-x="408" 
d="M197 707l-1 15.001l1 23c0.666992 5.33301 1 13 1 23c0 4.66699 3 9.33398 9 14.001c6.66699 3.33301 13.667 5 21 5l52 -3c6 -0.666992 10 -1.83398 12 -3.50098s3 -4.83398 3 -9.50098v-56c-0.666992 -10.667 -1.33398 -17.667 -2.00098 -21s-2.66699 -5.5 -6 -6.5
s-9.66602 -1.5 -18.999 -1.5l-53 3c-10.667 0.666992 -16.667 6.66699 -18 18zM35 692.501c-2.66699 3 -4 11.1699 -4 24.5029c1.33301 22.667 2 39 2 49c0.666992 5.33301 2.66699 9.5 6 12.5s7.33301 4.83301 12 5.5s11.334 1 20.001 1l42 -1c2 0 4.5 -0.833008 7.5 -2.5
s4.83301 -3.83398 5.5 -6.50098c3.33301 -6.66699 5 -13.334 5 -20.001c0 -12 -0.333008 -22.333 -1 -31s-1.33398 -16 -2.00098 -22c0 -6.66699 -1 -10.834 -3 -12.501s-6.33301 -2.5 -13 -2.5c-4 0.666992 -10 1 -18 1l-35 -1c-13.333 0.666992 -21.333 2.5 -24 5.5z
M318 256.004c0 -67.333 -0.333008 -103.003 -1 -107.003c-2.66699 -22.667 -9.33398 -46 -20.001 -70s-26.667 -44.5 -48 -61.5s-48 -25.5 -80 -25.5c-36.667 0 -67 8.16699 -91 24.5s-41.667 35.5 -53 57.5s-17 42 -17 60v323v139l-1 21c0 11.333 1.66699 17 5 17
c4.66699 0 13.834 0.333008 27.501 1s30.167 1 49.5 1c5.33301 0 8.83301 -1.16699 10.5 -3.5s2.5 -6.16602 2.5 -11.499v-138v-312c0 -3.33301 1.5 -10.333 4.5 -21s8.83301 -20.834 17.5 -30.501s21 -14.5 37 -14.5s28 4.16699 36 12.5s13 16.833 15 25.5s3.66699 20 5 34
c0.666992 8.66699 1 49.334 1 122.001c0 207.333 -0.666992 313 -2 317c0 8 1.66699 13.5 5 16.5s7 4.66699 11 5s6.66699 0.5 8 0.5h56c1.33301 0 3.5 -0.666992 6.5 -2s6 -3.66602 9 -6.99902s4.5 -7.66602 4.5 -12.999c1.33301 -38.667 2 -158.667 2 -360z" />
    <glyph glyph-name="Amacron" unicode="&#x100;" horiz-adv-x="462" 
d="M285 -9c-1.33301 -0.666992 -3.33105 -0.999023 -5.99805 -0.999023c-6.66699 0 -11.334 2.5 -14.001 7.5s-4 8.83301 -4 11.5l-24 130c-0.666992 5.33301 -2.33398 8.83301 -5.00098 10.5s-6.66699 2.16699 -12 1.5l-47 1c-32.667 0 -49.334 -1.66699 -50.001 -5l-5 -22
c-1.33301 -6.66699 -6.16602 -28 -14.499 -64s-13.833 -55.333 -16.5 -58c-3.33301 -3.33301 -16.333 -1.33301 -39 6s-35.334 11.333 -38.001 12c-20.667 5.33301 -29 15.333 -25 30c6.66699 29.333 32.834 130.666 78.501 303.999s70.167 261.666 73.5 264.999
c6.66699 8 13.667 12 21 12l47 1c10 0 17.333 -0.333008 22 -1c6 0 10.167 -0.5 12.5 -1.5s4.5 -3.5 6.5 -7.5c8.66699 -22.667 29.167 -112.667 61.5 -270s53.5 -264.666 63.5 -321.999c0.666992 -2 1 -4.33301 1 -7c0 -6 -3.33301 -10 -10 -12zM182.002 251.001
c12.667 0 21.332 0.333008 25.999 1h1c4 0 5 3.66699 3 11c-13.333 116 -21.666 181 -24.999 195c-0.666992 0.666992 -1.16699 2.16699 -1.5 4.5s-1.5 0.833008 -3.5 -4.5c-5.33301 -24 -12.833 -63.5 -22.5 -118.5s-14.167 -83.5 -13.5 -85.5c2 -2 14 -3 36 -3z
M88 790.501c-2.66699 -3 -4.00293 -5.50195 -4.00293 -7.50195c-1.33301 -14.667 -2 -23 -2 -25l1 -19c0.666992 -9.33301 4 -16.666 10 -21.999s14 -7.66602 24 -6.99902c10.667 0.666992 39.334 1.33398 86.001 2.00098s79.334 1 98.001 1c5.33301 0 8 3.33301 8 10l1 31
c0 10 -0.333008 17.333 -1 22c-1.33301 7.33301 -3.66602 12.166 -6.99902 14.499s-9 3.5 -17 3.5c-1.33301 0 -17.333 0.333008 -48 1s-62 1 -94 1c-26 0 -42 -0.333008 -48 -1c-2 0 -4.33301 -1.5 -7 -4.5z" />
    <glyph glyph-name="amacron" unicode="&#x101;" horiz-adv-x="462" 
d="M285 -9c-1.33301 -0.666992 -3.33105 -0.999023 -5.99805 -0.999023c-6.66699 0 -11.334 2.5 -14.001 7.5s-4 8.83301 -4 11.5l-24 130c-0.666992 5.33301 -2.33398 8.83301 -5.00098 10.5s-6.66699 2.16699 -12 1.5l-47 1c-32.667 0 -49.334 -1.66699 -50.001 -5l-5 -22
c-1.33301 -6.66699 -6.16602 -28 -14.499 -64s-13.833 -55.333 -16.5 -58c-3.33301 -3.33301 -16.333 -1.33301 -39 6s-35.334 11.333 -38.001 12c-20.667 5.33301 -29 15.333 -25 30c6.66699 29.333 32.834 130.666 78.501 303.999s70.167 261.666 73.5 264.999
c6.66699 8 13.667 12 21 12l47 1c10 0 17.333 -0.333008 22 -1c6 0 10.167 -0.5 12.5 -1.5s4.5 -3.5 6.5 -7.5c8.66699 -22.667 29.167 -112.667 61.5 -270s53.5 -264.666 63.5 -321.999c0.666992 -2 1 -4.33301 1 -7c0 -6 -3.33301 -10 -10 -12zM182.002 251.001
c12.667 0 21.332 0.333008 25.999 1h1c4 0 5 3.66699 3 11c-13.333 116 -21.666 181 -24.999 195c-0.666992 0.666992 -1.16699 2.16699 -1.5 4.5s-1.5 0.833008 -3.5 -4.5c-5.33301 -24 -12.833 -63.5 -22.5 -118.5s-14.167 -83.5 -13.5 -85.5c2 -2 14 -3 36 -3z
M88 790.501c-2.66699 -3 -4.00293 -5.50195 -4.00293 -7.50195c-1.33301 -14.667 -2 -23 -2 -25l1 -19c0.666992 -9.33301 4 -16.666 10 -21.999s14 -7.66602 24 -6.99902c10.667 0.666992 39.334 1.33398 86.001 2.00098s79.334 1 98.001 1c5.33301 0 8 3.33301 8 10l1 31
c0 10 -0.333008 17.333 -1 22c-1.33301 7.33301 -3.66602 12.166 -6.99902 14.499s-9 3.5 -17 3.5c-1.33301 0 -17.333 0.333008 -48 1s-62 1 -94 1c-26 0 -42 -0.333008 -48 -1c-2 0 -4.33301 -1.5 -7 -4.5z" />
    <glyph glyph-name="Aogonek" unicode="&#x104;" horiz-adv-x="462" 
d="M367 32l1 1zM414.5 -82.5c11 -18.333 16.5 -31.1641 16.5 -38.4971c0 -4.66699 -2.66699 -11.334 -8 -20.001s-13.833 -16.334 -25.5 -23.001s-26.5 -10 -44.5 -10c-28.667 0 -51.834 7.83301 -69.501 23.5s-26.5 37.167 -26.5 64.5c0 21.333 3.16699 39.666 9.5 54.999
s13.333 27.833 21 37.5s11.5 13.834 11.5 12.501c6 1.33301 16.333 3.16602 31 5.49902s27 4.83301 37 7.5c-6.66699 -4.66699 -15 -15 -25 -31s-15 -33.333 -15 -52c0 -8 2 -15 6 -21s10 -9 18 -9c12.667 0 26.334 7 41.001 21c4 3.33301 11.5 -4.16699 22.5 -22.5z
M285 -8.99805c-1.33301 -0.666992 -3.33105 -0.999023 -5.99805 -0.999023c-6.66699 0 -11.334 2.5 -14.001 7.5s-4 8.83301 -4 11.5l-24 130c-0.666992 5.33301 -2.33398 8.83301 -5.00098 10.5s-6.66699 2.16699 -12 1.5l-47 1c-32.667 0 -49.334 -1.66699 -50.001 -5
l-5 -22c-1.33301 -6.66699 -6.16602 -28 -14.499 -64s-13.833 -55.333 -16.5 -58c-3.33301 -3.33301 -16.333 -1.33301 -39 6s-35.334 11.333 -38.001 12c-20.667 5.33301 -29 15.333 -25 30c6.66699 29.333 32.834 130.666 78.501 303.999s70.167 261.666 73.5 264.999
c6.66699 8 13.667 12 21 12l47 1c10 0 17.333 -0.333008 22 -1c6 0 10.167 -0.5 12.5 -1.5s4.5 -3.5 6.5 -7.5c8.66699 -22.667 29.167 -112.667 61.5 -270s53.5 -264.666 63.5 -321.999c0.666992 -2 1 -4.33301 1 -7c0 -6 -3.33301 -10 -10 -12zM182.002 251.003
c12.667 0 21.332 0.333008 25.999 1h1c4 0 5 3.66699 3 11c-13.333 116 -21.666 181 -24.999 195c-0.666992 0.666992 -1.16699 2.16699 -1.5 4.5s-1.5 0.833008 -3.5 -4.5c-5.33301 -24 -12.833 -63.5 -22.5 -118.5s-14.167 -83.5 -13.5 -85.5c2 -2 14 -3 36 -3z" />
    <glyph glyph-name="aogonek" unicode="&#x105;" horiz-adv-x="462" 
d="M414.5 -82.5c11 -18.333 16.5 -31.1641 16.5 -38.4971c0 -4.66699 -2.66699 -11.334 -8 -20.001s-13.833 -16.334 -25.5 -23.001s-26.5 -10 -44.5 -10c-28.667 0 -51.834 7.83301 -69.501 23.5s-26.5 37.167 -26.5 64.5c0 21.333 3.16699 39.666 9.5 54.999
s13.333 27.833 21 37.5s11.5 13.834 11.5 12.501c6 1.33301 16.333 3.16602 31 5.49902s27 4.83301 37 7.5c-6.66699 -4.66699 -15 -15 -25 -31s-15 -33.333 -15 -52c0 -8 2 -15 6 -21s10 -9 18 -9c12.667 0 26.334 7 41.001 21c4 3.33301 11.5 -4.16699 22.5 -22.5z
M285 -8.99805c-1.33301 -0.666992 -3.33105 -0.999023 -5.99805 -0.999023c-6.66699 0 -11.334 2.5 -14.001 7.5s-4 8.83301 -4 11.5l-24 130c-0.666992 5.33301 -2.33398 8.83301 -5.00098 10.5s-6.66699 2.16699 -12 1.5l-47 1c-32.667 0 -49.334 -1.66699 -50.001 -5
l-5 -22c-1.33301 -6.66699 -6.16602 -28 -14.499 -64s-13.833 -55.333 -16.5 -58c-3.33301 -3.33301 -16.333 -1.33301 -39 6s-35.334 11.333 -38.001 12c-20.667 5.33301 -29 15.333 -25 30c6.66699 29.333 32.834 130.666 78.501 303.999s70.167 261.666 73.5 264.999
c6.66699 8 13.667 12 21 12l47 1c10 0 17.333 -0.333008 22 -1c6 0 10.167 -0.5 12.5 -1.5s4.5 -3.5 6.5 -7.5c8.66699 -22.667 29.167 -112.667 61.5 -270s53.5 -264.666 63.5 -321.999c0.666992 -2 1 -4.33301 1 -7c0 -6 -3.33301 -10 -10 -12zM182.002 251.003
c12.667 0 21.333 0.333984 26 1.00098h1c4 0 5 3.66699 3 11l-11.5 94c-5 40 -8.5 63.667 -10.5 71c-0.666992 0.666992 -1.16699 2.16699 -1.5 4.5s-1.5 0.833008 -3.5 -4.5c-5.33301 -20.667 -13.333 -54.334 -24 -101.001s-15.667 -71 -15 -73c2 -2 14 -3 36 -3z" />
    <glyph glyph-name="Ccaron" unicode="&#x10c;" horiz-adv-x="375" 
d="M255 42.5c21.333 45 32.002 94.165 32.002 147.498c0 10 -0.166992 17.5 -0.5 22.5s-0.5 8.5 -0.5 10.5c0 13.333 -6.66699 19.333 -20 18l-64 -3c-8.66699 0 -12.667 -4 -12 -12c1.33301 -6 1.16602 -21.5 -0.500977 -46.5s-6.83398 -48.333 -15.501 -70
s-22.334 -32.5 -41.001 -32.5c-14.667 0 -25.667 10.167 -33 30.5s-11 38.5 -11 54.5l1 297c0 28.667 5.33301 53.834 16 75.501s22.667 32.5 36 32.5c20 0 33 -10.667 39 -32s9.33301 -39.666 10 -54.999s1 -24.333 1 -27c3.33301 -10.667 10 -16 20 -16
c6.66699 0 13.834 -0.166992 21.501 -0.5s16.5 -0.166016 26.5 0.500977h9c4 0 7.33301 0.833008 10 2.5s4 4.5 4 8.5c0 2.66699 0.333008 7.16699 1 13.5s1 15.166 1 26.499c0 45.333 -10 85.666 -30 120.999s-58.333 53 -115 53c-59.333 0 -98.5 -23 -117.5 -69
s-29.167 -91.333 -30.5 -136c-0.666992 -8.66699 -1 -28 -1 -58c0 -34.667 1 -115 3 -241l1 -51c0 -37.333 12.333 -68.666 37 -93.999s57 -38 97 -38c62.667 0 104.667 22.5 126 67.5zM212.002 748.998c16.667 10.667 28.333 18.666 35 23.999c8.66699 8 13 14.333 13 19
c0 3.33301 -4.33301 9 -13 17c-4 5.33301 -10 15 -18 29c-3.33301 6.66699 -9 10 -17 10c-5.33301 0 -10.333 -2.66699 -15 -8l-36 -34c-11.333 -8 -19 -12 -23 -12c-4.66699 0 -11 3.66699 -19 11l-37 38c-3.33301 2 -6 3 -8 3c-5.33301 0 -8.66602 -1.66699 -9.99902 -5
l-17 -19.5c-8 -9 -14 -17.167 -18 -24.5c-0.666992 -2.66699 -1 -5.66699 -1 -9c0 -5.33301 2.66699 -9.66602 8 -12.999l40 -30c20.667 -16.667 34 -26.667 40 -30c12 -6.66699 20.667 -10 26 -10c3.33301 0 7.66602 1.5 12.999 4.5s9 5.16699 11 6.5
c34 24.667 49.333 35.667 46 33z" />
    <glyph glyph-name="ccaron" unicode="&#x10d;" horiz-adv-x="375" 
d="M255 42.5c21.333 45 32.002 94.165 32.002 147.498c0 10 -0.166992 17.5 -0.5 22.5s-0.5 8.5 -0.5 10.5c0 13.333 -6.66699 19.333 -20 18l-64 -3c-8.66699 0 -12.667 -4 -12 -12c1.33301 -6 1.16602 -21.5 -0.500977 -46.5s-6.83398 -48.333 -15.501 -70
s-22.334 -32.5 -41.001 -32.5c-14.667 0 -25.667 10.167 -33 30.5s-11 38.5 -11 54.5l1 297c0 28.667 5.33301 53.834 16 75.501s22.667 32.5 36 32.5c20 0 33 -10.667 39 -32s9.33301 -39.666 10 -54.999s1 -24.333 1 -27c3.33301 -10.667 10 -16 20 -16
c6.66699 0 13.834 -0.166992 21.501 -0.5s16.5 -0.166016 26.5 0.500977h9c4 0 7.33301 0.833008 10 2.5s4 4.5 4 8.5c0 2.66699 0.333008 7.16699 1 13.5s1 15.166 1 26.499c0 45.333 -10 85.666 -30 120.999s-58.333 53 -115 53c-59.333 0 -98.5 -23 -117.5 -69
s-29.167 -91.333 -30.5 -136c-0.666992 -8.66699 -1 -28 -1 -58c0 -34.667 1 -115 3 -241l1 -51c0 -37.333 12.333 -68.666 37 -93.999s57 -38 97 -38c62.667 0 104.667 22.5 126 67.5zM210.002 748.998c16.667 10.667 28.333 18.666 35 23.999c8.66699 8 13 14.333 13 19
c0 3.33301 -4.33301 9 -13 17c-4 5.33301 -10 15 -18 29c-3.33301 6.66699 -9 10 -17 10c-5.33301 0 -10.333 -2.66699 -15 -8l-36 -34c-11.333 -8 -19 -12 -23 -12c-4.66699 0 -11 3.66699 -19 11l-37 38c-3.33301 2 -6 3 -8 3c-5.33301 0 -8.66602 -1.66699 -9.99902 -5
l-17 -19.5c-8 -9 -14 -17.167 -18 -24.5c-0.666992 -2.66699 -1 -5.66699 -1 -9c0 -5.33301 2.66699 -9.66602 8 -12.999l40 -30c20.667 -16.667 34 -26.667 40 -30c12 -6.66699 20.667 -10 26 -10c3.33301 0 7.66602 1.5 12.999 4.5s9 5.16699 11 6.5
c34 24.667 49.333 35.667 46 33z" />
    <glyph glyph-name="Emacron" unicode="&#x112;" horiz-adv-x="406" 
d="M295 519c-8.66699 0 -15.332 0.331055 -19.999 0.998047h-57c-36.667 0 -60 0.333008 -70 1h-8c-6.66699 0 -10.667 -1.16699 -12 -3.5s-2.66602 -8.16602 -3.99902 -17.499c-0.666992 -17.333 -1 -48.666 -1 -93.999h50c57.333 0 90.333 -1 99 -3
c8.66699 -1.33301 13 -10 13 -26c0 -26.667 -1.66699 -46.334 -5 -59.001c-2.66699 -3.33301 -7.83398 -5.66602 -15.501 -6.99902s-12.834 -2 -15.501 -2l-111 -2c-8.66699 0 -13 -4.33301 -13 -13c-1.33301 -25.333 -2 -49.333 -2 -72c0 -28 0.333008 -53.167 1 -75.5
s1 -34.5 1 -36.5c10 0.666992 66 1 168 1c10 0 16.667 -1.16699 20 -3.5s5 -5.5 5 -9.5l-3 -82c0 -4 -2.16699 -7 -6.5 -9s-9.5 -3 -15.5 -3l-271 -1c-6 0 -10 1.33301 -12 4s-3 6.66699 -3 12c0 368.667 0.333008 562.667 1 582c0 4.66699 2.16699 9.66699 6.5 15
s8.83301 8 13.5 8h80h183c19.333 0 29 -9.66699 29 -29v-25.5c0 -15.667 -1.33301 -29.167 -4 -40.5c-2.66699 -6.66699 -9.66699 -10 -21 -10zM52.002 790.498c-2.66699 -3 -4.00293 -5.50195 -4.00293 -7.50195c-1.33301 -14.667 -2 -23 -2 -25l1 -19
c0.666992 -9.33301 4 -16.666 10 -21.999s14 -7.66602 24 -6.99902c10.667 0.666992 39.334 1.33398 86.001 2.00098s79.334 1 98.001 1c5.33301 0 8 3.33301 8 10l1 31c0 10 -0.333008 17.333 -1 22c-1.33301 7.33301 -3.66602 12.166 -6.99902 14.499s-9 3.5 -17 3.5
c-1.33301 0 -17.333 0.333008 -48 1s-62 1 -94 1c-26 0 -42 -0.333008 -48 -1c-2 0 -4.33301 -1.5 -7 -4.5z" />
    <glyph glyph-name="emacron" unicode="&#x113;" horiz-adv-x="406" 
d="M295 519c-8.66699 0 -15.332 0.331055 -19.999 0.998047h-57c-36.667 0 -60 0.333008 -70 1h-8c-6.66699 0 -10.667 -1.16699 -12 -3.5s-2.66602 -8.16602 -3.99902 -17.499c-0.666992 -17.333 -1 -48.666 -1 -93.999h50c57.333 0 90.333 -1 99 -3
c8.66699 -1.33301 13 -10 13 -26c0 -26.667 -1.66699 -46.334 -5 -59.001c-2.66699 -3.33301 -7.83398 -5.66602 -15.501 -6.99902s-12.834 -2 -15.501 -2l-111 -2c-8.66699 0 -13 -4.33301 -13 -13c-1.33301 -25.333 -2 -49.333 -2 -72c0 -28 0.333008 -53.167 1 -75.5
s1 -34.5 1 -36.5c10 0.666992 66 1 168 1c10 0 16.667 -1.16699 20 -3.5s5 -5.5 5 -9.5l-3 -82c0 -4 -2.16699 -7 -6.5 -9s-9.5 -3 -15.5 -3l-271 -1c-6 0 -10 1.33301 -12 4s-3 6.66699 -3 12c0 368.667 0.333008 562.667 1 582c0 4.66699 2.16699 9.66699 6.5 15
s8.83301 8 13.5 8h80h183c19.333 0 29 -9.66699 29 -29v-25.5c0 -15.667 -1.33301 -29.167 -4 -40.5c-2.66699 -6.66699 -9.66699 -10 -21 -10zM52.002 790.498c-2.66699 -3 -4.00293 -5.50195 -4.00293 -7.50195c-1.33301 -14.667 -2 -23 -2 -25l1 -19
c0.666992 -9.33301 4 -16.666 10 -21.999s14 -7.66602 24 -6.99902c10.667 0.666992 39.334 1.33398 86.001 2.00098s79.334 1 98.001 1c5.33301 0 8 3.33301 8 10l1 31c0 10 -0.333008 17.333 -1 22c-1.33301 7.33301 -3.66602 12.166 -6.99902 14.499s-9 3.5 -17 3.5
c-1.33301 0 -17.333 0.333008 -48 1s-62 1 -94 1c-26 0 -42 -0.333008 -48 -1c-2 0 -4.33301 -1.5 -7 -4.5z" />
    <glyph glyph-name="Edotaccent" unicode="&#x116;" horiz-adv-x="406" 
d="M136 686c-9.33301 0 -15.665 0.499023 -18.998 1.49902s-5.33301 3.16699 -6 6.5s-1.33398 10.333 -2.00098 21c0 5.33301 0.166992 12.333 0.5 21s0.166016 19 -0.500977 31v4c0 4.66699 1 7.83398 3 9.50098s6 2.83398 12 3.50098l52 3
c7.33301 0 14.333 -1.66699 21 -5c6 -4.66699 9 -9.33398 9 -14.001l1 -23c0.666992 -5.33301 1 -13 1 -23c0 -6.66699 -0.333008 -11.667 -1 -15c-1.33301 -11.333 -7.33301 -17.333 -18 -18zM295.001 518.999c-8.66699 0 -15.332 0.331055 -19.999 0.998047h-57
c-36.667 0 -60 0.333008 -70 1h-8c-6.66699 0 -10.667 -1.16699 -12 -3.5s-2.66602 -8.16602 -3.99902 -17.499c-0.666992 -17.333 -1 -48.666 -1 -93.999h50c57.333 0 90.333 -1 99 -3c8.66699 -1.33301 13 -10 13 -26c0 -26.667 -1.66699 -46.334 -5 -59.001
c-2.66699 -3.33301 -7.83398 -5.66602 -15.501 -6.99902s-12.834 -2 -15.501 -2l-111 -2c-8.66699 0 -13 -4.33301 -13 -13c-1.33301 -25.333 -2 -49.333 -2 -72c0 -28 0.333008 -53.167 1 -75.5s1 -34.5 1 -36.5c10 0.666992 66 1 168 1c10 0 16.667 -1.16699 20 -3.5
s5 -5.5 5 -9.5l-3 -82c0 -4 -2.16699 -7 -6.5 -9s-9.5 -3 -15.5 -3l-271 -1c-6 0 -10 1.33301 -12 4s-3 6.66699 -3 12c0 368.667 0.333008 562.667 1 582c0 4.66699 2.16699 9.66699 6.5 15s8.83301 8 13.5 8h80h183c19.333 0 29 -9.66699 29 -29v-25.5
c0 -15.667 -1.33301 -29.167 -4 -40.5c-2.66699 -6.66699 -9.66699 -10 -21 -10z" />
    <glyph glyph-name="edotaccent" unicode="&#x117;" horiz-adv-x="406" 
d="M136 686c-9.33301 0 -15.665 0.499023 -18.998 1.49902s-5.33301 3.16699 -6 6.5s-1.33398 10.333 -2.00098 21c0 5.33301 0.166992 12.333 0.5 21s0.166016 19 -0.500977 31v4c0 4.66699 1 7.83398 3 9.50098s6 2.83398 12 3.50098l52 3
c7.33301 0 14.333 -1.66699 21 -5c6 -4.66699 9 -9.33398 9 -14.001l1 -23c0.666992 -5.33301 1 -13 1 -23c0 -6.66699 -0.333008 -11.667 -1 -15c-1.33301 -11.333 -7.33301 -17.333 -18 -18zM295.001 518.999c-8.66699 0 -15.332 0.331055 -19.999 0.998047h-57
c-36.667 0 -60 0.333008 -70 1h-8c-6.66699 0 -10.667 -1.16699 -12 -3.5s-2.66602 -8.16602 -3.99902 -17.499c-0.666992 -17.333 -1 -48.666 -1 -93.999h50c57.333 0 90.333 -1 99 -3c8.66699 -1.33301 13 -10 13 -26c0 -26.667 -1.66699 -46.334 -5 -59.001
c-2.66699 -3.33301 -7.83398 -5.66602 -15.501 -6.99902s-12.834 -2 -15.501 -2l-111 -2c-8.66699 0 -13 -4.33301 -13 -13c-1.33301 -25.333 -2 -49.333 -2 -72c0 -28 0.333008 -53.167 1 -75.5s1 -34.5 1 -36.5c10 0.666992 66 1 168 1c10 0 16.667 -1.16699 20 -3.5
s5 -5.5 5 -9.5l-3 -82c0 -4 -2.16699 -7 -6.5 -9s-9.5 -3 -15.5 -3l-271 -1c-6 0 -10 1.33301 -12 4s-3 6.66699 -3 12c0 368.667 0.333008 562.667 1 582c0 4.66699 2.16699 9.66699 6.5 15s8.83301 8 13.5 8h80h183c19.333 0 29 -9.66699 29 -29v-25.5
c0 -15.667 -1.33301 -29.167 -4 -40.5c-2.66699 -6.66699 -9.66699 -10 -21 -10z" />
    <glyph glyph-name="Eogonek" unicode="&#x118;" horiz-adv-x="406" 
d="M298 20h2h-2zM315 -86c4.66699 -9.33301 9 -20.0029 13 -32.0029s5.66699 -18.333 5 -19c-0.666992 -4.66699 -4 -10.5 -10 -17.5s-14 -13.167 -24 -18.5s-22 -8 -36 -8c-4 0 -10 0.666992 -18 2c-24.667 4.66699 -43.834 14.334 -57.501 29.001
s-20.5 32.334 -20.5 53.001c0 4.66699 0.666992 11 2 19c2.66699 20.667 8.66699 38.167 18 52.5s19 25.833 29 34.5s15 12.334 15 11.001l45 -1c12.667 0 20 0.333008 22 1c-9.33301 -5.33301 -20.5 -14.666 -33.5 -27.999s-21.5 -29.333 -25.5 -48
c0 -8.66699 2 -16.334 6 -23.001s10.667 -10 20 -10c10 0 23 4.66699 39 14c2.66699 2 6.33398 -1.66699 11.001 -11zM295 518.997c-8.66699 0 -15.332 0.331055 -19.999 0.998047h-57c-36.667 0 -60 0.333008 -70 1h-8c-6.66699 0 -10.667 -1.16699 -12 -3.5
s-2.66602 -8.16602 -3.99902 -17.499c-0.666992 -17.333 -1 -48.666 -1 -93.999h50c57.333 0 90.333 -1 99 -3c8.66699 -1.33301 13 -10 13 -26c0 -26.667 -1.66699 -46.334 -5 -59.001c-2.66699 -3.33301 -7.83398 -5.66602 -15.501 -6.99902s-12.834 -2 -15.501 -2
l-111 -2c-8.66699 0 -13 -4.33301 -13 -13c-1.33301 -25.333 -2 -49.333 -2 -72c0 -28 0.333008 -53.167 1 -75.5s1 -34.5 1 -36.5c10 0.666992 66 1 168 1c10 0 16.667 -1.16699 20 -3.5s5 -5.5 5 -9.5l-3 -82c0 -4 -2.16699 -7 -6.5 -9s-9.5 -3 -15.5 -3l-271 -1
c-6 0 -10 1.33301 -12 4s-3 6.66699 -3 12c0 368.667 0.333008 562.667 1 582c0 4.66699 2.16699 9.66699 6.5 15s8.83301 8 13.5 8h80h183c19.333 0 29 -9.66699 29 -29v-25.5c0 -15.667 -1.33301 -29.167 -4 -40.5c-2.66699 -6.66699 -9.66699 -10 -21 -10z" />
    <glyph glyph-name="eogonek" unicode="&#x119;" horiz-adv-x="406" 
d="M298 20h2h-2zM315 -86c4.66699 -9.33301 9 -20.0029 13 -32.0029s5.66699 -18.333 5 -19c-0.666992 -4.66699 -4 -10.5 -10 -17.5s-14 -13.167 -24 -18.5s-22 -8 -36 -8c-4 0 -10 0.666992 -18 2c-24.667 4.66699 -43.834 14.334 -57.501 29.001
s-20.5 32.334 -20.5 53.001c0 4.66699 0.666992 11 2 19c2.66699 20.667 8.66699 38.167 18 52.5s19 25.833 29 34.5s15 12.334 15 11.001l45 -1c12.667 0 20 0.333008 22 1c-9.33301 -5.33301 -20.5 -14.666 -33.5 -27.999s-21.5 -29.333 -25.5 -48
c0 -8.66699 2 -16.334 6 -23.001s10.667 -10 20 -10c10 0 23 4.66699 39 14c2.66699 2 6.33398 -1.66699 11.001 -11zM295 518.997c-8.66699 0 -15.332 0.331055 -19.999 0.998047h-57c-36.667 0 -60 0.333008 -70 1h-8c-6.66699 0 -10.667 -1.16699 -12 -3.5
s-2.66602 -8.16602 -3.99902 -17.499c-0.666992 -17.333 -1 -48.666 -1 -93.999h50c57.333 0 90.333 -1 99 -3c8.66699 -1.33301 13 -10 13 -26c0 -26.667 -1.66699 -46.334 -5 -59.001c-2.66699 -3.33301 -7.83398 -5.66602 -15.501 -6.99902s-12.834 -2 -15.501 -2
l-111 -2c-8.66699 0 -13 -4.33301 -13 -13c-1.33301 -25.333 -2 -49.333 -2 -72c0 -28 0.333008 -53.167 1 -75.5s1 -34.5 1 -36.5c10 0.666992 66 1 168 1c10 0 16.667 -1.16699 20 -3.5s5 -5.5 5 -9.5l-3 -82c0 -4 -2.16699 -7 -6.5 -9s-9.5 -3 -15.5 -3l-271 -1
c-6 0 -10 1.33301 -12 4s-3 6.66699 -3 12c0 368.667 0.333008 562.667 1 582c0 4.66699 2.16699 9.66699 6.5 15s8.83301 8 13.5 8h80h183c19.333 0 29 -9.66699 29 -29v-25.5c0 -15.667 -1.33301 -29.167 -4 -40.5c-2.66699 -6.66699 -9.66699 -10 -21 -10z" />
    <glyph glyph-name="Gcommaaccent" unicode="&#x122;" 
d="M229 196c0.666992 -25.333 -4.3291 -49.1689 -14.9961 -71.502s-27 -33.5 -49 -33.5c-20.667 0 -36.834 7.33301 -48.501 22s-19.334 30.5 -23.001 47.5s-5.5 30.5 -5.5 40.5v127c0 82.667 0.333008 129.334 1 140.001c1.33301 16 6.5 31.833 15.5 47.5
s21.5 23.5 37.5 23.5c16.667 0 30 -3.66699 40 -11s18.667 -16 26 -26s12.333 -14.333 15 -13l25 17c18.667 13.333 32 22 40 26c6 3.33301 9 7 9 11s-1.33301 7.33301 -4 10c-2.66699 3.33301 -9.83398 13.666 -21.501 30.999s-28.334 32.5 -50.001 45.5
s-46.834 19.5 -75.501 19.5c-16 0 -36.667 -4.5 -62 -13.5s-48.666 -26.667 -69.999 -53s-32 -62.833 -32 -109.5l1 -276c0 -22.667 3.83301 -50.167 11.5 -82.5s24.667 -62.666 51 -90.999s64.5 -42.5 114.5 -42.5c57.333 0 99.666 20 126.999 60s41 95.667 41 167
c0.666992 14 1 28.667 1 44c0 5.33301 -0.166992 12.333 -0.5 21s-0.166016 23 0.500977 43c0 6 -1.83301 10.667 -5.5 14s-7.5 5.33301 -11.5 6s-6.66699 1 -8 1c-12 0 -32.667 0.333008 -62 1s-54.666 0.666992 -75.999 0c-12.667 -1.33301 -19 -7.66602 -19 -18.999v-22
c0 -5.33301 0.166992 -12 0.5 -20s0.166016 -17 -0.500977 -27v-3c0 -4.66699 1 -7.66699 3 -9s5.66699 -2 11 -2c16 0.666992 38.333 1 67 1c0 -2 0.333008 -15.667 1 -41zM87.5039 -147.003c3 -0.666992 7.16797 -1 12.501 -1c6 -0.666992 14 -1 24 -1
c4 0 9.16699 0.166992 15.5 0.5s14.5 0.166016 24.5 -0.500977c13.333 0 23.833 3 31.5 9s14.167 15.667 19.5 29c2 6.66699 3.83301 14.667 5.5 24s2.16699 17 1.5 23c-0.666992 1.33301 -1.83398 2.66602 -3.50098 3.99902s-3.5 2.33301 -5.5 3l-81 1
c-4 0 -6.66699 -1.5 -8 -4.5s-2 -8.5 -2 -16.5c0 -16.667 -4.33301 -31 -13 -43c-2.66699 -3.33301 -7.66699 -6.66602 -15 -9.99902s-11 -6.66602 -11 -9.99902c0 -4 1.5 -6.33301 4.5 -7z" />
    <glyph glyph-name="gcommaaccent" unicode="&#x123;" 
d="M229 196c0.666992 -25.333 -4.3291 -49.1689 -14.9961 -71.502s-27 -33.5 -49 -33.5c-20.667 0 -36.834 7.33301 -48.501 22s-19.334 30.5 -23.001 47.5s-5.5 30.5 -5.5 40.5v127c0 82.667 0.333008 129.334 1 140.001c1.33301 16 6.5 31.833 15.5 47.5
s21.5 23.5 37.5 23.5c16.667 0 30 -3.66699 40 -11s18.667 -16 26 -26s12.333 -14.333 15 -13l25 17c18.667 13.333 32 22 40 26c6 3.33301 9 7 9 11s-1.33301 7.33301 -4 10c-2.66699 3.33301 -9.83398 13.666 -21.501 30.999s-28.334 32.5 -50.001 45.5
s-46.834 19.5 -75.501 19.5c-16 0 -36.667 -4.5 -62 -13.5s-48.666 -26.667 -69.999 -53s-32 -62.833 -32 -109.5l1 -276c0 -22.667 3.83301 -50.167 11.5 -82.5s24.667 -62.666 51 -90.999s64.5 -42.5 114.5 -42.5c57.333 0 99.666 20 126.999 60s41 95.667 41 167
c0.666992 14 1 28.667 1 44c0 5.33301 -0.166992 12.333 -0.5 21s-0.166016 23 0.500977 43c0 6 -1.83301 10.667 -5.5 14s-7.5 5.33301 -11.5 6s-6.66699 1 -8 1c-12 0 -32.667 0.333008 -62 1s-54.666 0.666992 -75.999 0c-12.667 -1.33301 -19 -7.66602 -19 -18.999v-22
c0 -5.33301 0.166992 -12 0.5 -20s0.166016 -17 -0.500977 -27v-3c0 -4.66699 1 -7.66699 3 -9s5.66699 -2 11 -2c16 0.666992 38.333 1 67 1c0 -2 0.333008 -15.667 1 -41zM87.5039 -147.003c3 -0.666992 7.16797 -1 12.501 -1c6 -0.666992 14 -1 24 -1
c4 0 9.16699 0.166992 15.5 0.5s14.5 0.166016 24.5 -0.500977c13.333 0 23.833 3 31.5 9s14.167 15.667 19.5 29c2 6.66699 3.83301 14.667 5.5 24s2.16699 17 1.5 23c-0.666992 1.33301 -1.83398 2.66602 -3.50098 3.99902s-3.5 2.33301 -5.5 3l-81 1
c-4 0 -6.66699 -1.5 -8 -4.5s-2 -8.5 -2 -16.5c0 -16.667 -4.33301 -31 -13 -43c-2.66699 -3.33301 -7.66699 -6.66602 -15 -9.99902s-11 -6.66602 -11 -9.99902c0 -4 1.5 -6.33301 4.5 -7z" />
    <glyph glyph-name="Imacron" unicode="&#x12a;" horiz-adv-x="209" 
d="M48 -1c-12.667 0 -21.333 0.333984 -26 1.00098l-5 -1c-8 0 -12 6.33301 -12 19v405v168c0.666992 19.333 1.5 31.166 2.5 35.499s4.5 6.5 10.5 6.5c2.66699 0 6.16699 -0.333008 10.5 -1s10.166 -1 17.499 -1c2 0 20 -1 54 -3c7.33301 0 11 -4.33301 11 -13
c-1.33301 -34 -2 -164.667 -2 -392v-188c0 -12 -0.666992 -20.833 -2 -26.5s-4.66602 -8.5 -9.99902 -8.5zM-49.999 790.501c-2.66699 -3 -4.00293 -5.50195 -4.00293 -7.50195c-1.33301 -14.667 -2 -23 -2 -25l1 -19c0.666992 -9.33301 4 -16.666 10 -21.999
s14 -7.66602 24 -6.99902c10.667 0.666992 39.334 1.33398 86.001 2.00098s79.334 1 98.001 1c5.33301 0 8 3.33301 8 10l1 31c0 10 -0.333008 17.333 -1 22c-1.33301 7.33301 -3.66602 12.166 -6.99902 14.499s-9 3.5 -17 3.5c-1.33301 0 -17.333 0.333008 -48 1
s-62 1 -94 1c-26 0 -42 -0.333008 -48 -1c-2 0 -4.33301 -1.5 -7 -4.5z" />
    <glyph glyph-name="imacron" unicode="&#x12b;" horiz-adv-x="209" 
d="M48 -1c-12.667 0 -21.333 0.333984 -26 1.00098l-5 -1c-8 0 -12 6.33301 -12 19v405v168c0.666992 19.333 1.5 31.166 2.5 35.499s4.5 6.5 10.5 6.5c2.66699 0 6.16699 -0.333008 10.5 -1s10.166 -1 17.499 -1c2 0 20 -1 54 -3c7.33301 0 11 -4.33301 11 -13
c-1.33301 -34 -2 -164.667 -2 -392v-188c0 -12 -0.666992 -20.833 -2 -26.5s-4.66602 -8.5 -9.99902 -8.5zM-49.999 790.501c-2.66699 -3 -4.00293 -5.50195 -4.00293 -7.50195c-1.33301 -14.667 -2 -23 -2 -25l1 -19c0.666992 -9.33301 4 -16.666 10 -21.999
s14 -7.66602 24 -6.99902c10.667 0.666992 39.334 1.33398 86.001 2.00098s79.334 1 98.001 1c5.33301 0 8 3.33301 8 10l1 31c0 10 -0.333008 17.333 -1 22c-1.33301 7.33301 -3.66602 12.166 -6.99902 14.499s-9 3.5 -17 3.5c-1.33301 0 -17.333 0.333008 -48 1
s-62 1 -94 1c-26 0 -42 -0.333008 -48 -1c-2 0 -4.33301 -1.5 -7 -4.5z" />
    <glyph glyph-name="Iogonek" unicode="&#x12e;" horiz-adv-x="209" 
d="M104 23c0 0.666992 0.166992 1 0.5 1h0.5zM129 -81.5c5.33301 -9 10.332 -19.332 14.999 -30.999s6.66699 -18.5 6 -20.5c-0.666992 -4.66699 -4 -10.834 -10 -18.501s-14.333 -14.334 -25 -20.001s-23.334 -8.5 -38.001 -8.5c-29.333 0 -52.666 8 -69.999 24
s-26 36.667 -26 62c0 22.667 4 42.5 12 59.5s17.167 30.667 27.5 41s15.5 14.833 15.5 13.5c6 0 16.333 0.333008 31 1s27 1.33398 37 2.00098c-7.33301 -4 -17.333 -13.5 -30 -28.5s-20 -31.833 -22 -50.5c0 -8.66699 2 -16.167 6 -22.5s10 -9.5 18 -9.5
c10.667 0 24.334 5.66699 41.001 17c2.66699 2 6.66699 -1.5 12 -10.5zM47.999 -0.999023c-12.667 0 -21.333 0.333984 -26 1.00098l-5 -1c-8 0 -12 6.33301 -12 19v405v168c0.666992 19.333 1.5 31.166 2.5 35.499s4.5 6.5 10.5 6.5c2.66699 0 6.16699 -0.333008 10.5 -1
s10.166 -1 17.499 -1c2 0 20 -1 54 -3c7.33301 0 11 -4.33301 11 -13c-1.33301 -34 -2 -164.667 -2 -392v-188c0 -12 -0.666992 -20.833 -2 -26.5s-4.66602 -8.5 -9.99902 -8.5z" />
    <glyph glyph-name="iogonek" unicode="&#x12f;" horiz-adv-x="209" 
d="M104 23c0 0.666992 0.166992 1 0.5 1h0.5zM129 -81.5c5.33301 -9 10.332 -19.332 14.999 -30.999s6.66699 -18.5 6 -20.5c-0.666992 -4.66699 -4 -10.834 -10 -18.501s-14.333 -14.334 -25 -20.001s-23.334 -8.5 -38.001 -8.5c-29.333 0 -52.666 8 -69.999 24
s-26 36.667 -26 62c0 22.667 4 42.5 12 59.5s17.167 30.667 27.5 41s15.5 14.833 15.5 13.5c6 0 16.333 0.333008 31 1s27 1.33398 37 2.00098c-7.33301 -4 -17.333 -13.5 -30 -28.5s-20 -31.833 -22 -50.5c0 -8.66699 2 -16.167 6 -22.5s10 -9.5 18 -9.5
c10.667 0 24.334 5.66699 41.001 17c2.66699 2 6.66699 -1.5 12 -10.5zM47.999 -0.999023c-12.667 0 -21.333 0.333984 -26 1.00098l-5 -1c-8 0 -12 6.33301 -12 19v405v168c0.666992 19.333 1.5 31.166 2.5 35.499s4.5 6.5 10.5 6.5c2.66699 0 6.16699 -0.333008 10.5 -1
s10.166 -1 17.499 -1c2 0 20 -1 54 -3c7.33301 0 11 -4.33301 11 -13c-1.33301 -34 -2 -164.667 -2 -392v-188c0 -12 -0.666992 -20.833 -2 -26.5s-4.66602 -8.5 -9.99902 -8.5z" />
    <glyph glyph-name="Kcommaaccent" unicode="&#x136;" horiz-adv-x="411" 
d="M108 622l0.000976562 3.00293c0 4.66699 -1 7.83398 -3 9.50098s-5.66699 2.5 -11 2.5c-30.667 -1.33301 -56 -2 -76 -2c-6 0 -9.83301 -1.33301 -11.5 -4s-2.5 -7.33398 -2.5 -14.001v-606c0 -5.33301 1 -8.66602 3 -9.99902c4 -2 14.667 -3 32 -3
c23.333 0 41 0.666992 53 2c10 1.33301 15 6.33301 15 15l3 288c0 18 7 27 21 27c6 0 13.667 -1.33301 23 -4c14 -3.33301 26.333 -10.5 37 -21.5s17 -24.5 19 -40.5c0.666992 -10.667 1 -35.667 1 -75v-112v-37c0 -2.66699 0.166992 -9.16699 0.5 -19.5
s2.16602 -16.333 5.49902 -18s9.33301 -2.5 18 -2.5h31c22 0 35.333 0.333008 40 1c1.33301 0 2.66602 1.16699 3.99902 3.5s2 4.5 2 6.5c0.666992 4 0.833984 19.333 0.500977 46s-0.5 50 -0.5 70v75v39c2 30.667 -2.66699 56.667 -14 78
c-13.333 23.333 -29.333 40.666 -48 51.999c-4 2.66699 -6 5 -6 7c0 2.66699 2 5 6 7c16.667 9.33301 29.334 23.5 38.001 42.5s13.667 36.167 15 51.5c0.666992 9.33301 1 39.666 1 90.999v36c-0.666992 12.667 -2.16699 20.167 -4.5 22.5s-9.83301 3.5 -22.5 3.5h-44
c-18 0 -27.333 -0.333008 -28 -1s-0.833984 -10 -0.500977 -28s0.5 -33.333 0.5 -46c0.666992 -12.667 1 -27.334 1 -44.001c0 -20.667 -4.66699 -37.834 -14 -51.501s-20.5 -23.5 -33.5 -29.5s-24.833 -9 -35.5 -9c-8.66699 0 -13 1.66699 -13 5
c-1.33301 25.333 -2 90 -2 194zM87.501 -146.997c3 -0.666992 7.16797 -1 12.501 -1c6 -0.666992 14 -1 24 -1c4 0 9.16699 0.166992 15.5 0.5s14.5 0.166016 24.5 -0.500977c13.333 0 23.833 3 31.5 9s14.167 15.667 19.5 29c2 6.66699 3.83301 14.667 5.5 24
s2.16699 17 1.5 23c-0.666992 1.33301 -1.83398 2.66602 -3.50098 3.99902s-3.5 2.33301 -5.5 3l-81 1c-4 0 -6.66699 -1.5 -8 -4.5s-2 -8.5 -2 -16.5c0 -16.667 -4.33301 -31 -13 -43c-2.66699 -3.33301 -7.66699 -6.66602 -15 -9.99902s-11 -6.66602 -11 -9.99902
c0 -4 1.5 -6.33301 4.5 -7z" />
    <glyph glyph-name="kcommaaccent" unicode="&#x137;" horiz-adv-x="411" 
d="M108 622l0.000976562 3.00293c0 4.66699 -1 7.83398 -3 9.50098s-5.66699 2.5 -11 2.5c-30.667 -1.33301 -56 -2 -76 -2c-6 0 -9.83301 -1.33301 -11.5 -4s-2.5 -7.33398 -2.5 -14.001v-606c0 -5.33301 1 -8.66602 3 -9.99902c4 -2 14.667 -3 32 -3
c23.333 0 41 0.666992 53 2c10 1.33301 15 6.33301 15 15l3 288c0 18 7 27 21 27c6 0 13.667 -1.33301 23 -4c14 -3.33301 26.333 -10.5 37 -21.5s17 -24.5 19 -40.5c0.666992 -10.667 1 -35.667 1 -75v-112v-37c0 -2.66699 0.166992 -9.16699 0.5 -19.5
s2.16602 -16.333 5.49902 -18s9.33301 -2.5 18 -2.5h31c22 0 35.333 0.333008 40 1c1.33301 0 2.66602 1.16699 3.99902 3.5s2 4.5 2 6.5c0.666992 4 0.833984 19.333 0.500977 46s-0.5 50 -0.5 70v75v39c2 30.667 -2.66699 56.667 -14 78
c-13.333 23.333 -29.333 40.666 -48 51.999c-4 2.66699 -6 5 -6 7c0 2.66699 2 5 6 7c16.667 9.33301 29.334 23.5 38.001 42.5s13.667 36.167 15 51.5c0.666992 9.33301 1 39.666 1 90.999v36c-0.666992 12.667 -2.16699 20.167 -4.5 22.5s-9.83301 3.5 -22.5 3.5h-44
c-18 0 -27.333 -0.333008 -28 -1s-0.833984 -10 -0.500977 -28s0.5 -33.333 0.5 -46c0.666992 -12.667 1 -27.334 1 -44.001c0 -20.667 -4.66699 -37.834 -14 -51.501s-20.5 -23.5 -33.5 -29.5s-24.833 -9 -35.5 -9c-8.66699 0 -13 1.66699 -13 5
c-1.33301 25.333 -2 90 -2 194zM87.501 -146.997c3 -0.666992 7.16797 -1 12.501 -1c6 -0.666992 14 -1 24 -1c4 0 9.16699 0.166992 15.5 0.5s14.5 0.166016 24.5 -0.500977c13.333 0 23.833 3 31.5 9s14.167 15.667 19.5 29c2 6.66699 3.83301 14.667 5.5 24
s2.16699 17 1.5 23c-0.666992 1.33301 -1.83398 2.66602 -3.50098 3.99902s-3.5 2.33301 -5.5 3l-81 1c-4 0 -6.66699 -1.5 -8 -4.5s-2 -8.5 -2 -16.5c0 -16.667 -4.33301 -31 -13 -43c-2.66699 -3.33301 -7.66699 -6.66602 -15 -9.99902s-11 -6.66602 -11 -9.99902
c0 -4 1.5 -6.33301 4.5 -7z" />
    <glyph glyph-name="Lcommaaccent" unicode="&#x13b;" horiz-adv-x="396" 
d="M117 106.5c-2 2.33301 -3.00293 4.83398 -3.00293 7.50098l-1 205c0 162.667 0.666992 260.667 2 294c0 5.33301 -1 9 -3 11s-5.33301 2.66699 -10 2c-5.33301 -0.666992 -13.666 -1 -24.999 -1l-52 1c-7.33301 0 -12.166 -1.33301 -14.499 -4
s-3.5 -7.33398 -3.5 -14.001c0 -76.667 -0.166992 -176 -0.5 -298s-0.833008 -215.667 -1.5 -281c0 -7.33301 2.16699 -14 6.5 -20s8.83301 -9 13.5 -9c6 -0.666992 41.667 -1 107 -1c104 0 159.333 1 166 3c2.66699 0.666992 5.33398 2.5 8.00098 5.5s4 5.83301 4 8.5
c1.33301 14 2 36.333 2 67c0 7.33301 -1.66699 12.5 -5 15.5s-9 4.5 -17 4.5h-168c-1.33301 0 -3 1.16699 -5 3.5zM87.4971 -146.999c3 -0.666992 7.16797 -1 12.501 -1c6 -0.666992 14 -1 24 -1c4 0 9.16699 0.166992 15.5 0.5s14.5 0.166016 24.5 -0.500977
c13.333 0 23.833 3 31.5 9s14.167 15.667 19.5 29c2 6.66699 3.83301 14.667 5.5 24s2.16699 17 1.5 23c-0.666992 1.33301 -1.83398 2.66602 -3.50098 3.99902s-3.5 2.33301 -5.5 3l-81 1c-4 0 -6.66699 -1.5 -8 -4.5s-2 -8.5 -2 -16.5c0 -16.667 -4.33301 -31 -13 -43
c-2.66699 -3.33301 -7.66699 -6.66602 -15 -9.99902s-11 -6.66602 -11 -9.99902c0 -4 1.5 -6.33301 4.5 -7z" />
    <glyph glyph-name="lcommaaccent" unicode="&#x13c;" horiz-adv-x="396" 
d="M117 106.5c-2 2.33301 -3.00293 4.83398 -3.00293 7.50098l-1 205c0 162.667 0.666992 260.667 2 294c0 5.33301 -1 9 -3 11s-5.33301 2.66699 -10 2c-5.33301 -0.666992 -13.666 -1 -24.999 -1l-52 1c-7.33301 0 -12.166 -1.33301 -14.499 -4
s-3.5 -7.33398 -3.5 -14.001c0 -76.667 -0.166992 -176 -0.5 -298s-0.833008 -215.667 -1.5 -281c0 -7.33301 2.16699 -14 6.5 -20s8.83301 -9 13.5 -9c6 -0.666992 41.667 -1 107 -1c104 0 159.333 1 166 3c2.66699 0.666992 5.33398 2.5 8.00098 5.5s4 5.83301 4 8.5
c1.33301 14 2 36.333 2 67c0 7.33301 -1.66699 12.5 -5 15.5s-9 4.5 -17 4.5h-168c-1.33301 0 -3 1.16699 -5 3.5zM87.4971 -146.999c3 -0.666992 7.16797 -1 12.501 -1c6 -0.666992 14 -1 24 -1c4 0 9.16699 0.166992 15.5 0.5s14.5 0.166016 24.5 -0.500977
c13.333 0 23.833 3 31.5 9s14.167 15.667 19.5 29c2 6.66699 3.83301 14.667 5.5 24s2.16699 17 1.5 23c-0.666992 1.33301 -1.83398 2.66602 -3.50098 3.99902s-3.5 2.33301 -5.5 3l-81 1c-4 0 -6.66699 -1.5 -8 -4.5s-2 -8.5 -2 -16.5c0 -16.667 -4.33301 -31 -13 -43
c-2.66699 -3.33301 -7.66699 -6.66602 -15 -9.99902s-11 -6.66602 -11 -9.99902c0 -4 1.5 -6.33301 4.5 -7z" />
    <glyph glyph-name="Ncommaaccent" unicode="&#x145;" horiz-adv-x="469" 
d="M121 317l5.99902 -11.001l65 -156c32 -76.667 50.667 -120.667 56 -132c2.66699 -5.33301 6.66699 -9.33301 12 -12s10.333 -4 15 -4h9l58 -1c6 0 11.833 2.66699 17.5 8s8.5 12.666 8.5 21.999c-0.666992 46.667 -1 171.334 -1 374.001c-0.666992 64.667 -1 135 -1 211
c0 6.66699 -1.33301 11.167 -4 13.5s-7 3.16602 -13 2.49902c-12.667 -1.33301 -37 -2.66602 -73 -3.99902c-10.667 -0.666992 -17 -2.16699 -19 -4.5s-2.66699 -8.83301 -2 -19.5c2 -60 3 -169.667 3 -329c0 -2.66699 -0.666992 -7.33398 -2 -14.001
c-9.33301 18.667 -31.333 71 -66 157s-60 150.333 -76 193c-1.33301 4.66699 -4.16602 8.16699 -8.49902 10.5s-8.5 3.66602 -12.5 3.99902s-6.66699 0.5 -8 0.5l-59 1c-6.66699 0 -11.334 -1.5 -14.001 -4.5s-4 -7.83301 -4 -14.5v-50
c0 -97.333 -0.333008 -200.666 -1 -309.999s-1 -185 -1 -227c0 -1.33301 1 -4.33301 3 -9s5.33301 -9 10 -13s10.334 -5.33301 17.001 -4c4.66699 0.666992 10.5 1.33398 17.5 2.00098s12.5 1 16.5 1c12 0 20.667 0.333008 26 1c8 0.666992 13.5 2.33398 16.5 5.00098
s4.5 8 4.5 16v215v82h4zM111.499 -147.001c3 -0.666992 7.16797 -1 12.501 -1c6 -0.666992 14 -1 24 -1c4 0 9.16699 0.166992 15.5 0.5s14.5 0.166016 24.5 -0.500977c13.333 0 23.833 3 31.5 9s14.167 15.667 19.5 29c2 6.66699 3.83301 14.667 5.5 24s2.16699 17 1.5 23
c-0.666992 1.33301 -1.83398 2.66602 -3.50098 3.99902s-3.5 2.33301 -5.5 3l-81 1c-4 0 -6.66699 -1.5 -8 -4.5s-2 -8.5 -2 -16.5c0 -16.667 -4.33301 -31 -13 -43c-2.66699 -3.33301 -7.66699 -6.66602 -15 -9.99902s-11 -6.66602 -11 -9.99902c0 -4 1.5 -6.33301 4.5 -7z
" />
    <glyph glyph-name="ncommaaccent" unicode="&#x146;" horiz-adv-x="469" 
d="M121 317l5.99902 -11.001l65 -156c32 -76.667 50.667 -120.667 56 -132c2.66699 -5.33301 6.66699 -9.33301 12 -12s10.333 -4 15 -4h9l58 -1c6 0 11.833 2.66699 17.5 8s8.5 12.666 8.5 21.999c-0.666992 46.667 -1 171.334 -1 374.001c-0.666992 64.667 -1 135 -1 211
c0 6.66699 -1.33301 11.167 -4 13.5s-7 3.16602 -13 2.49902c-12.667 -1.33301 -37 -2.66602 -73 -3.99902c-10.667 -0.666992 -17 -2.16699 -19 -4.5s-2.66699 -8.83301 -2 -19.5c2 -60 3 -169.667 3 -329c0 -2.66699 -0.666992 -7.33398 -2 -14.001
c-9.33301 18.667 -31.333 71 -66 157s-60 150.333 -76 193c-1.33301 4.66699 -4.16602 8.16699 -8.49902 10.5s-8.5 3.66602 -12.5 3.99902s-6.66699 0.5 -8 0.5l-59 1c-6.66699 0 -11.334 -1.5 -14.001 -4.5s-4 -7.83301 -4 -14.5v-50
c0 -97.333 -0.333008 -200.666 -1 -309.999s-1 -185 -1 -227c0 -1.33301 1 -4.33301 3 -9s5.33301 -9 10 -13s10.334 -5.33301 17.001 -4c4.66699 0.666992 10.5 1.33398 17.5 2.00098s12.5 1 16.5 1c12 0 20.667 0.333008 26 1c8 0.666992 13.5 2.33398 16.5 5.00098
s4.5 8 4.5 16v215v82h4zM111.499 -147.001c3 -0.666992 7.16797 -1 12.501 -1c6 -0.666992 14 -1 24 -1c4 0 9.16699 0.166992 15.5 0.5s14.5 0.166016 24.5 -0.500977c13.333 0 23.833 3 31.5 9s14.167 15.667 19.5 29c2 6.66699 3.83301 14.667 5.5 24s2.16699 17 1.5 23
c-0.666992 1.33301 -1.83398 2.66602 -3.50098 3.99902s-3.5 2.33301 -5.5 3l-81 1c-4 0 -6.66699 -1.5 -8 -4.5s-2 -8.5 -2 -16.5c0 -16.667 -4.33301 -31 -13 -43c-2.66699 -3.33301 -7.66699 -6.66602 -15 -9.99902s-11 -6.66602 -11 -9.99902c0 -4 1.5 -6.33301 4.5 -7z
" />
    <glyph glyph-name="Scaron" unicode="&#x160;" horiz-adv-x="406" 
d="M39 264l-40.001 -0.00585938c-5.33301 0 -8.83301 -0.666992 -10.5 -2s-2.5 -4.66602 -2.5 -9.99902v-61c0 -26.667 0.333008 -47 1 -61c0.666992 -19.333 7.33398 -39.666 20.001 -60.999s31.167 -39.166 55.5 -53.499s53.166 -21.5 86.499 -21.5
c48.667 0 86 13.667 112 41s43.167 57 51.5 89s12.5 59.333 12.5 82c0 34 -8.5 64.333 -25.5 91s-33.667 46.667 -50 60s-35.166 27 -56.499 41c-3.33301 2 -6.83301 3.83301 -10.5 5.5s-6.83398 3.16699 -9.50098 4.5c-24 10.667 -43.5 21.667 -58.5 33
s-22.5 25.333 -22.5 42c0 22 6.66699 38 20 48s29.333 15 48 15c14.667 0 28.334 -5.66699 41.001 -17s21.667 -24.333 27 -39c0 -1.33301 2 -2.33301 6 -3s7 -0.333984 9 0.999023c14 7.33301 34.333 19 61 35c7.33301 5.33301 11 9.33301 11 12s-2 7 -6 13
c-0.666992 0.666992 -4.83398 9 -12.501 25s-24.167 32.167 -49.5 48.5s-54.333 24.5 -87 24.5c-36 0 -67.333 -7.66699 -94 -23s-47 -34.666 -61 -57.999s-21 -46.666 -21 -69.999c0 -32 6.5 -59.167 19.5 -81.5s28.5 -40.166 46.5 -53.499s41.333 -27.666 70 -42.999
c31.333 -17.333 54.5 -32.833 69.5 -46.5s22.5 -31.167 22.5 -52.5c0 -33.333 -3.5 -59.333 -10.5 -78s-21.5 -28 -43.5 -28c-20 0 -34.833 8.16699 -44.5 24.5s-15.5 31.833 -17.5 46.5c-0.666992 8 -1 21.333 -1 40c0 22 -1.33301 34 -4 36
c-3.33301 3.33301 -20.666 5 -51.999 5zM219.999 748.994c16.667 10.667 28.333 18.666 35 23.999c8.66699 8 13 14.333 13 19c0 3.33301 -4.33301 9 -13 17c-4 5.33301 -10 15 -18 29c-3.33301 6.66699 -9 10 -17 10c-5.33301 0 -10.333 -2.66699 -15 -8l-36 -34
c-11.333 -8 -19 -12 -23 -12c-4.66699 0 -11 3.66699 -19 11l-37 38c-3.33301 2 -6 3 -8 3c-5.33301 0 -8.66602 -1.66699 -9.99902 -5l-17 -19.5c-8 -9 -14 -17.167 -18 -24.5c-0.666992 -2.66699 -1 -5.66699 -1 -9c0 -5.33301 2.66699 -9.66602 8 -12.999l40 -30
c20.667 -16.667 34 -26.667 40 -30c12 -6.66699 20.667 -10 26 -10c3.33301 0 7.66602 1.5 12.999 4.5s9 5.16699 11 6.5c34 24.667 49.333 35.667 46 33z" />
    <glyph glyph-name="scaron" unicode="&#x161;" horiz-adv-x="406" 
d="M39 264l-40.001 -0.00585938c-5.33301 0 -8.83301 -0.666992 -10.5 -2s-2.5 -4.66602 -2.5 -9.99902v-61c0 -26.667 0.333008 -47 1 -61c0.666992 -19.333 7.33398 -39.666 20.001 -60.999s31.167 -39.166 55.5 -53.499s53.166 -21.5 86.499 -21.5
c48.667 0 86 13.667 112 41s43.167 57 51.5 89s12.5 59.333 12.5 82c0 34 -8.5 64.333 -25.5 91s-33.667 46.667 -50 60s-35.166 27 -56.499 41c-3.33301 2 -6.83301 3.83301 -10.5 5.5s-6.83398 3.16699 -9.50098 4.5c-24 10.667 -43.5 21.667 -58.5 33
s-22.5 25.333 -22.5 42c0 22 6.66699 38 20 48s29.333 15 48 15c14.667 0 28.334 -5.66699 41.001 -17s21.667 -24.333 27 -39c0 -1.33301 2 -2.33301 6 -3s7 -0.333984 9 0.999023c14 7.33301 34.333 19 61 35c7.33301 5.33301 11 9.33301 11 12s-2 7 -6 13
c-0.666992 0.666992 -4.83398 9 -12.501 25s-24.167 32.167 -49.5 48.5s-54.333 24.5 -87 24.5c-36 0 -67.333 -7.66699 -94 -23s-47 -34.666 -61 -57.999s-21 -46.666 -21 -69.999c0 -32 6.5 -59.167 19.5 -81.5s28.5 -40.166 46.5 -53.499s41.333 -27.666 70 -42.999
c31.333 -17.333 54.5 -32.833 69.5 -46.5s22.5 -31.167 22.5 -52.5c0 -33.333 -3.5 -59.333 -10.5 -78s-21.5 -28 -43.5 -28c-20 0 -34.833 8.16699 -44.5 24.5s-15.5 31.833 -17.5 46.5c-0.666992 8 -1 21.333 -1 40c0 22 -1.33301 34 -4 36
c-3.33301 3.33301 -20.666 5 -51.999 5zM219.999 748.994c16.667 10.667 28.333 18.666 35 23.999c8.66699 8 13 14.333 13 19c0 3.33301 -4.33301 9 -13 17c-4 5.33301 -10 15 -18 29c-3.33301 6.66699 -9 10 -17 10c-5.33301 0 -10.333 -2.66699 -15 -8l-36 -34
c-11.333 -8 -19 -12 -23 -12c-4.66699 0 -11 3.66699 -19 11l-37 38c-3.33301 2 -6 3 -8 3c-5.33301 0 -8.66602 -1.66699 -9.99902 -5l-17 -19.5c-8 -9 -14 -17.167 -18 -24.5c-0.666992 -2.66699 -1 -5.66699 -1 -9c0 -5.33301 2.66699 -9.66602 8 -12.999l40 -30
c20.667 -16.667 34 -26.667 40 -30c12 -6.66699 20.667 -10 26 -10c3.33301 0 7.66602 1.5 12.999 4.5s9 5.16699 11 6.5c34 24.667 49.333 35.667 46 33z" />
    <glyph glyph-name="Umacron" unicode="&#x16a;" 
d="M39.5 635c13.667 0.666992 30.167 0.99707 49.5 0.99707c5.33301 0 8.83301 -1.16699 10.5 -3.5s2.5 -6.16602 2.5 -11.499v-138v-312c0 -3.33301 1.5 -10.333 4.5 -21s8.83301 -20.834 17.5 -30.501s21 -14.5 37 -14.5s28 4.16699 36 12.5s13 16.833 15 25.5
s3.66699 20 5 34c0.666992 8.66699 1 49.334 1 122.001c0 207.333 -0.666992 313 -2 317c0 8 1.66699 13.5 5 16.5s7 4.66699 11 5s6.66699 0.5 8 0.5h56c1.33301 0 3.5 -0.666992 6.5 -2s6 -3.66602 9 -6.99902s4.5 -7.66602 4.5 -12.999
c1.33301 -38.667 2 -158.667 2 -360c0 -67.333 -0.333008 -103 -1 -107c-2.66699 -22.667 -9.33398 -46 -20.001 -70s-26.667 -44.5 -48 -61.5s-48 -25.5 -80 -25.5c-36.667 0 -67 8.16699 -91 24.5s-41.667 35.5 -53 57.5s-17 42 -17 60v323v139l-1 21
c0 11.333 1.66699 17 5 17c4.66699 0 13.834 0.333008 27.501 1zM52 790.497c-2.66699 -3 -4.00293 -5.50195 -4.00293 -7.50195c-1.33301 -14.667 -2 -23 -2 -25l1 -19c0.666992 -9.33301 4 -16.666 10 -21.999s14 -7.66602 24 -6.99902
c10.667 0.666992 39.334 1.33398 86.001 2.00098s79.334 1 98.001 1c5.33301 0 8 3.33301 8 10l1 31c0 10 -0.333008 17.333 -1 22c-1.33301 7.33301 -3.66602 12.166 -6.99902 14.499s-9 3.5 -17 3.5c-1.33301 0 -17.333 0.333008 -48 1s-62 1 -94 1
c-26 0 -42 -0.333008 -48 -1c-2 0 -4.33301 -1.5 -7 -4.5z" />
    <glyph glyph-name="umacron" unicode="&#x16b;" 
d="M39.5 635c13.667 0.666992 30.167 0.99707 49.5 0.99707c5.33301 0 8.83301 -1.16699 10.5 -3.5s2.5 -6.16602 2.5 -11.499v-138v-312c0 -3.33301 1.5 -10.333 4.5 -21s8.83301 -20.834 17.5 -30.501s21 -14.5 37 -14.5s28 4.16699 36 12.5s13 16.833 15 25.5
s3.66699 20 5 34c0.666992 8.66699 1 49.334 1 122.001c0 207.333 -0.666992 313 -2 317c0 8 1.66699 13.5 5 16.5s7 4.66699 11 5s6.66699 0.5 8 0.5h56c1.33301 0 3.5 -0.666992 6.5 -2s6 -3.66602 9 -6.99902s4.5 -7.66602 4.5 -12.999
c1.33301 -38.667 2 -158.667 2 -360c0 -67.333 -0.333008 -103 -1 -107c-2.66699 -22.667 -9.33398 -46 -20.001 -70s-26.667 -44.5 -48 -61.5s-48 -25.5 -80 -25.5c-36.667 0 -67 8.16699 -91 24.5s-41.667 35.5 -53 57.5s-17 42 -17 60v323v139l-1 21
c0 11.333 1.66699 17 5 17c4.66699 0 13.834 0.333008 27.501 1zM52 790.497c-2.66699 -3 -4.00293 -5.50195 -4.00293 -7.50195c-1.33301 -14.667 -2 -23 -2 -25l1 -19c0.666992 -9.33301 4 -16.666 10 -21.999s14 -7.66602 24 -6.99902
c10.667 0.666992 39.334 1.33398 86.001 2.00098s79.334 1 98.001 1c5.33301 0 8 3.33301 8 10l1 31c0 10 -0.333008 17.333 -1 22c-1.33301 7.33301 -3.66602 12.166 -6.99902 14.499s-9 3.5 -17 3.5c-1.33301 0 -17.333 0.333008 -48 1s-62 1 -94 1
c-26 0 -42 -0.333008 -48 -1c-2 0 -4.33301 -1.5 -7 -4.5z" />
    <glyph glyph-name="Uogonek" unicode="&#x172;" 
d="M208 31c0 0.666992 0.166992 1 0.5 1h0.5zM233 -73.5c5.33301 -9 10.333 -19.332 15 -30.999s6.66699 -18.5 6 -20.5c-0.666992 -4.66699 -4 -10.834 -10 -18.501s-14.333 -14.334 -25 -20.001s-23.334 -8.5 -38.001 -8.5c-29.333 0 -52.666 8 -69.999 24
s-26 36.667 -26 62c0 22.667 4 42.5 12 59.5s17.167 30.667 27.5 41s15.5 14.833 15.5 13.5c6 0 16.333 0.333008 31 1s27 1.33398 37 2.00098c-7.33301 -4 -17.333 -13.5 -30 -28.5s-20 -31.833 -22 -50.5c0 -8.66699 2 -16.167 6 -22.5s10 -9.5 18 -9.5
c10 0 23.667 5.66699 41 17c2.66699 2 6.66699 -1.5 12 -10.5zM39.5 635.001c13.667 0.666992 30.167 0.99707 49.5 0.99707c5.33301 0 8.83301 -1.16699 10.5 -3.5s2.5 -6.16602 2.5 -11.499v-138v-312c0 -3.33301 1.5 -10.333 4.5 -21s8.83301 -20.834 17.5 -30.501
s21 -14.5 37 -14.5s28 4.16699 36 12.5s13 16.833 15 25.5s3.66699 20 5 34c0.666992 8.66699 1 49.334 1 122.001c0 207.333 -0.666992 313 -2 317c0 8 1.66699 13.5 5 16.5s7 4.66699 11 5s6.66699 0.5 8 0.5h56c1.33301 0 3.5 -0.666992 6.5 -2s6 -3.66602 9 -6.99902
s4.5 -7.66602 4.5 -12.999c1.33301 -38.667 2 -158.667 2 -360c0 -67.333 -0.333008 -103 -1 -107c-2.66699 -22.667 -9.33398 -46 -20.001 -70s-26.667 -44.5 -48 -61.5s-48 -25.5 -80 -25.5c-36.667 0 -67 8.16699 -91 24.5s-41.667 35.5 -53 57.5s-17 42 -17 60v323v139
l-1 21c0 11.333 1.66699 17 5 17c4.66699 0 13.834 0.333008 27.501 1z" />
    <glyph glyph-name="uogonek" unicode="&#x173;" 
d="M208 31c0 0.666992 0.166992 1 0.5 1h0.5zM233 -73.5c5.33301 -9 10.333 -19.332 15 -30.999s6.66699 -18.5 6 -20.5c-0.666992 -4.66699 -4 -10.834 -10 -18.501s-14.333 -14.334 -25 -20.001s-23.334 -8.5 -38.001 -8.5c-29.333 0 -52.666 8 -69.999 24
s-26 36.667 -26 62c0 22.667 4 42.5 12 59.5s17.167 30.667 27.5 41s15.5 14.833 15.5 13.5c6 0 16.333 0.333008 31 1s27 1.33398 37 2.00098c-7.33301 -4 -17.333 -13.5 -30 -28.5s-20 -31.833 -22 -50.5c0 -8.66699 2 -16.167 6 -22.5s10 -9.5 18 -9.5
c10 0 23.667 5.66699 41 17c2.66699 2 6.66699 -1.5 12 -10.5zM39.5 635.001c13.667 0.666992 30.167 0.99707 49.5 0.99707c5.33301 0 8.83301 -1.16699 10.5 -3.5s2.5 -6.16602 2.5 -11.499v-138v-312c0 -3.33301 1.5 -10.333 4.5 -21s8.83301 -20.834 17.5 -30.501
s21 -14.5 37 -14.5s28 4.16699 36 12.5s13 16.833 15 25.5s3.66699 20 5 34c0.666992 8.66699 1 49.334 1 122.001c0 207.333 -0.666992 313 -2 317c0 8 1.66699 13.5 5 16.5s7 4.66699 11 5s6.66699 0.5 8 0.5h56c1.33301 0 3.5 -0.666992 6.5 -2s6 -3.66602 9 -6.99902
s4.5 -7.66602 4.5 -12.999c1.33301 -38.667 2 -158.667 2 -360c0 -67.333 -0.333008 -103 -1 -107c-2.66699 -22.667 -9.33398 -46 -20.001 -70s-26.667 -44.5 -48 -61.5s-48 -25.5 -80 -25.5c-36.667 0 -67 8.16699 -91 24.5s-41.667 35.5 -53 57.5s-17 42 -17 60v323v139
l-1 21c0 11.333 1.66699 17 5 17c4.66699 0 13.834 0.333008 27.501 1z" />
    <glyph glyph-name="Zcaron" unicode="&#x17d;" horiz-adv-x="438" 
d="M227.5 528.5c-0.333008 -1.66699 -0.835938 -2.83008 -1.50293 -3.49707l-127 -249.5c-62 -121.667 -93.667 -184.834 -95 -189.501c-1.33301 -10.667 -2 -19.334 -2 -26.001l1 -37c0 -10 1.33301 -16.5 4 -19.5s8.66699 -4.5 18 -4.5c10.667 -0.666992 60.667 -1 150 -1
h141c15.333 0 23.333 6 24 18v21c0 4.66699 -0.166992 10.5 -0.5 17.5s-0.166016 15.167 0.500977 24.5c0 13.333 -7 20 -21 20l-136 -1c-36 0 -54.333 0.666992 -55 2c-1.33301 2 26.667 59.167 84 171.5l131 254.5c6 9.33301 9.33301 15.666 10 18.999
c0.666992 12 1 33.667 1 65c0 6.66699 -2.83301 11.5 -8.5 14.5s-12.167 4.5 -19.5 4.5h-31c-66.667 -1.33301 -137.667 -2 -213 -2l-57 1c-5.33301 0 -9.16602 -1 -11.499 -3s-3.83301 -5.33301 -4.5 -10c-0.666992 -6.66699 -1 -25.667 -1 -57
c0 -15.333 6.66699 -24.333 20 -27h196c2.66699 0 3.83398 -0.833008 3.50098 -2.5zM256.997 749.004c16.667 10.667 28.333 18.666 35 23.999c8.66699 8 13 14.333 13 19c0 3.33301 -4.33301 9 -13 17c-4 5.33301 -10 15 -18 29c-3.33301 6.66699 -9 10 -17 10
c-5.33301 0 -10.333 -2.66699 -15 -8l-36 -34c-11.333 -8 -19 -12 -23 -12c-4.66699 0 -11 3.66699 -19 11l-37 38c-3.33301 2 -6 3 -8 3c-5.33301 0 -8.66602 -1.66699 -9.99902 -5l-17 -19.5c-8 -9 -14 -17.167 -18 -24.5c-0.666992 -2.66699 -1 -5.66699 -1 -9
c0 -5.33301 2.66699 -9.66602 8 -12.999l40 -30c20.667 -16.667 34 -26.667 40 -30c12 -6.66699 20.667 -10 26 -10c3.33301 0 7.66602 1.5 12.999 4.5s9 5.16699 11 6.5c34 24.667 49.333 35.667 46 33z" />
    <glyph glyph-name="zcaron" unicode="&#x17e;" horiz-adv-x="438" 
d="M227.5 528.5c-0.333008 -1.66699 -0.835938 -2.83008 -1.50293 -3.49707l-127 -249.5c-62 -121.667 -93.667 -184.834 -95 -189.501c-1.33301 -10.667 -2 -19.334 -2 -26.001l1 -37c0 -10 1.33301 -16.5 4 -19.5s8.66699 -4.5 18 -4.5c10.667 -0.666992 60.667 -1 150 -1
h141c15.333 0 23.333 6 24 18v21c0 4.66699 -0.166992 10.5 -0.5 17.5s-0.166016 15.167 0.500977 24.5c0 13.333 -7 20 -21 20l-136 -1c-36 0 -54.333 0.666992 -55 2c-1.33301 2 26.667 59.167 84 171.5l131 254.5c6 9.33301 9.33301 15.666 10 18.999
c0.666992 12 1 33.667 1 65c0 6.66699 -2.83301 11.5 -8.5 14.5s-12.167 4.5 -19.5 4.5h-31c-66.667 -1.33301 -137.667 -2 -213 -2l-57 1c-5.33301 0 -9.16602 -1 -11.499 -3s-3.83301 -5.33301 -4.5 -10c-0.666992 -6.66699 -1 -25.667 -1 -57
c0 -15.333 6.66699 -24.333 20 -27h196c2.66699 0 3.83398 -0.833008 3.50098 -2.5zM250.997 749.004c16.667 10.667 28.333 18.666 35 23.999c8.66699 8 13 14.333 13 19c0 3.33301 -4.33301 9 -13 17c-4 5.33301 -10 15 -18 29c-3.33301 6.66699 -9 10 -17 10
c-5.33301 0 -10.333 -2.66699 -15 -8l-36 -34c-11.333 -8 -19 -12 -23 -12c-4.66699 0 -11 3.66699 -19 11l-37 38c-3.33301 2 -6 3 -8 3c-5.33301 0 -8.66602 -1.66699 -9.99902 -5l-17 -19.5c-8 -9 -14 -17.167 -18 -24.5c-0.666992 -2.66699 -1 -5.66699 -1 -9
c0 -5.33301 2.66699 -9.66602 8 -12.999l40 -30c20.667 -16.667 34 -26.667 40 -30c12 -6.66699 20.667 -10 26 -10c3.33301 0 7.66602 1.5 12.999 4.5s9 5.16699 11 6.5c34 24.667 49.333 35.667 46 33z" />
    <glyph glyph-name="uni0304" unicode="&#x304;" horiz-adv-x="0" 
d="M-268 790.5c-2.66699 -3 -4.00293 -5.50195 -4.00293 -7.50195c-1.33301 -14.667 -2 -23 -2 -25l1 -19c0.666992 -9.33301 4 -16.666 10 -21.999s14 -7.66602 24 -6.99902c10.667 0.666992 39.334 1.33398 86.001 2.00098s79.334 1 98.001 1c5.33301 0 8 3.33301 8 10
l1 31c0 10 -0.333008 17.333 -1 22c-1.33301 7.33301 -3.66602 12.166 -6.99902 14.499s-9 3.5 -17 3.5c-1.33301 0 -17.333 0.333008 -48 1s-62 1 -94 1c-26 0 -42 -0.333008 -48 -1c-2 0 -4.33301 -1.5 -7 -4.5z" />
    <glyph glyph-name="uni0308" unicode="&#x308;" horiz-adv-x="0" 
d="M-170 768c-10.667 -0.666992 -16.667 -6.66797 -18 -18.001c-0.666992 -3.33301 -1 -8.33301 -1 -15c0 -10 0.333008 -17.667 1 -23l1 -23c0 -2.66699 1 -5.16699 3 -7.5s4 -4.16602 6 -5.49902c5.33301 -3.33301 12 -5 20 -5l26 1c6 0.666992 15 1 27 1
c6.66699 0.666992 11 2 13 4s2.66699 6.33301 2 13c-0.666992 4 -1 10 -1 18l1 35c-0.666992 10 -1.5 16.667 -2.5 20s-3 5.5 -6 6.5s-9.16699 1.5 -18.5 1.5zM-322 690.999c0.666992 -10.667 6.66504 -16.668 17.998 -18.001c4.66699 -0.666992 11.334 -1 20.001 -1l41 1
c4.66699 0 9.33398 3 14.001 9c3.33301 6.66699 5 13.334 5 20.001l-3 53c0 6 -0.833008 10 -2.5 12s-5.16699 3 -10.5 3h-56c-13.333 -0.666992 -21.5 -2.66699 -24.5 -6s-4.16699 -11.333 -3.5 -24c0 -12.667 0.666992 -29 2 -49z" />
    <glyph glyph-name="uni030C" unicode="&#x30c;" horiz-adv-x="0" 
d="M-83 749c16.667 10.667 28.333 18.666 35 23.999c8.66699 8 13 14.333 13 19c0 3.33301 -4.33301 9 -13 17c-4 5.33301 -10 15 -18 29c-3.33301 6.66699 -9 10 -17 10c-5.33301 0 -10.333 -2.66699 -15 -8l-36 -34c-11.333 -8 -19 -12 -23 -12
c-4.66699 0 -11 3.66699 -19 11l-37 38c-3.33301 2 -6 3 -8 3c-5.33301 0 -8.66602 -1.66699 -9.99902 -5l-17 -19.5c-8 -9 -14 -17.167 -18 -24.5c-0.666992 -2.66699 -1 -5.66699 -1 -9c0 -5.33301 2.66699 -9.66602 8 -12.999l40 -30c20.667 -16.667 34 -26.667 40 -30
c12 -6.66699 20.667 -10 26 -10c3.33301 0 7.66602 1.5 12.999 4.5s9 5.16699 11 6.5c34 24.667 49.333 35.667 46 33z" />
    <glyph glyph-name="uni0326" unicode="&#x326;" horiz-adv-x="0" 
d="M-217.5 -147c3 -0.666992 7.16797 -1 12.501 -1c6 -0.666992 14 -1 24 -1c4 0 9.16699 0.166992 15.5 0.5s14.5 0.166016 24.5 -0.500977c13.333 0 23.833 3 31.5 9s14.167 15.667 19.5 29c2 6.66699 3.83301 14.667 5.5 24s2.16699 17 1.5 23
c-0.666992 1.33301 -1.83398 2.66602 -3.50098 3.99902s-3.5 2.33301 -5.5 3l-81 1c-4 0 -6.66699 -1.5 -8 -4.5s-2 -8.5 -2 -16.5c0 -16.667 -4.33301 -31 -13 -43c-2.66699 -3.33301 -7.66699 -6.66602 -15 -9.99902s-11 -6.66602 -11 -9.99902c0 -4 1.5 -6.33301 4.5 -7z
" />
    <glyph glyph-name="uni0401" unicode="&#x401;" horiz-adv-x="394" 
d="M189 768c-10.667 -0.666992 -16.668 -6.66797 -18.001 -18.001l-1 -15l1 -23c0.666992 -5.33301 1 -13 1 -23c0 -2.66699 1 -5.16699 3 -7.5s4 -4.16602 6 -5.49902c4.66699 -3.33301 11.334 -5 20.001 -5l27 1c5.33301 0.666992 14 1 26 1c6.66699 0.666992 11 2 13 4
s2.66699 6.33301 2 13c-0.666992 4 -1 10 -1 18l1 35c-0.666992 10 -1.5 16.667 -2.5 20s-3 5.5 -6 6.5s-9.16699 1.5 -18.5 1.5zM36.999 690.999c0.666992 -10.667 6.66504 -16.668 17.998 -18.001c4.66699 -0.666992 11.334 -1 20.001 -1l41 1
c4.66699 0 9.33398 3 14.001 9c3.33301 6.66699 5 13.334 5 20.001l-3 53c0 6 -0.833008 10 -2.5 12s-5.16699 3 -10.5 3h-56c-13.333 -0.666992 -21.5 -2.66699 -24.5 -6s-4.16699 -11.333 -3.5 -24c0 -12.667 0.666992 -29 2 -49zM154.997 305.998
c33.333 0 59.6641 2.00098 78.9971 6.00098c2.66699 0.666992 5.33398 2.5 8.00098 5.5s4.33398 5.83301 5.00098 8.5c3.33301 20.667 4.66602 37.334 3.99902 50.001c0 16.667 -5.66699 25 -17 25c-6.66699 0.666992 -29 1 -67 1c-25.333 0 -40.666 -0.333008 -45.999 -1
c-9.33301 0 -14 4.66699 -14 14l-1 109v4c0 6 1.16699 10.167 3.5 12.5s6.16602 3.5 11.499 3.5h47c68 0 106.667 1 116 3c4 1.33301 8.16699 11.166 12.5 29.499s6.5 34.5 6.5 48.5c0 11.333 -1.66699 17 -5 17h-282c-4 0 -7.33301 -1.5 -10 -4.5s-4 -6.83301 -4 -11.5
c0.666992 -2.66699 1.66699 -115.334 3 -338.001c2 -126 3 -214.333 3 -265c0 -12.667 6 -19.667 18 -21c14 -2 59.333 -3 136 -3c63.333 0 103 1 119 3c15.333 2 23 10 23 24c0 6 0.333008 13.333 1 22s0.666992 15.667 0 21c0 8 -1.66699 15.167 -5 21.5
s-7.66602 9.5 -12.999 9.5h-161c-5.33301 0 -9.16602 1 -11.499 3s-3.5 5.66699 -3.5 11c-2 76 -3 128.667 -3 158c0 21.333 0.333008 33 1 35z" />
    <glyph glyph-name="uni0404" unicode="&#x404;" horiz-adv-x="407" 
d="M348.5 116.5c-12.333 11.667 -25.5059 23.168 -39.5059 34.501l-24 21c-2 2 -4 3 -6 3c-4 0 -8 -2.66699 -12 -8l-16 -33.5c-10 -21 -32.333 -31.167 -67 -30.5c-28.667 0 -48 18.333 -58 55s-15 73.334 -15 110.001c0 11.333 1.16699 18.333 3.5 21s8.83301 4 19.5 4
l59 -1c0.666992 0 2 0.166992 4 0.5s4 1.5 6 3.5s3 5 3 9l1 84c0 4.66699 -1 8 -3 10s-4 3.16699 -6 3.5s-3.33301 0.5 -4 0.5l-63 2c-1.33301 0 -3.66602 0.5 -6.99902 1.5s-6.33301 2.5 -9 4.5s-4 4.66699 -4 8c0 2 0.666992 14.167 2 36.5s8 43.166 20 62.499
s28.667 29 50 29c11.333 0 24.833 -5.83301 40.5 -17.5s26.834 -23.5 33.501 -35.5c2 -2 4 -3 6 -3c4 0 8.33301 3 13 9c3.33301 4 19 24.667 47 62c3.33301 4 5 8.66699 5 14s-1.66699 9.66602 -5 12.999c-20 21.333 -43.833 38.166 -71.5 50.499s-54.5 18.5 -80.5 18.5
c-33.333 0 -62.666 -11.333 -87.999 -34s-45 -51 -59 -85s-21 -67 -21 -99c-0.666992 -36.667 -1 -92 -1 -166c0 -63.333 8.83301 -117 26.5 -161s41.334 -76.667 71.001 -98s62.167 -32 97.5 -32c30.667 0 58.834 7.83301 84.501 23.5s46.334 32.834 62.001 51.501
s23.5 30.667 23.5 36c0 3.33301 -6.16699 10.833 -18.5 22.5z" />
    <glyph glyph-name="uni0406" unicode="&#x406;" horiz-adv-x="209" 
d="M48 -1c-12.667 0 -21.333 0.333984 -26 1.00098l-5 -1c-8 0 -12 6.33301 -12 19v405v168c0.666992 19.333 1.5 31.166 2.5 35.499s4.5 6.5 10.5 6.5c2.66699 0 6.16699 -0.333008 10.5 -1s10.166 -1 17.499 -1c2 0 20 -1 54 -3c7.33301 0 11 -4.33301 11 -13
c-1.33301 -34 -2 -164.667 -2 -392v-188c0 -12 -0.666992 -20.833 -2 -26.5s-4.66602 -8.5 -9.99902 -8.5z" />
    <glyph glyph-name="uni0407" unicode="&#x407;" horiz-adv-x="209" 
d="M48 -1c-12.667 0 -21.333 0.333984 -26 1.00098l-5 -1c-8 0 -12 6.33301 -12 19v405v168c0.666992 19.333 1.5 31.166 2.5 35.499s4.5 6.5 10.5 6.5c2.66699 0 6.16699 -0.333008 10.5 -1s10.166 -1 17.499 -1c2 0 20 -1 54 -3c7.33301 0 11 -4.33301 11 -13
c-1.33301 -34 -2 -164.667 -2 -392v-188c0 -12 -0.666992 -20.833 -2 -26.5s-4.66602 -8.5 -9.99902 -8.5zM90.001 768.001c-10.667 -0.666992 -16.668 -6.66797 -18.001 -18.001l-1 -15l1 -23c0.666992 -5.33301 1 -13 1 -23c0 -2.66699 1 -5.16699 3 -7.5
s4 -4.16602 6 -5.49902c4.66699 -3.33301 11.334 -5 20.001 -5l27 1c5.33301 0.666992 14 1 26 1c6.66699 0.666992 11 2 13 4s2.66699 6.33301 2 13c-0.666992 4 -1 10 -1 18l1 35c-0.666992 10 -1.5 16.667 -2.5 20s-3 5.5 -6 6.5s-9.16699 1.5 -18.5 1.5zM-62 691
c0.666992 -10.667 6.66504 -16.668 17.998 -18.001c4.66699 -0.666992 11.334 -1 20.001 -1l41 1c4.66699 0 9.33398 3 14.001 9c3.33301 6.66699 5 13.334 5 20.001l-3 53c0 6 -0.833008 10 -2.5 12s-5.16699 3 -10.5 3h-56c-13.333 -0.666992 -21.5 -2.66699 -24.5 -6
s-4.16699 -11.333 -3.5 -24c0 -12.667 0.666992 -29 2 -49z" />
    <glyph glyph-name="uni0410" unicode="&#x410;" horiz-adv-x="414" 
d="M23 220l-48.002 -187.001c-0.666992 -1.33301 -1 -3.66602 -1 -6.99902c0 -9.33301 6 -15 18 -17c4 -0.666992 9.33301 -1.33398 16 -2.00098s14.334 -2 23.001 -4c8 -1.33301 13.333 -2 16 -2c8 0 14.5 2.16699 19.5 6.5s9.5 11.5 13.5 21.5
c1.33301 4 4.66602 16.833 9.99902 38.5s9.33301 35.834 12 42.501c1.33301 2.66699 3.33301 5.16699 6 7.5s5.33398 3.5 8.00098 3.5l111 1c8 0 13 -3.66699 15 -11l22 -102c1.33301 -6.66699 3.33301 -11.5 6 -14.5s6.33398 -4.5 11.001 -4.5c2 0 5.66699 0.666992 11 2
c14 3.33301 27.667 7.33301 41 12c9.33301 3.33301 16 6.83301 20 10.5s6 8.83398 6 15.501c0 4.66699 -1 11 -3 19l-40 178l-46 204c-24 107.333 -38.333 168.666 -43 183.999c-1.33301 5.33301 -17.833 7.83301 -49.5 7.5s-48.5 -0.5 -50.5 -0.5zM176.998 423.999
c4.66699 0 10.3311 -16.666 16.998 -49.999l9 -53c8 -49.333 12.667 -76.666 14 -81.999c0.666992 -2.66699 1 -6.33398 1 -11.001c0 -4 -1.16699 -6.66699 -3.5 -8s-6.83301 -2 -13.5 -2c-25.333 -1.33301 -46 -2 -62 -2c-7.33301 0 -10 4 -8 12
c4.66699 19.333 11.334 49.666 20.001 90.999c10.667 52 17.334 83 20.001 93c2.66699 8 4.66699 12 6 12z" />
    <glyph glyph-name="uni0411" unicode="&#x411;" horiz-adv-x="433" 
d="M101 642c-47.333 0 -76.333 -0.332031 -87 -0.999023c-2 -0.666992 -4.16699 -1.83398 -6.5 -3.50098s-3.83301 -3.5 -4.5 -5.5c-0.666992 -4.66699 -1 -45 -1 -121c0 -190 0.666992 -343.667 2 -461v-36c0 -13.333 4.33301 -20 13 -20l162 -2
c37.333 0 68.333 9.5 93 28.5s42.5 42.167 53.5 69.5s16.5 54 16.5 80v39c0 23.333 -1 46 -3 68c-1.33301 28.667 -19.333 61.334 -54 98.001c-29.333 29.333 -76.333 44 -141 44c-12 0 -20.5 -0.166992 -25.5 -0.5s-8.16699 -0.5 -9.5 -0.5c-9.33301 0 -14 4 -14 12
c-0.666992 11.333 -1 31.666 -1 60.999c-0.666992 10 -1 23.333 -1 40c0 2 1.16699 4.16699 3.5 6.5s4.5 3.83301 6.5 4.5s13.667 1 35 1l105 -1c8.66699 0 16.667 11 24 33s11 40.667 11 56c0 6.66699 -1 10 -3 10zM212.5 296.501
c12.333 -14.333 20.668 -30.167 25.001 -47.5s6.5 -31.333 6.5 -42c0 -14 -2.5 -30.5 -7.5 -49.5s-13 -35.667 -24 -50s-25.167 -21.5 -42.5 -21.5l-55 1c-0.666992 0 -2.16699 0.5 -4.5 1.5s-4.5 2.5 -6.5 4.5s-3 4.66699 -3 8c0 34 -0.333008 70.667 -1 110
s-1.33398 70 -2.00098 92c0 9.33301 4.33301 14 13 14c12 0.666992 28.333 1 49 1c22.667 0 40.167 -7.16699 52.5 -21.5z" />
    <glyph glyph-name="uni0412" unicode="&#x412;" horiz-adv-x="439" 
d="M4 445c0 -96.667 0.333984 -186.331 1.00098 -268.998s1.33398 -138.667 2.00098 -168c0 -0.666992 1.33301 -3.83398 4 -9.50098s5.66699 -9.16699 9 -10.5c5.33301 -1.33301 16.333 -2 33 -2c23.333 0 52 0.833008 86 2.5s59.667 3.16699 77 4.5
c31.333 3.33301 56 13.333 74 30c17.333 16 30.666 34.333 39.999 55s14 42.334 14 65.001c0.666992 47.333 -1 97.666 -5 150.999c-0.666992 20 -6.5 40.833 -17.5 62.5s-22.167 36.834 -33.5 45.501c-9.33301 6.66699 -14 11.334 -14 14.001
c0 1.33301 1.33301 3.16602 4 5.49902s4.33398 4.5 5.00098 6.5c7.33301 15.333 11.666 26.333 12.999 33c2 9.33301 3 22.666 3 39.999c0 50 -13.333 87.667 -40 113c-12 13.333 -25.833 22.666 -41.5 27.999s-33.834 8 -54.501 8l-97 1c-22 0 -38.333 -0.333008 -49 -1
c-2.66699 -0.666992 -5.16699 -2 -7.5 -4s-3.5 -3.66699 -3.5 -5c-1.33301 -12 -2 -77.333 -2 -196zM150.001 553.003c6.66699 0 12.5 -0.833984 17.5 -2.50098s9.16699 -5.16699 12.5 -10.5c10 -14 15 -28.667 15 -44c0 -25.333 -15 -41.666 -45 -48.999
c-4.66699 -1.33301 -11 -2 -19 -2h-19h-3c-7.33301 0 -11 4 -11 12c-0.666992 11.333 -1 28 -1 50c-0.666992 7.33301 -1 18.333 -1 33c0 2 1 4.16699 3 6.5s4 3.83301 6 4.5s11.667 1.66699 29 3c4 -0.666992 9.33301 -1 16 -1zM242.001 218.002
c0 -28 -3.33203 -55.332 -9.99902 -81.999c-3.33301 -12.667 -10 -23.667 -20 -33s-21.333 -14.666 -34 -15.999h-30c-3.33301 0 -7.5 0.166992 -12.5 0.5s-10.833 0.166016 -17.5 -0.500977h-3c-4.66699 0 -7.83398 1 -9.50098 3s-2.5 5.66699 -2.5 11
c0.666992 35.333 1 88.666 1 159.999l-3 68c0 9.33301 4.33301 14 13 14c4.66699 0 12.667 0.5 24 1.5s21.333 1.16699 30 0.5c21.333 -2 38.333 -14 51 -36c15.333 -22 23 -52.333 23 -91z" />
    <glyph glyph-name="uni0413" unicode="&#x413;" horiz-adv-x="339" 
d="M5 13c0.666992 -4.66699 3.66797 -9.00195 9.00098 -13.002c9.33301 -6.66699 19.666 -10 30.999 -10c6 0 11 0.333008 15 1s7.33301 1.33398 10 2.00098c12.667 1.33301 20.667 3.83301 24 7.5s5 12.167 5 25.5l-1 197c0 172.667 0.666992 278.334 2 317.001l46 1
c50 0 82 0.333008 96 1h9c4 0 6.66699 1 8 3c5.33301 11.333 8 27.666 8 48.999c0 16.667 -0.666992 28.334 -2 35.001c0 2 -2.16699 4.16699 -6.5 6.5s-10.833 3.83301 -19.5 4.5c-14 0.666992 -87 1 -219 1c-4.66699 0 -8.66699 -2.66699 -12 -8s-5 -11 -5 -17z" />
    <glyph glyph-name="uni0414" unicode="&#x414;" horiz-adv-x="478" 
d="M-15 102l38.998 1.00195c8 0 11.667 3.66699 11 11c-0.666992 31.333 -1 69.333 -1 114s-0.333008 88.667 -1 132c0 125.333 -0.666992 204.666 -2 237.999c0 10.667 1.66699 17.667 5 21s10.333 5.66602 21 6.99902h46c132.667 0 206 -1 220 -3
c1.33301 0 2.83301 -1 4.5 -3s2.5 -4 2.5 -6c-1.33301 -32 -2 -95.333 -2 -190c0 -162 1 -258.667 3 -290c0.666992 -8.66699 2 -14 4 -16s7.66699 -3 17 -3c17.333 0 30 -0.333008 38 -1c6 -0.666992 10.5 -2.16699 13.5 -4.5s4.5 -6.83301 4.5 -13.5
c0 -16.667 0.333008 -32 1 -46l1 -98c0 -7.33301 -1.33301 -12.166 -4 -14.499s-7 -3.5 -13 -3.5c-12.667 0 -22.334 -0.333008 -29.001 -1c-5.33301 0 -11.666 -0.166992 -18.999 -0.5s-14.333 -0.166016 -21 0.500977s-11.667 3.16699 -15 7.5
s-5.66602 10.5 -6.99902 18.5v25c0 6.66699 0.666992 12.667 2 18l-229 -1c0.666992 -3.33301 1 -7.33301 1 -12v-25c-1.33301 -8 -3.66602 -14.167 -6.99902 -18.5s-8.33301 -6.83301 -15 -7.5s-13.667 -0.833984 -21 -0.500977s-13.666 0.5 -18.999 0.5
c-6.66699 0.666992 -16.334 1 -29.001 1c-14 0 -21 13.667 -21 41c0 58 0.666992 93.333 2 106c2 11.333 8.33301 16.666 19 15.999zM137.998 490.002c0.666992 -18 1 -98.334 1 -241.001l1 -136c0 -2 0.833008 -4 2.5 -6s3.16699 -3 4.5 -3c33.333 0 58.333 0.333008 75 1
c4 0 6.83301 1 8.5 3s2.5 5.33301 2.5 10c-0.666992 15.333 -1 36 -1 62s-0.333008 52 -1 78c0 130.667 -1 216.334 -3 257.001c0 8 -3.66699 12 -11 12c-30.667 0 -54 0.333008 -70 1c-7.33301 0 -11 -4 -11 -12c1.33301 -12 2 -20.667 2 -26z" />
    <glyph glyph-name="uni0415" unicode="&#x415;" horiz-adv-x="416" 
d="M188 532c48 1.33301 81.998 2.33887 101.998 3.00586c6.66699 0 12.5 2.5 17.5 7.5s7.16699 10.833 6.5 17.5c0 14.667 0.666992 25.667 2 33l1 9c0 9.33301 -2.83301 16.666 -8.5 21.999s-13.834 8 -24.501 8l-265 -2c-10.667 0 -16 -6 -16 -18
c0 -6.66699 0.166992 -25.834 0.5 -57.501s0.5 -84.5 0.5 -158.5c0 -209.333 0.666992 -332.666 2 -369.999c0.666992 -6.66699 3.16699 -12.334 7.5 -17.001s9.83301 -7 16.5 -7h196h81c6 0.666992 10.833 3.16699 14.5 7.5s5.5 9.16602 5.5 14.499l1 45
c0 14.667 -0.666992 24.667 -2 30c-1.33301 6.66699 -3.66602 10.667 -6.99902 12s-7 2 -11 2h-9h-107h-72c-2 0 -4.16699 1 -6.5 3s-3.83301 4 -4.5 6c-0.666992 4 -1 31.667 -1 83c0 58.667 -0.333008 97 -1 115c0 8 0.833008 13.167 2.5 15.5s6.5 3.83301 14.5 4.5
c6 0.666992 15.333 1 28 1h26c6 0 13.167 -0.166992 21.5 -0.5s17.833 -0.166016 28.5 0.500977c19.333 1.33301 30 8.66602 32 21.999c0.666992 9.33301 0.833984 17.666 0.500977 24.999s-0.5 13.666 -0.5 18.999c-0.666992 10 -3.33398 17.167 -8.00098 21.5
s-12.667 6.5 -24 6.5l-115 -2c-1.33301 0 -3.16602 1 -5.49902 3s-3.5 3.66699 -3.5 5c-1.33301 17.333 -2.66602 43.333 -3.99902 78c0 1.33301 1 3.16602 3 5.49902s4 3.83301 6 4.5c4.66699 0.666992 31 1.66699 79 3z" />
    <glyph glyph-name="uni0416" unicode="&#x416;" horiz-adv-x="552" 
d="M290 17c0 106 -0.668945 210.333 -2.00195 313c0 10.667 0.5 17.834 1.5 21.501s3.16699 5.5 6.5 5.5c2.66699 0 6.5 -1.16699 11.5 -3.5s9.16699 -4.16602 12.5 -5.49902c28 -13.333 43.333 -33 46 -59c1.33301 -18.667 2 -75.334 2 -170.001
c0.666992 -23.333 1 -49.666 1 -78.999c0.666992 -18 1.5 -29 2.5 -33s2.66699 -6.16699 5 -6.5s17.833 -0.5 46.5 -0.5c20.667 0 33.334 0.333008 38.001 1c1.33301 0 2.66602 1.16699 3.99902 3.5s2 4.5 2 6.5c0.666992 5.33301 1 45.333 1 120v135
c1.33301 32.667 -3.33398 58.667 -14.001 78c-6.66699 12 -18.667 29.333 -36 52c-0.666992 0.666992 -1.66699 2 -3 4s-1.83301 3.83301 -1.5 5.5s1.83301 3.16699 4.5 4.5c17.333 9.33301 30.333 22.166 39 38.499s15.334 36.166 20.001 59.499
c2.66699 12.667 4 26.334 4 41.001c0 10.667 -0.666992 26.667 -2 48c-0.666992 12.667 -2.16699 20.167 -4.5 22.5s-9.83301 3.83301 -22.5 4.5h-73l1 -82c0 -18.667 -4.83301 -34.334 -14.5 -47.001s-20.834 -22.167 -33.501 -28.5s-23.667 -9.5 -33 -9.5
c-6.66699 0 -10 1.33301 -10 4v166c0 2 -1.33301 4.33301 -4 7s-5 4 -7 4c-9.33301 0 -16.666 0.333008 -21.999 1l-30 1c-23.333 0 -35 -2.66699 -35 -8v-167c0 -4 -7.5 -3.33301 -22.5 2s-26.833 11.333 -35.5 18c-9.33301 7.33301 -15.666 15.666 -18.999 24.999
s-5.66602 21 -6.99902 35l-6 69c-0.666992 8.66699 -5.33398 12.667 -14.001 12l-43 1h-13c-12 0 -19.333 -0.666992 -22 -2s-3.83398 -3.5 -3.50098 -6.5s0.5 -5.16699 0.5 -6.5s-0.333008 -13.333 -1 -36s2 -48.167 8 -76.5s15 -48.833 27 -61.5l21.5 -18
c10.333 -8.66699 15.5 -14.334 15.5 -17.001c0 -2 -3 -5.16699 -9 -9.5s-10.667 -7.83301 -14 -10.5c-32 -33.333 -48 -71.333 -48 -114c-1.33301 -29.333 -2 -108.666 -2 -237.999c0.666992 -13.333 1.83398 -22.166 3.50098 -26.499s6.16699 -6.5 13.5 -6.5h54
c8.66699 0 15.167 1.5 19.5 4.5s6.83301 8.5 7.5 16.5c0.666992 4.66699 1 11.667 1 21v21v82c0 74 2 120.333 6 139c2.66699 12.667 10.334 25.5 23.001 38.5s25.5 23.167 38.5 30.5s19.5 9 19.5 5c0 -32.667 0.333008 -92.5 1 -179.5s1.33398 -136.833 2.00098 -149.5
c0.666992 -9.33301 3 -16 7 -20s10.667 -6.66699 20 -8c7.33301 -0.666992 22.666 -1 45.999 -1c16 0 24 6.33301 24 19z" />
    <glyph glyph-name="uni0417" unicode="&#x417;" horiz-adv-x="468" 
d="M61 491c8.66699 0 17 4.6709 25 14.0039c16 18 35.5 33.667 58.5 47s43.833 20 62.5 20c32.667 0 49 -21.667 49 -65c0 -8.66699 -3 -19.667 -9 -33s-12.333 -22.333 -19 -27c-13.333 -8 -31.166 -14.667 -53.499 -20s-38.5 -8 -48.5 -8
c-3.33301 0 -6.16602 -6.33301 -8.49902 -19s-3.5 -26 -3.5 -40c0 -20.667 2.33301 -31 7 -31c22.667 0 42.667 -0.333008 60 -1c31.333 -0.666992 55.666 -12.834 72.999 -36.501s26 -51.834 26 -84.501s-8.5 -61.334 -25.5 -86.001s-40.167 -37 -69.5 -37
c-18 0 -34.833 5.66699 -50.5 17s-27.5 25 -35.5 41c-5.33301 10 -9.83301 27.833 -13.5 53.5s-6.16699 40.5 -7.5 44.5c-0.666992 1.33301 -2.5 2.5 -5.5 3.5s-5.16699 0.833008 -6.5 -0.5c-29.333 -10 -50 -18.333 -62 -25c-5.33301 -3.33301 -10.333 -7.83301 -15 -13.5
s-7 -10.834 -7 -15.501c0 -24 6.83301 -52.667 20.5 -86s35.834 -62.666 66.501 -87.999s70 -38 118 -38c50.667 0 96.667 15.833 138 47.5s62 91.167 62 178.5c0 82.667 -24 141.667 -72 177c-6 4 -9 7 -9 9c0 1.33301 1.16699 2.66602 3.5 3.99902s4.16602 3 5.49902 5
c7.33301 10 16 26.5 26 49.5s15 49.5 15 79.5c0 23.333 -6.33301 45.5 -19 66.5s-30.334 37.833 -53.001 50.5s-48.334 19 -77.001 19c-30.667 0 -60.167 -6.33301 -88.5 -19s-52.166 -27 -71.499 -43s-29 -26.333 -29 -31s5 -17.5 15 -38.5s17 -33.5 21 -37.5
c2 -2 4.33301 -3 7 -3z" />
    <glyph glyph-name="uni0418" unicode="&#x418;" horiz-adv-x="460" 
d="M111 261c-4.66699 -10 -7.99805 -15.001 -9.99805 -15.001s-3 5 -3 15l1 357v1c0 3.33301 -1 7 -3 11s-4 6.33301 -6 7c-14.667 1.33301 -26.334 2 -35.001 2l-24 -1c-9.33301 -1.33301 -16 -3.83301 -20 -7.5s-6.66699 -10.167 -8 -19.5
c0 -2 -0.166992 -9.16699 -0.5 -21.5s-0.5 -34.833 -0.5 -67.5c0 -94 0.333008 -189.167 1 -285.5s1.33398 -166.833 2.00098 -211.5c0 -11.333 5.33301 -18.333 16 -21c16 -2.66699 32.667 -4 50 -4c12 0 20 1 24 3c5.33301 2.66699 26.666 47.834 63.999 135.501l87 207.5
c6 15.333 9.66699 23 11 23s2.33301 -1.16699 3 -3.5s1 -4.16602 1 -5.49902l2 -317c0.666992 -18 1.66699 -29 3 -33s7 -6.33301 17 -7l37 -1c26 0 39 2.33301 39 7v447v167c0 6 -1.16699 10 -3.5 12s-6.5 2.66699 -12.5 2
c-4.66699 -0.666992 -9.83398 -0.833984 -15.501 -0.500977s-10.834 0.5 -15.501 0.5h-21c-22 0 -33.333 -1.66699 -34 -5l-71.5 -184.5c-34.333 -88.333 -55.166 -140.833 -62.499 -157.5c-3.33301 -9.33301 -7.33301 -19 -12 -29z" />
    <glyph glyph-name="uni0419" unicode="&#x419;" horiz-adv-x="460" 
d="M108.5 808.5c-9 2.33301 -19.834 3.5 -32.501 3.5c-10.667 0 -19.667 -0.833008 -27 -2.5s-11 -4.16699 -11 -7.5l-1 -16c0 -30 10 -57.333 30 -82s59.333 -37 118 -37c37.333 0 66.333 8 87 24s34.334 33 41.001 51s11.667 37 15 57
c0.666992 4 -6.83301 8.33301 -22.5 13s-30.167 7 -43.5 7c-11.333 0 -17 -2 -17 -6c-2 -17.333 -8.5 -33.833 -19.5 -49.5s-24.833 -23.5 -41.5 -23.5c-22 0 -37.333 5 -46 15s-13.667 24.667 -15 44c-0.666992 4 -5.5 7.16699 -14.5 9.5zM110.999 261
c-4.66699 -10 -7.99805 -15.001 -9.99805 -15.001s-3 5 -3 15l1 357v1c0 3.33301 -1 7 -3 11s-4 6.33301 -6 7c-14.667 1.33301 -26.334 2 -35.001 2l-24 -1c-9.33301 -1.33301 -16 -3.83301 -20 -7.5s-6.66699 -10.167 -8 -19.5c0 -2 -0.166992 -9.16699 -0.5 -21.5
s-0.5 -34.833 -0.5 -67.5c0 -94 0.333008 -189.167 1 -285.5s1.33398 -166.833 2.00098 -211.5c0 -11.333 5.33301 -18.333 16 -21c16 -2.66699 32.667 -4 50 -4c12 0 20 1 24 3c5.33301 2.66699 26.666 47.834 63.999 135.501l87 207.5c6 15.333 9.66699 23 11 23
s2.33301 -1.16699 3 -3.5s1 -4.16602 1 -5.49902l2 -317c0.666992 -18 1.66699 -29 3 -33s7 -6.33301 17 -7l37 -1c26 0 39 2.33301 39 7v447v167c0 6 -1.16699 10 -3.5 12s-6.5 2.66699 -12.5 2c-4.66699 -0.666992 -9.83398 -0.833984 -15.501 -0.500977
s-10.834 0.5 -15.501 0.5h-21c-22 0 -33.333 -1.66699 -34 -5l-71.5 -184.5c-34.333 -88.333 -55.166 -140.833 -62.499 -157.5c-3.33301 -9.33301 -7.33301 -19 -12 -29z" />
    <glyph glyph-name="uni041A" unicode="&#x41a;" horiz-adv-x="411" 
d="M108 622v3.00293c0 4.66699 -1 7.83398 -3 9.50098s-5.66699 2.5 -11 2.5c-30.667 -1.33301 -56 -2 -76 -2c-6 0 -9.83301 -1.33301 -11.5 -4s-2.5 -7.33398 -2.5 -14.001v-606c0 -5.33301 1 -8.66602 3 -9.99902c4 -2 14.667 -3 32 -3c23.333 0 41 0.666992 53 2
c10 1.33301 15 6.33301 15 15l3 293c0 18 7 27 21 27c6 0 13.667 -1.33301 23 -4c14 -3.33301 26.333 -10.5 37 -21.5s17 -24.5 19 -40.5c1.33301 -18.667 2 -71 2 -157c0.666992 -20.667 1 -44.667 1 -72c0.666992 -18 1.5 -29 2.5 -33s2.66699 -6.16699 5 -6.5
s17.833 -0.5 46.5 -0.5c20.667 0 33.334 0.333008 38.001 1c1.33301 0 2.66602 1.16699 3.99902 3.5s2 4.5 2 6.5c0.666992 5.33301 1 42 1 110v125c2 30.667 -2.66699 56.667 -14 78c-13.333 23.333 -29.333 40.666 -48 51.999c-4 2.66699 -6 5 -6 7c0 2.66699 2 5 6 7
c16.667 9.33301 29.334 23.5 38.001 42.5s13.667 36.167 15 51.5c0.666992 9.33301 1 38.333 1 87v35c-0.666992 12.667 -2.16699 20.167 -4.5 22.5s-9.83301 3.5 -22.5 3.5h-44c-18 0 -27.333 -0.333008 -28 -1s-0.833984 -9.33398 -0.500977 -26.001s0.5 -31 0.5 -43
c0.666992 -12.667 1 -27.334 1 -44.001c0 -20.667 -4.66699 -37.834 -14 -51.501s-20.5 -23.5 -33.5 -29.5s-24.833 -9 -35.5 -9c-8.66699 0 -13 1.66699 -13 5c-1.33301 25.333 -2 88.333 -2 189z" />
    <glyph glyph-name="uni041B" unicode="&#x41b;" horiz-adv-x="437" 
d="M152.5 392c3 14.667 5.8291 21.999 8.49609 21.999c2 0 3.33301 -2.66699 4 -8l14 -57l43 -161c17.333 -64.667 31 -117.334 41 -158.001c2.66699 -10.667 7.33398 -19 14.001 -25s14.334 -9 23.001 -9c2 0 6.33301 0.666992 13 2c8.66699 2 18.167 5 28.5 9l20.5 8
c4.66699 3.33301 7 6.33301 7 9c-1.33301 16.667 -3 28.334 -5 35.001l-85 316c-40 147.333 -63 231 -69 251c-0.666992 1.33301 -2.16699 2.83301 -4.5 4.5s-4.5 2.5 -6.5 2.5c-40 0 -64.333 -1 -73 -3c-2.66699 -0.666992 -5.66699 -2.66699 -9 -6
s-5.66602 -6.66602 -6.99902 -9.99902c-5.33301 -16 -48 -182.333 -128 -499l-19 -73c-0.666992 -2 -1 -4.66699 -1 -8c0 -7.33301 4 -14 12 -20c10.667 -8 25 -12 43 -12c14.667 -0.666992 24.334 -0.5 29.001 0.5s8 3.66699 10 8s4.66699 13.5 8 27.5l83 326
c0.666992 4 2.5 13.333 5.5 28z" />
    <glyph glyph-name="uni041C" unicode="&#x41c;" horiz-adv-x="583" 
d="M86 632l-33.0029 -0.00292969c-9.33301 0 -14 -4.66699 -14 -14c-28.667 -364 -44.667 -556.667 -48 -578c-0.666992 -2.66699 -1 -6 -1 -10c0 -17.333 9.66699 -27.333 29 -30c9.33301 -0.666992 20.166 -0.5 32.499 0.5s20.833 1.5 25.5 1.5c8 0 12.333 4 13 12
c4 46.667 8.66699 104.167 14 172.5s9.33301 123.166 12 164.499c0 10 1 15 3 15c0.666992 0 1.5 -0.833008 2.5 -2.5s1.5 -3.16699 1.5 -4.5c4 -12.667 14.667 -42.334 32 -89.001c3.33301 -10 9.5 -27.167 18.5 -51.5s16.5 -46.166 22.5 -65.499
c2.66699 -7.33301 5.83398 -13.166 9.50098 -17.499s8.83398 -6.83301 15.501 -7.5c6.66699 -1.33301 15.334 -2 26.001 -2c12.667 0 24.667 1.66699 36 5c2 0.666992 4.66699 4.33398 8 11.001l29.5 100l38.5 124c2 5.33301 3.66699 8 5 8c2 0 3.33301 -2.33301 4 -7
c5.33301 -31.333 13.666 -90.833 24.999 -178.5s18 -143.5 20 -167.5c1.33301 -13.333 4.33301 -22.166 9 -26.499s13.334 -5.83301 26.001 -4.5c2.66699 0 14.5 1.5 35.5 4.5s31.5 6.83301 31.5 11.5c0.666992 3.33301 -7.16602 86 -23.499 248l-38.5 374
c0 2.66699 -1 4.83398 -3 6.50098s-4 2.83398 -6 3.50098s-3.33301 1 -4 1h-86c-1.33301 0 -4.16602 -1 -8.49902 -3s-6.83301 -4.66699 -7.5 -8l-89 -279c-2 -6 -4 -9 -6 -9c-2.66699 0 -5 4.33301 -7 13c-10.667 33.333 -29.334 88.166 -56.001 164.499
s-41 114.5 -43 114.5h-51z" />
    <glyph glyph-name="uni041D" unicode="&#x41d;" horiz-adv-x="453" 
d="M104.5 22.5c1 9.66699 1.33008 19.499 0.99707 29.499s-0.5 17 -0.5 21l3 215c0 8.66699 4 13 12 13c23.333 -0.666992 58.333 -1 105 -1c4.66699 -0.666992 7.83398 -2 9.50098 -4s2.5 -5 2.5 -9c-0.666992 -18.667 -1 -66 -1 -142l-1 -125
c0 -8 1.83301 -14.667 5.5 -20s8.83398 -8 15.501 -8c26.667 0 50.334 1 71.001 3c9.33301 0.666992 15.333 2.66699 18 6s4.66699 10 6 20l2 174c1.33301 258.667 2.66602 399.667 3.99902 423v3c0 9.33301 -5 13.333 -15 12c-10.667 -0.666992 -28.334 -1 -53.001 -1
c-8 -0.666992 -19.667 -1 -35 -1c-5.33301 0 -9.16602 -1 -11.499 -3s-3.5 -5.66699 -3.5 -11l-1 -98c-0.666992 -20.667 -1 -41.667 -1 -63s-0.333008 -38.333 -1 -51c-4 -1.33301 -6.33301 -2 -7 -2c-7.33301 -0.666992 -17.666 -1 -30.999 -1h-26
c-5.33301 0 -12.333 0.166992 -21 0.5s-19.334 0.166016 -32.001 -0.500977h-2c-3.33301 0 -5.66602 1.16699 -6.99902 3.5s-1.66602 5.16602 -0.999023 8.49902l1 82c0 56.667 -0.666992 99.667 -2 129c0 0.666992 -1 1.83398 -3 3.50098s-4 2.83398 -6 3.50098l-63 1
c-19.333 0 -29.666 -0.666992 -30.999 -2c-2 -2 -3 -4.66699 -3 -8v-6v-78v-392v-108c0 -2.66699 0.166992 -7.16699 0.5 -13.5s1.66602 -10.666 3.99902 -12.999s6.83301 -3.83301 13.5 -4.5c5.33301 -0.666992 14.666 -1 27.999 -1l48 1c4.66699 0 7.5 4.83301 8.5 14.5z
" />
    <glyph glyph-name="uni041E" unicode="&#x41e;" horiz-adv-x="437" 
d="M-7 432c0 -20 0.998047 -87.002 2.99805 -201.002l1 -58c0 -44.667 10 -89 30 -133s67 -66 141 -66c38.667 0 71 10.667 97 32s45.333 46 58 74s19 51.333 19 70c0 44.667 -0.166992 102.334 -0.5 173.001s-0.833008 128.334 -1.5 173.001
c0 18.667 -4.33301 40.5 -13 65.5s-24.5 47.667 -47.5 68s-54.5 30.5 -94.5 30.5c-48 0 -85.167 -9.5 -111.5 -28.5s-44.166 -39.167 -53.499 -60.5s-17.666 -47.333 -24.999 -78c-1.33301 -8 -2 -28.333 -2 -61zM232.998 416.998
c0 -48.667 -0.500977 -102.169 -1.50098 -160.502s-2.5 -95.166 -4.5 -110.499c-1.33301 -13.333 -8.33301 -24.833 -21 -34.5s-26 -14.5 -40 -14.5c-4.66699 0 -8 0.333008 -10 1c-19.333 4 -33.166 11 -41.499 21s-12.5 25 -12.5 45v45v127
c0 82.667 0.666992 128.334 2 137.001c2 18 7.66699 35.333 17 52c4.66699 9.33301 11.167 16.5 19.5 21.5s17.5 7.5 27.5 7.5c16 0 30 -7 42 -21c7.33301 -8.66699 12.5 -18 15.5 -28s5.16699 -21.667 6.5 -35c0.666992 -2 1 -19.667 1 -53z" />
    <glyph glyph-name="uni041F" unicode="&#x41f;" horiz-adv-x="430" 
d="M220 18c0 -9.33301 1.66895 -16 5.00195 -20s9.66602 -6.33301 18.999 -7c11.333 -0.666992 29.333 -1 54 -1c12 -1.33301 20 -0.166016 24 3.50098s6 11.5 6 23.5c0 82.667 0.333008 160.334 1 233.001c0 224.667 0.333008 344 1 358c0 2.66699 -0.833008 7 -2.5 13
s-4.16699 9.33301 -7.5 10c-5.33301 0.666992 -82 0 -230 -2l-67 -1c-10.667 0 -16 -9.33301 -16 -28l1 -15c0.666992 -10.667 1 -47.667 1 -111c0 -140 -0.666992 -270.667 -2 -392v-55c0 -6.66699 1.66699 -12.334 5 -17.001s8 -7.33398 14 -8.00098
c10.667 -1.33301 18.667 -2 24 -2c16.667 0 33 3 49 9c4 2 6.66699 6 8 12c0.666992 53.333 1.16699 133.666 1.5 240.999s0.5 190.333 0.5 249c0 2 1 4.5 3 7.5s3.66699 4.5 5 4.5c5.33301 0.666992 14 1 26 1h22c5.33301 0 11.666 -0.166992 18.999 -0.5
s15.333 -0.166016 24 0.500977c4.66699 0 8 -1.16699 10 -3.5s3 -6.16602 3 -11.499c-0.666992 -42.667 -1 -206.334 -1 -491.001z" />
    <glyph glyph-name="uni0420" unicode="&#x420;" 
d="M345 437c0 28 -0.664062 46.999 -1.99707 56.999c-4 38 -20.667 69.833 -50 95.5s-63.333 39.834 -102 42.501c-34.667 2.66699 -70 4 -106 4c-34.667 0 -58 -1.66699 -70 -5c-4.66699 -0.666992 -7.83398 -2.16699 -9.50098 -4.5s-2.5 -5.83301 -2.5 -10.5
c0.666992 -12 1 -107.333 1 -286l1 -303c0 -16 9 -24.667 27 -26l34 1c7.33301 0 12.666 -0.333008 15.999 -1l8 -1c15.333 0 23 8.66699 23 26c-0.666992 16.667 -0.833984 31.167 -0.500977 43.5s0.5 22.5 0.5 30.5c0.666992 10.667 1 27 1 49
c0 19.333 -0.333008 34 -1 44c0 6 0.833008 10 2.5 12s5.5 3.33301 11.5 4s20.333 1.83398 43 3.50098s40 4.83398 52 9.50098c38 15.333 68 39.666 90 72.999s33 68.666 33 105.999v36zM111.003 510.999c0 10.667 4.99805 16 14.998 16h21c12 0 23 -0.666992 33 -2
c16.667 -2.66699 31.834 -12.334 45.501 -29.001s20.834 -32.667 21.501 -48c0 -19.333 -1.16699 -36.166 -3.5 -50.499s-7.5 -27.833 -15.5 -40.5c-14.667 -24 -40.667 -36 -78 -36c-12 0 -22 1 -30 3c-1.33301 0.666992 -2.83301 2 -4.5 4s-2.5 4 -2.5 6
c0 87.333 -0.666992 146.333 -2 177z" />
    <glyph glyph-name="uni0421" unicode="&#x421;" 
d="M209.5 126.5c-7.66699 -31 -25.5 -46.499 -53.5 -46.499c-20 0 -34.833 7.66699 -44.5 23s-14.5 42 -14.5 80c0 172 0.333008 270.667 1 296c0 20.667 4.5 41 13.5 61s26.833 30 53.5 30c16.667 0 28 -7.83301 34 -23.5s9.66699 -30.667 11 -45
s2.33301 -23.166 3 -26.499c2 -8.66699 4.5 -14.167 7.5 -16.5s10.167 -3.5 21.5 -3.5l45 1c12 0 19.167 1.83301 21.5 5.5s3.5 9.16699 3.5 16.5c0 0.666992 0.166992 2.5 0.5 5.5s0.5 8.16699 0.5 15.5c0 40.667 -10.833 78.667 -32.5 114s-64.167 53 -127.5 53
c-62.667 0 -104.667 -19.5 -126 -58.5s-32.333 -80.167 -33 -123.5v-315c0 -44 7.83301 -80.333 23.5 -109s36.167 -49.834 61.5 -63.501s53 -20.5 83 -20.5c37.333 0 68 11.333 92 34s41.5 49 52.5 79s16.5 56 16.5 78v35c0 19.333 -1.33301 37.666 -4 54.999
c0 2 -1.16699 4.16699 -3.5 6.5s-4.5 3.5 -6.5 3.5h-38c-18 0 -31 -0.333008 -39 -1c-2.66699 0 -5.16699 -1.33301 -7.5 -4s-3.5 -5 -3.5 -7c-0.666992 -4.66699 -1 -10.167 -1 -16.5v-13.5c0.666992 -34.667 -2.83301 -67.5 -10.5 -98.5z" />
    <glyph glyph-name="uni0422" unicode="&#x422;" horiz-adv-x="406" 
d="M-28 596l0.999023 -46.999c0 -2 0.833008 -4.33301 2.5 -7s3.16699 -4 4.5 -4c13.333 -0.666992 32.833 -0.666992 58.5 0s40.5 1 44.5 1s6.33301 -4.5 7 -13.5s1 -15.167 1 -18.5c0 -42 0.333008 -123.667 1 -245s1.66699 -201.333 3 -240c0 -14.667 7 -22 21 -22
c30.667 0 53.667 0.333008 69 1c7.33301 0 11 3.66699 11 11v362v150v3c0 5.33301 3.33301 8 10 8l33 1c19.333 1.33301 34 1.66602 44 0.999023c19.333 0 30.333 8.66699 33 26c0.666992 4 1 10.333 1 19c0 3.33301 -0.166992 7.66602 -0.5 12.999
s-0.166016 11.666 0.500977 18.999v4c0 6.66699 -1.5 11.334 -4.5 14.001s-8.5 4.33398 -16.5 5.00098c-2.66699 0 -11.167 0.166992 -25.5 0.5s-39.166 0.5 -74.499 0.5c-134.667 0 -207.334 -1 -218.001 -3c-4 -3.33301 -6 -16.333 -6 -39z" />
    <glyph glyph-name="uni0423" unicode="&#x423;" horiz-adv-x="428" 
d="M87 588l-22 39c-6 9.33301 -12 14 -18 14c-2 0 -5.66699 -1.33301 -11 -4l-46 -30c-6 -4 -10.667 -7.5 -14 -10.5s-5 -5.83301 -5 -8.5c0 -4 3 -11 9 -21l33 -55l118 -198l-94 -270c-0.666992 -2 -1 -5 -1 -9c0 -12.667 4 -20 12 -22s23.667 -5.33301 47 -10l26 -5
c6 0 10 1.66699 12 5c6.66699 9.33301 11.334 19 14.001 29c11.333 32 49.666 132.5 114.999 301.5s100.666 259.5 105.999 271.5c1.33301 2.66699 2 4.66699 2 6c0 4 -3 6.33301 -9 7l-73 16c-2 0.666992 -4.66699 1 -8 1c-9.33301 0 -16.666 -5.33301 -21.999 -16
c-7.33301 -17.333 -16.666 -41.333 -27.999 -72l-25.5 -65.5c-13 -33.667 -20.5 -50.5 -22.5 -50.5c-2.66699 0 -34.334 52.333 -95.001 157z" />
    <glyph glyph-name="uni0424" unicode="&#x424;" horiz-adv-x="577" 
d="M182 41c1.33301 -26.667 2 -44.667 2 -54c0 -8.66699 4.33301 -13 13 -13l80 -2c9.33301 0 14 4 14 12c0 25.333 -0.333008 43 -1 53c0 7.33301 4.33301 11 13 11c6.66699 0 16.667 0.666992 30 2c39.333 6 70.833 21.833 94.5 47.5s40.334 52.667 50.001 81
s14.5 50.166 14.5 65.499c0 148 -1.66699 232 -5 252c-12.667 63.333 -41.5 106 -86.5 128s-105.5 33 -181.5 33c-39.333 0 -76.833 -7 -112.5 -21s-65 -36 -88 -66s-34.5 -67.333 -34.5 -112c0 -52.667 0.5 -109.167 1.5 -169.5s2.5 -95.833 4.5 -106.5
c6 -32 14.667 -55 26 -69c19.333 -23.333 46 -39.333 80 -48l49 -11l18.5 -4c6.33301 -1.33301 12.166 -2.66602 17.499 -3.99902zM287 322l-1.00098 160.001c0 49.333 1 74 3 74c4 1.33301 10.167 0.333008 18.5 -3s13.5 -5.33301 15.5 -6c24 -9.33301 40 -23.333 48 -42
s12.333 -42.667 13 -72c0.666992 -26.667 1 -77.334 1 -152.001v-31c-4 -25.333 -7.16699 -42 -9.5 -50s-8.83301 -16.333 -19.5 -25c-13.333 -11.333 -30.333 -17 -51 -17c-7.33301 0 -12.666 0.333008 -15.999 1c0 30 -0.666992 84.333 -2 163zM121.999 175.001
c-14 9.33301 -22.8311 20.166 -26.498 32.499s-5.66699 24.5 -6 36.5s-0.5 20 -0.5 24c-3.33301 92 -5 153.667 -5 185c0 34 10.167 58.5 30.5 73.5s39.166 23.833 56.499 26.5l5 1c5.33301 0 8 -4 8 -12c0.666992 -61.333 1 -153.666 1 -276.999v-63v-31
c0 -6.66699 -0.333008 -12 -1 -16c-18.667 -0.666992 -39.334 6 -62.001 20z" />
    <glyph glyph-name="uni0425" unicode="&#x425;" horiz-adv-x="500" 
d="M41 619.5c-15.333 -11.667 -25.333 -19.4971 -30 -23.4971c-8 -6 -12 -12 -12 -18c0 -4 1.33301 -8.33301 4 -13c8 -11.333 30 -50 66 -116l53 -93c2.66699 -4.66699 4 -8.66699 4 -12c0 -2.66699 -2 -8 -6 -16l-73 -138l-69 -133c-3.33301 -8 -5 -14 -5 -18
c0 -8 3 -13.667 9 -17c13.333 -8 27.666 -14.667 42.999 -20c8 -2 14.333 -3 19 -3c10 0 17.333 5 22 15l68 132l50 97l7 -8l63.5 -114l63.5 -110c5.33301 -8 12 -12 20 -12c3.33301 0 7 1 11 3l32 21c10 6.66699 17.167 12.167 21.5 16.5s6.5 9.16602 6.5 14.499
c0 6.66699 -4.66699 17.667 -14 33l-74 130c-36 63.333 -58.333 101.666 -67 114.999c-3.33301 5.33301 -5 10 -5 14c0 4.66699 1.66699 9.66699 5 15l54 98.5c25.333 47 44.666 84.167 57.999 111.5c2.66699 6.66699 4 11 4 13c0 6 -5 11.333 -15 16
c-6 2.66699 -11.833 5.5 -17.5 8.5s-11.5 5.83301 -17.5 8.5c-3.33301 1.33301 -8.66602 4 -15.999 8s-13.666 5.66699 -18.999 5c-6 0 -25.667 -36.667 -59 -110l-35 -73l-48 82l-44 75.5c-14 23 -22.667 34.167 -26 33.5c-6 -0.666992 -16.667 -6.83398 -32 -18.501z" />
    <glyph glyph-name="uni0426" unicode="&#x426;" horiz-adv-x="482" 
d="M109.5 117.5c-0.333008 10.333 -0.5 17.502 -0.5 21.502l-2 484c0 1.33301 -2 4 -6 8s-8.66699 5.66699 -14 5c-15.333 -2.66699 -35.666 -3.33398 -60.999 -2.00098c-6.66699 0 -12.334 -2 -17.001 -6s-7 -9 -7 -15c0 -3.33301 0.166992 -19.666 0.5 -48.999
s0.5 -84.333 0.5 -165c1.33301 -237.333 2.33301 -359.666 3 -366.999c2.66699 -17.333 9.66699 -27.666 21 -30.999c2.66699 -0.666992 24 -1 64 -1l203 1c4.66699 -0.666992 7.83398 -1.83398 9.50098 -3.50098s2.5 -4.5 2.5 -8.5v-25
c1.33301 -8 3.66602 -14.167 6.99902 -18.5s8.33301 -6.83301 15 -7.5s13.667 -0.833984 21 -0.500977s13.666 0.5 18.999 0.5c6.66699 0.666992 16.334 1 29.001 1c8 0 13 3.33301 15 10s2.83301 13.167 2.5 19.5s-0.5 10.166 -0.5 11.499c-0.666992 12 -1 30.333 -1 55
c0 24 -0.333008 42 -1 54c-1.33301 10.667 -6.66602 16 -15.999 16c-4.66699 0 -12 0.166992 -22 0.5s-18.333 0.166016 -25 -0.500977h-3c-4 0 -6.83301 1 -8.5 3s-2.83398 5.66699 -3.50098 11c-0.666992 57.333 -1.83398 140.5 -3.50098 249.5
s-3.16699 195.167 -4.5 258.5c-0.666992 8 -5.33398 11.667 -14.001 11l-78 -4c-6.66699 0 -10 -4 -10 -12c0.666992 -6 1.33398 -13.167 2.00098 -21.5s1 -18.166 1 -29.499c0.666992 -27.333 1 -61.833 1 -103.5s0.333008 -82.834 1 -123.501c0 -134 0.333008 -210 1 -228
c0 -9.33301 -4.66699 -14 -14 -14h-34h-67c-3.33301 0 -5.16602 5.16699 -5.49902 15.5z" />
    <glyph glyph-name="uni0427" unicode="&#x427;" horiz-adv-x="412" 
d="M317 468l0.00195312 160.001c-0.666992 2.66699 -6.66699 4.66699 -18 6s-24.333 2 -39 2c-27.333 0 -42.666 -1.66699 -45.999 -5c-1.33301 -1.33301 -2 -38 -2 -110c0 -124 -0.666992 -186 -2 -186c-30.667 1.33301 -54.667 7.33301 -72 18
c-19.333 13.333 -30.333 37.333 -33 72c-2 22 -3 44 -3 66c0 20.667 0.333008 36.334 1 47.001c0 8 0.166992 18 0.5 30s0.166016 26 -0.500977 42c-0.666992 6 -3.5 11.667 -8.5 17s-10.167 7.66602 -15.5 6.99902l-31 1c-6.66699 0 -12 -0.333008 -16 -1
c-9.33301 -0.666992 -15.833 -2.5 -19.5 -5.5s-5.83398 -7.83301 -6.50098 -14.5c-1.33301 -18.667 -2 -65.334 -2 -140.001l1 -90c0.666992 -28 11 -58.333 31 -91c10 -15.333 21.167 -26.5 33.5 -33.5s28.5 -13.167 48.5 -18.5c17.333 -4 34.666 -7 51.999 -9l31 -5
c2.66699 -0.666992 5.5 -2.16699 8.5 -4.5s4.5 -4.16602 4.5 -5.49902c0.666992 -6.66699 1 -30.334 1 -71.001c0 -64 -0.333008 -102.667 -1 -116v-14c0 -5.33301 0.666992 -9.33301 2 -12s4 -4 8 -4c10 0 18.333 -0.333008 25 -1l38 -1c20 0 30 1.66699 30 5v465z" />
    <glyph glyph-name="uni0428" unicode="&#x428;" horiz-adv-x="594" 
d="M452 637c-14.667 0 -32.001 -0.667969 -52.001 -2.00098c-2 0 -4.16699 -1.5 -6.5 -4.5s-3.5 -5.83301 -3.5 -8.5c-0.666992 -5.33301 -1 -66 -1 -182c0 -186.667 0.333008 -289.334 1 -308.001c0 -8.66699 -3.66699 -12.667 -11 -12
c-10 0.666992 -18.5 0.833984 -25.5 0.500977s-12.833 -0.5 -17.5 -0.5c-8 0 -14 0.333008 -18 1c-2 0.666992 -4.16699 2.16699 -6.5 4.5s-3.5 4.5 -3.5 6.5c-2.66699 34 -4 128 -4 282c-0.666992 27.333 -1 59.666 -1 96.999
c-0.666992 8.66699 -2.16699 14.334 -4.5 17.001s-6.83301 4 -13.5 4h-68c-5.33301 0 -9 -1 -11 -3s-3 -5.33301 -3 -10v-94c0 -152 1 -248.667 3 -290v-3c0 -4 -0.833008 -6.83301 -2.5 -8.5s-4.83398 -2.5 -9.50098 -2.5l-74 -1c-6.66699 0 -10 3.66699 -10 11
c0 49.333 -0.333008 136.333 -1 261s-1.66699 201 -3 229c-2 9.33301 -7.66699 13.666 -17 12.999c-6.66699 -1.33301 -16.5 -1.83301 -29.5 -1.5s-20.833 0.5 -23.5 0.5c-19.333 0 -29.666 -6 -30.999 -18c-0.666992 -63.333 -1.16699 -157.833 -1.5 -283.5
s-0.5 -226.167 -0.5 -301.5c0 -9.33301 0.833008 -16.166 2.5 -20.499s4.83398 -6.5 9.50098 -6.5l458 -3c6.66699 0 11 1.83301 13 5.5s3.66699 11.834 5 24.501c0 4 0.166992 22 0.5 54s0.5 89.667 0.5 173c0 247.333 -1.33301 372.333 -4 375
c-2.66699 3.33301 -14.667 5 -36 5z" />
    </font>
</defs>
</svg>
